<svg width="156" height="47" viewBox="0 0 156 47" fill="none" xmlns="http://www.w3.org/2000/svg">
<g clip-path="url(#clip0_0_525)">
<path d="M23.0494 16.1419L35.3154 8.9108C33.6225 7.42711 31.6849 6.2632 29.5931 5.47348C28.5525 5.08051 27.4797 4.78299 26.3874 4.58445C24.1886 4.18574 21.9383 4.18574 19.7395 4.58445C16.434 5.18251 13.3456 6.67499 10.7954 8.90671L23.0254 16.1296H23.0494V16.1419ZM28.5032 0.663682C32.0322 1.5406 35.3075 3.26056 38.0603 5.68242C39.4084 6.86807 40.6185 8.20839 41.6668 9.67693L41.7029 9.72609C41.7409 9.79528 41.7508 9.87693 41.7306 9.95352C41.7103 10.0301 41.6616 10.0956 41.5947 10.1358L41.4464 9.87358L41.5947 10.1317L23.2177 20.9886C23.1703 21.0191 23.1154 21.0354 23.0594 21.0354C23.0034 21.0354 22.9485 21.0191 22.9011 20.9886L4.52415 10.1563L4.46004 10.1235C4.40042 10.0763 4.36061 10.0077 4.3487 9.93162C4.33679 9.85552 4.35367 9.77763 4.39592 9.7138C6.51324 6.7413 9.2793 4.31449 12.4744 2.62611C14.1011 1.7642 15.8232 1.10533 17.6036 0.663682C21.1891 -0.22318 24.9297 -0.22318 28.5152 0.663682" fill="#133054"/>
<path d="M14.5181 25.95L4.50008 20.0381C4.44932 20.3112 4.40391 20.6021 4.36384 20.9108C4.32377 21.2194 4.29037 21.513 4.26366 21.7916C4.23961 22.0866 4.21958 22.3816 4.20355 22.6806C4.18752 22.9797 4.20355 23.2583 4.20355 23.5615C4.20455 27.547 5.41229 31.4344 7.66093 34.6899C9.90956 37.9455 13.0888 40.4095 16.7621 41.7437V29.924C16.7617 29.8708 16.7753 29.8184 16.8014 29.7723C16.8274 29.7262 16.8651 29.6881 16.9104 29.6618L43.6784 13.8599L43.7225 13.8354C43.7584 13.8176 43.7975 13.8075 43.8373 13.8055C43.8771 13.8036 43.917 13.8099 43.9544 13.824C43.9918 13.8382 44.026 13.8599 44.055 13.8879C44.084 13.9159 44.1072 13.9496 44.1232 13.987C45.4387 17.0001 46.1212 20.2618 46.1268 23.5615C46.1268 23.5615 46.1268 23.5615 46.1268 23.5902C46.1229 29.4031 44.0162 35.0092 40.2122 39.3295C36.4082 43.6498 31.1758 46.379 25.5218 46.9918H25.4697C25.3918 46.9918 25.3169 46.9605 25.2614 46.9045C25.2059 46.8485 25.1742 46.7724 25.1732 46.6927V34.869C25.1733 34.8158 25.187 34.7636 25.213 34.7176C25.239 34.6716 25.2764 34.6334 25.3215 34.6068L28.9039 32.4928C28.9484 32.4625 29 32.4451 29.0534 32.4424C29.1068 32.4396 29.1599 32.4517 29.2071 32.4773C29.2544 32.5029 29.2939 32.5411 29.3217 32.5878C29.3494 32.6345 29.3643 32.6881 29.3647 32.7427V41.7559C33.0432 40.4298 36.2282 37.9687 38.4799 34.7125C40.7317 31.4563 41.939 27.5657 41.9353 23.5779C41.9353 23.272 41.9353 22.9783 41.9353 22.697C41.9353 22.4157 41.9152 22.1194 41.8752 21.808C41.8484 21.5185 41.8151 21.2249 41.775 20.9272C41.7349 20.6294 41.6895 20.3399 41.6387 20.0586L21.0017 32.2388V46.6887C21.0036 46.7077 21.0036 46.7269 21.0017 46.746C20.9936 46.8258 20.9549 46.8991 20.8941 46.9498C20.8332 47.0005 20.7552 47.0244 20.6771 47.0164C17.8996 46.7213 15.1983 45.909 12.7068 44.6197C8.88548 42.6617 5.67276 39.6547 3.42851 35.9354C1.18426 32.2162 -0.002894 27.9316 5.29784e-06 23.5615C0.000857378 22.7088 0.0463366 21.8568 0.136249 21.0091C0.389883 18.5917 1.01043 16.2295 1.97555 14.0074C1.98215 13.9904 1.9902 13.9739 1.99959 13.9583C2.03895 13.8899 2.10295 13.84 2.17787 13.8193C2.25278 13.7987 2.33265 13.8088 2.40031 13.8477L18.393 23.2706C18.4486 23.2965 18.4948 23.3394 18.5253 23.3935C18.5632 23.4627 18.5732 23.5443 18.553 23.6209C18.5327 23.6975 18.4839 23.763 18.4171 23.8032L14.8386 25.9377C14.7913 25.9683 14.7364 25.9845 14.6804 25.9845C14.6243 25.9845 14.5694 25.9683 14.5221 25.9377L14.5181 25.95Z" fill="#133054"/>
<path d="M94.0488 23.8317C93.2899 23.0753 92.3944 22.477 91.4121 22.07C90.3953 21.642 89.3059 21.4234 88.2064 21.4268H84.4877L86.7918 13.1264H96.1446L97.3027 8.98438H83.7343L75.6278 37.9906H88.2104C89.308 37.9943 90.3962 37.7829 91.4161 37.3679C92.4121 36.9539 93.3176 36.3414 94.0798 35.5662C94.8421 34.791 95.4459 33.8685 95.8561 32.8524C96.2664 31.8363 96.4748 30.7469 96.4693 29.6477C96.4637 28.5485 96.2444 27.4613 95.824 26.4496C95.4059 25.4658 94.8074 24.573 94.0609 23.8194L94.0488 23.8317ZM91.2037 32.6851C90.4052 33.4537 89.3429 33.8702 88.2464 33.8446H80.9974L83.3136 25.5565H88.2304C89.3266 25.5322 90.3884 25.9485 91.1877 26.7159C91.572 27.1069 91.877 27.5716 92.0851 28.0835C92.2932 28.5953 92.4003 29.1442 92.4003 29.6985C92.4003 30.2528 92.2932 30.8016 92.0851 31.3134C91.877 31.8253 91.572 32.29 91.1877 32.681" fill="#133054"/>
<path d="M77.2226 23.3687C77.2342 21.7714 76.9388 20.1873 76.353 18.7064C75.7969 17.2898 74.9808 15.9951 73.9487 14.8921C72.917 13.7927 71.694 12.8993 70.3422 12.2578C69.9622 12.078 69.5729 11.9194 69.1761 11.7826L69.9776 8.98438H65.7139L65.1128 11.1394H61.7428C58.6577 11.2755 55.7416 12.6174 53.5962 14.8881C52.5649 15.9917 51.7489 17.2862 51.1918 18.7023C50.3171 20.9 50.0786 23.3085 50.5049 25.6408C50.9312 27.9732 52.0042 30.1311 53.5962 31.8575C54.6346 32.9695 55.8656 33.8751 57.2267 34.5287C57.6178 34.7174 58.0192 34.8829 58.4288 35.0245L57.5993 37.9865H61.8149L62.4641 35.6677H65.79C67.3559 35.5997 68.8927 35.2125 70.3102 34.5287C71.6638 33.8745 72.8868 32.9687 73.9166 31.8575C76.0514 29.5718 77.2364 26.5291 77.2226 23.3687ZM58.6612 30.9562C57.7677 30.5323 56.9685 29.9258 56.313 29.174C55.655 28.417 55.1449 27.5381 54.8103 26.5848C54.1075 24.5332 54.1075 22.2984 54.8103 20.2468C55.1457 19.2939 55.6557 18.4151 56.313 17.6576C56.969 16.9063 57.768 16.2999 58.6612 15.8754C59.6325 15.422 60.6771 15.1554 61.7428 15.0888H64.0149L59.4867 31.2922C59.207 31.1976 58.9327 31.0868 58.6653 30.9603L58.6612 30.9562ZM72.7305 26.5889C72.3961 27.5414 71.8875 28.4201 71.2318 29.1781C70.5751 29.9304 69.7746 30.5369 68.8796 30.9603C67.9088 31.4151 66.864 31.6819 65.7981 31.7469H63.5741L68.0942 15.5559C68.36 15.6482 68.6208 15.7549 68.8756 15.8754C69.7696 16.3004 70.5699 16.9067 71.2278 17.6576C71.8828 18.4162 72.3913 19.2948 72.7265 20.2468C73.4296 22.2983 73.4296 24.5333 72.7265 26.5848" fill="#133054"/>
<path d="M155.13 18.715C154.574 17.2984 153.758 16.0037 152.726 14.9008C151.695 13.8011 150.471 12.9077 149.12 12.2664C148.728 12.0867 148.326 11.9294 147.917 11.7953L148.719 8.99707H144.491L143.89 11.1521H140.52C137.435 11.2878 134.519 12.6298 132.374 14.9008C131.342 16.0043 130.526 17.2989 129.969 18.715C129.095 20.9127 128.856 23.3212 129.282 25.6535C129.709 27.9859 130.782 30.1438 132.374 31.8702C133.411 32.9818 134.64 33.8874 136 34.5414C136.391 34.73 136.793 34.8955 137.202 35.0372L136.373 37.9992H140.588L141.237 35.6804H144.563C146.129 35.6126 147.666 35.2253 149.084 34.5414C150.437 33.8873 151.66 32.9815 152.69 31.8702C154.27 30.1362 155.334 27.9787 155.76 25.6494C156.186 23.3202 155.955 20.9152 155.094 18.715H155.13ZM137.435 30.9566C136.544 30.5318 135.748 29.9253 135.094 29.1745C134.438 28.417 133.929 27.5381 133.596 26.5852C132.893 24.5336 132.893 22.2988 133.596 20.2472C133.93 19.2947 134.439 18.416 135.094 17.658C135.75 16.9067 136.549 16.3003 137.443 15.8758C138.414 15.4225 139.459 15.1559 140.524 15.0892H142.796L138.268 31.2926C137.988 31.1979 137.714 31.0871 137.447 30.9607L137.435 30.9566ZM151.512 26.5893C151.178 27.5418 150.669 28.4206 150.013 29.1786C149.357 29.9308 148.556 30.5373 147.661 30.9607C146.69 31.4155 145.645 31.6823 144.579 31.7473H142.347L146.872 15.5563C147.137 15.6485 147.398 15.7552 147.653 15.8758C148.547 16.3008 149.347 16.9071 150.005 17.658C150.66 18.4165 151.169 19.2951 151.504 20.2472C152.207 22.2987 152.207 24.5337 151.504 26.5852" fill="#133054"/>
<path d="M122.82 8.99707H119.446L112.021 35.5575V8.99707H108.811H107.97H104.596L96.4852 38.0033H100.705L107.97 12.0042V38.0033H111.34H112.021H115.551L122.82 12.0001V38.0033H126.872V8.99707H123.662H122.82Z" fill="#133054"/>
</g>
<defs>
<clipPath id="clip0_0_525">
<rect width="156" height="47" fill="white"/>
</clipPath>
</defs>
</svg>
