<svg width="26" height="109" viewBox="0 0 26 109" fill="none" xmlns="http://www.w3.org/2000/svg">
<path d="M17 1C17 0.447715 16.5523 0 16 0C15.4477 0 15 0.447715 15 1H17ZM24.8997 26.5L23.9058 26.3896L24.8997 26.5ZM1.39966 57L2.37744 56.7904L1.39966 57ZM12.1933 108.207C12.5838 108.598 13.217 108.598 13.6075 108.207L19.9715 101.843C20.362 101.453 20.362 100.819 19.9715 100.429C19.5809 100.038 18.9478 100.038 18.5572 100.429L12.9004 106.086L7.24354 100.429C6.85301 100.038 6.21985 100.038 5.82932 100.429C5.4388 100.819 5.4388 101.453 5.82932 101.843L12.1933 108.207ZM15 1C15 8.06917 17.6763 11.9573 20.0851 15.3423C22.4606 18.6807 24.4601 21.4004 23.9058 26.3896L25.8935 26.6104C26.5392 20.7996 24.0889 17.5193 21.7146 14.1827C19.3735 10.8927 17 7.43083 17 1H15ZM23.9058 26.3896C23.5709 29.4036 21.8845 31.6434 19.4202 33.6227C16.9155 35.6344 13.7763 37.2537 10.6142 39.1296C7.51899 40.9657 4.43695 43.0331 2.40195 45.8749C0.324174 48.7763 -0.608364 52.4042 0.421881 57.2096L2.37744 56.7904C1.45733 52.4986 2.29961 49.4529 4.02802 47.0393C5.7992 44.5659 8.5547 42.6767 11.6346 40.8497C14.6476 39.0623 18.021 37.3118 20.6726 35.182C23.3647 33.0198 25.4784 30.3464 25.8935 26.6104L23.9058 26.3896ZM0.421881 57.2096C2.01875 64.658 8.26479 69.071 13.714 72.7662C16.4982 74.6542 19.0629 76.3417 20.9528 78.1791C22.8237 79.998 23.8997 81.8387 23.8997 84H25.8997C25.8997 81.0794 24.4133 78.754 22.3469 76.7451C20.2996 74.7546 17.5521 72.9524 14.8365 71.1109C9.28601 67.347 3.78205 63.342 2.37744 56.7904L0.421881 57.2096ZM23.8997 84C23.8997 85.6925 23.2867 86.8347 22.2921 87.9053C21.7777 88.4591 21.1654 88.9881 20.466 89.5661C19.7802 90.1328 19.0025 90.7531 18.2328 91.4427C16.6723 92.8407 15.0708 94.5853 13.8699 97.1457C12.6709 99.7021 11.9004 103.009 11.9004 107.5H13.9004C13.9004 103.241 14.6298 100.235 15.6806 97.9949C16.7296 95.7584 18.1279 94.2218 19.5673 92.9323C20.2975 92.2781 21.0196 91.7031 21.7401 91.1077C22.4468 90.5236 23.1469 89.9238 23.7574 89.2665C25.0127 87.9153 25.8997 86.3075 25.8997 84H23.8997Z" fill="#133054"/>
</svg>
