<svg width="36" height="141" viewBox="0 0 36 141" fill="none" xmlns="http://www.w3.org/2000/svg">
<path d="M10.33 1.53579C10.6259 1.06946 10.4878 0.451552 10.0214 0.155646C9.55511 -0.14026 8.9372 -0.00210953 8.64129 0.464214L10.33 1.53579ZM17.3174 140.899C17.8141 141.141 18.4125 140.934 18.6539 140.437L22.588 132.343C22.8294 131.846 22.6225 131.247 22.1257 131.006C21.629 130.765 21.0306 130.972 20.7892 131.468L17.2922 138.663L10.097 135.166C9.6003 134.925 9.00192 135.132 8.7605 135.629C8.51908 136.126 8.72605 136.724 9.22278 136.965L17.3174 140.899ZM8.64129 0.464214C2.97971 9.3864 2.22978 18.7348 4.7523 25.9082C7.27246 33.075 13.1056 38.1217 20.5109 38.1217V36.1217C14.1346 36.1217 8.94245 31.7951 6.63905 25.2447C4.338 18.7011 4.96626 9.9886 10.33 1.53579L8.64129 0.464214ZM20.5109 38.1217C29.9171 38.1217 35.4895 32.1837 35.808 25.9706C35.9666 22.8773 34.8039 19.7808 32.2246 17.4726C29.6509 15.1695 25.7454 13.7171 20.5109 13.7171V15.7171C25.383 15.7171 28.7703 17.0653 30.8909 18.963C33.0059 20.8557 33.9392 23.3604 33.8106 25.8682C33.5549 30.8574 29.0208 36.1217 20.5109 36.1217V38.1217ZM20.5109 13.7171C12.3404 13.7171 6.84394 17.4259 3.62372 23.0047C0.440608 28.5192 -0.479838 35.7805 0.22142 42.9347C0.923662 50.099 3.26375 57.2859 6.74936 62.7103C10.2165 68.1061 14.9606 71.9572 20.5109 71.9572V69.9572C15.9547 69.9572 11.7407 66.7784 8.43194 61.6291C5.14159 56.5086 2.8878 49.6354 2.21188 42.7396C1.53498 35.8338 2.45208 29.0351 5.35586 24.0045C8.22253 19.0383 13.0623 15.7171 20.5109 15.7171V13.7171ZM20.5109 71.9572C25.7198 71.9572 29.5852 70.6614 32.1254 68.5885C34.6817 66.5025 35.8298 63.6763 35.6347 60.8297C35.2442 55.1287 29.6039 49.8388 20.5109 49.8388V51.8388C28.8747 51.8388 33.3409 56.6081 33.6394 60.9664C33.789 63.1493 32.9272 65.3528 30.8609 67.039C28.7786 68.7382 25.4086 69.9572 20.5109 69.9572V71.9572ZM20.5109 49.8388C14.1097 49.8388 9.34168 53.3541 6.22053 58.4619C3.11516 63.544 1.59479 70.2525 1.59479 76.9013C1.59479 83.5502 3.11515 90.2587 6.22051 95.3407C9.34167 100.449 14.1097 103.964 20.5109 103.964V101.964C14.968 101.964 10.778 98.9634 7.92712 94.2979C5.06044 89.6065 3.59479 83.2837 3.59479 76.9013C3.59479 70.5189 5.06045 64.1962 7.92714 59.5048C10.778 54.8392 14.9681 51.8388 20.5109 51.8388V49.8388ZM20.5109 103.964C25.8395 103.964 29.7937 102.608 32.3913 100.446C35.0029 98.2719 36.1729 95.3342 35.9795 92.382C35.5918 86.4652 29.8516 80.9309 20.5109 80.9309V82.9309C29.0864 82.9309 33.6824 87.913 33.9837 92.5128C34.1348 94.8187 33.2375 97.1392 31.1117 98.9089C28.9719 100.69 25.5185 101.964 20.5109 101.964V103.964ZM20.5109 80.9309C14.639 80.9309 10.6799 82.9182 8.3823 86.547C6.1387 90.0905 5.61203 95.0039 6.07723 100.589C7.00871 111.773 12.0003 126.423 16.8095 140.327L18.6996 139.673C13.8616 125.686 8.97638 111.301 8.07033 100.423C7.61677 94.9776 8.18115 90.6034 10.0721 87.6169C11.9089 84.7158 15.1278 82.9309 20.5109 82.9309V80.9309Z" fill="#133054"/>
</svg>
