<svg width="74" height="248" viewBox="0 0 74 248" fill="none" xmlns="http://www.w3.org/2000/svg">
<path d="M22.4846 0.999995C22.4846 0.44771 22.0369 -2.86102e-06 21.4846 0C20.9323 2.92063e-06 20.4846 0.447721 20.4846 1.00001L22.4846 0.999995ZM61.4844 98L60.7953 98.7247L61.4844 98ZM53.3084 247.237C53.7154 247.61 54.348 247.583 54.7213 247.176L60.8049 240.543C61.1782 240.136 61.1509 239.504 60.7439 239.131C60.3369 238.757 59.7043 238.785 59.331 239.192L53.9234 245.087L48.0278 239.679C47.6208 239.306 46.9883 239.333 46.6149 239.74C46.2416 240.147 46.2689 240.78 46.6759 241.153L53.3084 247.237ZM21.4847 66L21.3183 66.986L21.4847 66ZM7.23171 133.531C4.53485 132.843 3.07306 131.498 2.42508 129.816C1.75445 128.076 1.87482 125.77 2.80536 123.046C4.66503 117.602 9.58942 111.004 16.1404 105.306C22.6798 99.6179 30.7194 94.9332 38.6958 93.2069C46.6407 91.4874 54.4645 92.7053 60.7953 98.7247L62.1734 97.2753C55.2542 90.6964 46.7029 89.4276 38.2727 91.2521C29.8741 93.0699 21.5385 97.9599 14.8278 103.797C8.12868 109.623 2.92801 116.5 0.912741 122.399C-0.0941886 125.347 -0.348773 128.18 0.558822 130.535C1.48906 132.949 3.55864 134.657 6.73695 135.469L7.23171 133.531ZM60.7953 98.7247C75.5782 112.781 73.1557 131.94 67.0754 156.825C61.0319 181.56 51.4775 211.613 52.9853 246.543L54.9834 246.457C53.4912 211.887 62.9368 182.19 69.0183 157.3C75.063 132.56 77.8905 112.219 62.1734 97.2753L60.7953 98.7247ZM20.4846 1.00001C20.4846 7.6607 18.1492 14.5978 15.1544 21.4429C13.6598 24.8592 12.0155 28.2218 10.4326 31.503C8.85448 34.7744 7.33646 37.9671 6.119 41.0028C3.71119 47.0067 2.34409 52.7017 4.32201 57.3596C6.33388 62.0975 11.5994 65.3452 21.3183 66.986L21.6512 65.014C12.12 63.4048 7.76044 60.34 6.16291 56.5779C4.53143 52.7358 5.57059 47.7433 7.97529 41.7472C9.16409 38.7829 10.6539 35.6474 12.234 32.372C13.8093 29.1063 15.4736 25.7033 16.9868 22.2446C20.0076 15.3397 22.4846 8.0893 22.4846 0.999995L20.4846 1.00001ZM21.3183 66.986C29.6539 68.3933 34.3147 73.4808 36.3368 80.3242C38.3807 87.2414 37.7197 95.9717 35.2189 104.433C32.7211 112.885 28.4257 120.938 23.3506 126.484C18.2443 132.064 12.5682 134.894 7.23171 133.531L6.73695 135.469C13.1508 137.106 19.5393 133.612 24.8261 127.835C30.1441 122.023 34.5704 113.684 37.1369 105C39.7005 96.326 40.4467 87.1757 38.2548 79.7575C36.0411 72.2654 30.8231 66.5624 21.6512 65.014L21.3183 66.986Z" fill="#133054"/>
</svg>
