<svg width="320" height="700" viewBox="0 0 320 700" fill="none" xmlns="http://www.w3.org/2000/svg">
<path d="M3.38 4.77L6.591 12.258L9.802 4.77H11.687V14H10.491V5.862L6.968 14.052H6.097L2.6 5.914V14H1.43V4.77H3.38ZM19.2763 14V12.895C19.0683 13.3023 18.7563 13.6143 18.3403 13.831C17.9329 14.0477 17.4866 14.156 17.0013 14.156C16.0566 14.156 15.2983 13.831 14.7263 13.181C14.1543 12.531 13.8683 11.7337 13.8683 10.789C13.8683 9.83567 14.1586 9.03833 14.7393 8.397C15.3199 7.747 16.0739 7.422 17.0013 7.422C17.8939 7.422 18.5786 7.71667 19.0553 8.306C19.1766 8.47933 19.2503 8.592 19.2763 8.644V7.578H20.4593V14H19.2763ZM19.3023 10.789C19.3023 10.139 19.1116 9.59733 18.7303 9.164C18.3489 8.73067 17.8463 8.514 17.2223 8.514C16.5809 8.514 16.0653 8.735 15.6753 9.177C15.2853 9.61033 15.0903 10.1477 15.0903 10.789C15.0903 11.4737 15.2853 12.011 15.6753 12.401C16.0653 12.843 16.5809 13.064 17.2223 13.064C17.8463 13.064 18.3489 12.843 18.7303 12.401C19.1116 11.959 19.3023 11.4217 19.3023 10.789ZM24.6736 14V8.644H22.0736V7.578H28.4566V8.644H25.8566V14H24.6736ZM32.5938 7.422C33.5992 7.422 34.3965 7.76 34.9858 8.436C35.5752 9.10333 35.8698 9.93533 35.8698 10.932H30.5268C30.5442 11.3567 30.6742 11.7553 30.9168 12.128C31.1595 12.492 31.4715 12.7477 31.8528 12.895C32.1042 13.0077 32.3902 13.064 32.7108 13.064C33.0922 13.064 33.4692 12.9903 33.8418 12.843C34.2145 12.687 34.4745 12.4617 34.6218 12.167H35.7918C35.7225 12.557 35.5232 12.908 35.1938 13.22C34.8645 13.5233 34.4962 13.7573 34.0888 13.922C33.7162 14.078 33.2568 14.156 32.7108 14.156C31.7402 14.156 30.9342 13.8353 30.2928 13.194C29.6515 12.5527 29.3308 11.751 29.3308 10.789C29.3308 9.827 29.6385 9.02533 30.2538 8.384C30.8692 7.74267 31.6492 7.422 32.5938 7.422ZM32.5938 8.436C32.0912 8.436 31.6622 8.566 31.3068 8.826C30.9602 9.086 30.7262 9.45867 30.6048 9.944H34.5568C34.4095 9.46733 34.1668 9.099 33.8288 8.839C33.4908 8.57033 33.0792 8.436 32.5938 8.436ZM37.7718 14V7.578H39.3448L41.9058 12.635L44.4668 7.578H45.9878V14H44.8308V8.956L42.2568 14.039H41.4378L38.8898 9.008V14H37.7718ZM53.3759 14V12.895C53.1679 13.3023 52.8559 13.6143 52.4399 13.831C52.0325 14.0477 51.5862 14.156 51.1009 14.156C50.1562 14.156 49.3979 13.831 48.8259 13.181C48.2539 12.531 47.9679 11.7337 47.9679 10.789C47.9679 9.83567 48.2582 9.03833 48.8389 8.397C49.4195 7.747 50.1735 7.422 51.1009 7.422C51.9935 7.422 52.6782 7.71667 53.1549 8.306C53.2762 8.47933 53.3499 8.592 53.3759 8.644V7.578H54.5589V14H53.3759ZM53.4019 10.789C53.4019 10.139 53.2112 9.59733 52.8299 9.164C52.4485 8.73067 51.9459 8.514 51.3219 8.514C50.6805 8.514 50.1649 8.735 49.7749 9.177C49.3849 9.61033 49.1899 10.1477 49.1899 10.789C49.1899 11.4737 49.3849 12.011 49.7749 12.401C50.1649 12.843 50.6805 13.064 51.3219 13.064C51.9459 13.064 52.4485 12.843 52.8299 12.401C53.2112 11.959 53.4019 11.4217 53.4019 10.789ZM58.7732 14V8.644H56.1732V7.578H62.5562V8.644H59.9562V14H58.7732ZM64.1654 14V7.578H65.3484V12.414L69.0794 7.578H70.2624V14H69.0794V9.125L65.3484 14H64.1654ZM72.6833 14V7.578H73.8273V10.36L77.2073 7.578H78.8973L75.1013 10.659L79.0663 14H77.3893L73.8273 11.062V14H72.6833ZM85.203 14V12.895C84.995 13.3023 84.683 13.6143 84.267 13.831C83.8597 14.0477 83.4133 14.156 82.928 14.156C81.9833 14.156 81.225 13.831 80.653 13.181C80.081 12.531 79.795 11.7337 79.795 10.789C79.795 9.83567 80.0853 9.03833 80.666 8.397C81.2467 7.747 82.0007 7.422 82.928 7.422C83.8207 7.422 84.5053 7.71667 84.982 8.306C85.1033 8.47933 85.177 8.592 85.203 8.644V7.578H86.386V14H85.203ZM85.229 10.789C85.229 10.139 85.0383 9.59733 84.657 9.164C84.2757 8.73067 83.773 8.514 83.149 8.514C82.5077 8.514 81.992 8.735 81.602 9.177C81.212 9.61033 81.017 10.1477 81.017 10.789C81.017 11.4737 81.212 12.011 81.602 12.401C81.992 12.843 82.5077 13.064 83.149 13.064C83.773 13.064 84.2757 12.843 84.657 12.401C85.0383 11.959 85.229 11.4217 85.229 10.789ZM1.43 31V21.77H6.227C7.18033 21.77 7.93433 21.9867 8.489 22.42C9.05233 22.8447 9.334 23.5163 9.334 24.435C9.334 25.3363 9.048 26.0167 8.476 26.476C7.904 26.9267 7.15433 27.152 6.227 27.152H2.691V31H1.43ZM6.266 22.94H2.691V25.982H6.266C6.79467 25.982 7.21933 25.8563 7.54 25.605C7.86933 25.3537 8.034 24.9723 8.034 24.461C8.034 23.447 7.44467 22.94 6.266 22.94ZM17.3722 24.578L13.1602 33.912H11.9512L13.3292 30.857L10.4172 24.578H11.7562L13.9532 29.466L16.1502 24.578H17.3722ZM24.6674 26.58H23.4714C23.1161 25.8693 22.4921 25.514 21.5994 25.514C20.9927 25.514 20.5031 25.7393 20.1304 26.19C19.7577 26.6407 19.5714 27.1737 19.5714 27.789C19.5714 28.4043 19.7621 28.9373 20.1434 29.388C20.5247 29.8387 21.0144 30.064 21.6124 30.064C22.5051 30.064 23.1334 29.7087 23.4974 28.998H24.6674C24.6241 29.3793 24.3944 29.7953 23.9784 30.246C23.3977 30.8527 22.6091 31.156 21.6124 31.156C20.6851 31.156 19.9094 30.8267 19.2854 30.168C18.6614 29.5093 18.3494 28.7163 18.3494 27.789C18.3494 26.853 18.6614 26.06 19.2854 25.41C19.9094 24.7513 20.6807 24.422 21.5994 24.422C22.3361 24.422 22.9947 24.6127 23.5754 24.994C24.1561 25.3667 24.5201 25.8953 24.6674 26.58ZM32.3861 26.58H31.1901C30.8348 25.8693 30.2108 25.514 29.3181 25.514C28.7115 25.514 28.2218 25.7393 27.8491 26.19C27.4765 26.6407 27.2901 27.1737 27.2901 27.789C27.2901 28.4043 27.4808 28.9373 27.8621 29.388C28.2435 29.8387 28.7331 30.064 29.3311 30.064C30.2238 30.064 30.8521 29.7087 31.2161 28.998H32.3861C32.3428 29.3793 32.1131 29.7953 31.6971 30.246C31.1165 30.8527 30.3278 31.156 29.3311 31.156C28.4038 31.156 27.6281 30.8267 27.0041 30.168C26.3801 29.5093 26.0681 28.7163 26.0681 27.789C26.0681 26.853 26.3801 26.06 27.0041 25.41C27.6281 24.7513 28.3995 24.422 29.3181 24.422C30.0548 24.422 30.7135 24.6127 31.2941 24.994C31.8748 25.3667 32.2388 25.8953 32.3861 26.58ZM34.2419 31V24.578H35.3859V27.36L38.7659 24.578H40.4559L36.6599 27.659L40.6249 31H38.9479L35.3859 28.062V31H34.2419ZM41.9486 31V24.578H43.1316V29.414L46.8626 24.578H48.0456V31H46.8626V26.125L43.1316 31H41.9486ZM50.4925 31V24.578H51.6755V29.414L55.4065 24.578H56.5895V31H55.4065V26.125L51.6755 31H50.4925ZM53.5605 22.615C53.8292 22.615 54.0328 22.5283 54.1715 22.355C54.3102 22.1817 54.3795 21.9563 54.3795 21.679V21.458H55.3675V21.705C55.3675 22.277 55.2072 22.7277 54.8865 23.057C54.5658 23.3863 54.1238 23.551 53.5605 23.551C52.9972 23.551 52.5552 23.3863 52.2345 23.057C51.9138 22.719 51.7535 22.2683 51.7535 21.705V21.458H52.7415V21.679C52.7415 21.9477 52.8108 22.173 52.9495 22.355C53.0968 22.5283 53.3005 22.615 53.5605 22.615ZM67.9239 31H66.7409V28.673H64.8299L63.2699 31H61.9049L63.6079 28.517C63.1225 28.4043 62.7499 28.179 62.4899 27.841C62.2299 27.503 62.0999 27.0827 62.0999 26.58C62.0999 25.9387 62.3165 25.4447 62.7499 25.098C63.1919 24.7513 63.7379 24.578 64.3879 24.578H67.9239V31ZM64.5309 27.607H66.7409V25.644H64.5309C63.7422 25.644 63.3479 25.956 63.3479 26.58C63.3479 26.9267 63.4562 27.1867 63.6729 27.36C63.8895 27.5247 64.1755 27.607 64.5309 27.607ZM72.9994 30.09C74.1174 30.09 74.6764 29.765 74.6764 29.115C74.6764 28.5517 74.2257 28.27 73.3244 28.27H72.2584V27.23H73.3374C74.1607 27.23 74.5724 26.9353 74.5724 26.346C74.5724 26.0687 74.4294 25.852 74.1434 25.696C73.8314 25.5487 73.4284 25.475 72.9344 25.475C72.0504 25.475 71.448 25.7783 71.1274 26.385H69.9704C70.0397 25.9603 70.2434 25.592 70.5814 25.28C70.9194 24.9593 71.3137 24.7253 71.7644 24.578C72.1024 24.4653 72.501 24.409 72.9604 24.409C73.2984 24.409 73.619 24.4393 73.9224 24.5C74.2257 24.5607 74.5204 24.6603 74.8064 24.799C75.0924 24.929 75.3177 25.124 75.4824 25.384C75.6557 25.644 75.7424 25.9517 75.7424 26.307C75.7424 26.645 75.6514 26.944 75.4694 27.204C75.2874 27.4553 75.036 27.6243 74.7154 27.711C75.5127 27.9363 75.9114 28.4 75.9114 29.102C75.9114 29.5873 75.751 29.9947 75.4304 30.324C75.1184 30.6447 74.7544 30.8657 74.3384 30.987C73.9224 31.0997 73.476 31.156 72.9994 31.156C72.2454 31.156 71.552 30.974 70.9194 30.61C70.2867 30.246 69.9184 29.7217 69.8144 29.037H71.0234C71.0754 29.1497 71.1534 29.2667 71.2574 29.388C71.422 29.622 71.669 29.7997 71.9984 29.921C72.3277 30.0337 72.6614 30.09 72.9994 30.09ZM79.1609 26.645H81.1109C82.3762 26.645 83.1822 27.0783 83.5289 27.945C83.6242 28.231 83.6719 28.517 83.6719 28.803C83.6719 29.5137 83.4249 30.0597 82.9309 30.441C82.4455 30.8137 81.8432 31 81.1239 31H77.9779V24.578H79.1609V26.645ZM80.9809 27.711H79.1609V29.934H80.9809C81.9429 29.934 82.4239 29.557 82.4239 28.803C82.4239 28.075 81.9429 27.711 80.9809 27.711ZM84.7509 31V24.578H85.9339V31H84.7509ZM88.3493 31V24.578H89.4933V27.36L92.8733 24.578H94.5633L90.7673 27.659L94.7323 31H93.0553L89.4933 28.062V31H88.3493ZM6.578 46.375H4.342C3.25867 46.375 2.392 46.1107 1.742 45.582C1.10067 45.0533 0.78 44.2733 0.78 43.242C0.78 42.1847 1.10067 41.409 1.742 40.915C2.38333 40.4123 3.25 40.161 4.342 40.161H6.578V38.64H7.839V40.161H10.075C11.167 40.161 12.0337 40.4123 12.675 40.915C13.3163 41.409 13.637 42.1847 13.637 43.242C13.637 44.308 13.3077 45.0967 12.649 45.608C11.999 46.1193 11.141 46.375 10.075 46.375H7.839V48.13H6.578V46.375ZM6.578 45.205V41.331H4.303C2.821 41.331 2.08 41.9767 2.08 43.268C2.08 43.918 2.28367 44.4033 2.691 44.724C3.09833 45.0447 3.63567 45.205 4.303 45.205H6.578ZM10.114 41.331H7.839V45.205H10.114C10.7813 45.205 11.3187 45.0447 11.726 44.724C12.1333 44.4033 12.337 43.918 12.337 43.268C12.337 41.9767 11.596 41.331 10.114 41.331ZM15.6439 48V41.578H16.8269V46.414L20.5579 41.578H21.7409V48H20.5579V43.125L16.8269 48H15.6439ZM26.8138 47.09C27.9318 47.09 28.4908 46.765 28.4908 46.115C28.4908 45.5517 28.0402 45.27 27.1388 45.27H26.0728V44.23H27.1518C27.9752 44.23 28.3868 43.9353 28.3868 43.346C28.3868 43.0687 28.2438 42.852 27.9578 42.696C27.6458 42.5487 27.2428 42.475 26.7488 42.475C25.8648 42.475 25.2625 42.7783 24.9418 43.385H23.7848C23.8542 42.9603 24.0578 42.592 24.3958 42.28C24.7338 41.9593 25.1282 41.7253 25.5788 41.578C25.9168 41.4653 26.3155 41.409 26.7748 41.409C27.1128 41.409 27.4335 41.4393 27.7368 41.5C28.0402 41.5607 28.3348 41.6603 28.6208 41.799C28.9068 41.929 29.1322 42.124 29.2968 42.384C29.4702 42.644 29.5568 42.9517 29.5568 43.307C29.5568 43.645 29.4658 43.944 29.2838 44.204C29.1018 44.4553 28.8505 44.6243 28.5298 44.711C29.3272 44.9363 29.7258 45.4 29.7258 46.102C29.7258 46.5873 29.5655 46.9947 29.2448 47.324C28.9328 47.6447 28.5688 47.8657 28.1528 47.987C27.7368 48.0997 27.2905 48.156 26.8138 48.156C26.0598 48.156 25.3665 47.974 24.7338 47.61C24.1012 47.246 23.7328 46.7217 23.6288 46.037H24.8378C24.8898 46.1497 24.9678 46.2667 25.0718 46.388C25.2365 46.622 25.4835 46.7997 25.8128 46.921C26.1422 47.0337 26.4758 47.09 26.8138 47.09ZM31.7923 48V41.578H32.9753V46.414L36.7063 41.578H37.8893V48H36.7063V43.125L32.9753 48H31.7923ZM40.3103 48V41.578H41.4543V44.36L44.8343 41.578H46.5243L42.7283 44.659L46.6933 48H45.0163L41.4543 45.062V48H40.3103ZM52.83 48V46.895C52.622 47.3023 52.31 47.6143 51.894 47.831C51.4866 48.0477 51.0403 48.156 50.555 48.156C49.6103 48.156 48.852 47.831 48.28 47.181C47.708 46.531 47.422 45.7337 47.422 44.789C47.422 43.8357 47.7123 43.0383 48.293 42.397C48.8736 41.747 49.6276 41.422 50.555 41.422C51.4476 41.422 52.1323 41.7167 52.609 42.306C52.7303 42.4793 52.804 42.592 52.83 42.644V41.578H54.013V48H52.83ZM52.856 44.789C52.856 44.139 52.6653 43.5973 52.284 43.164C51.9026 42.7307 51.4 42.514 50.776 42.514C50.1346 42.514 49.619 42.735 49.229 43.177C48.839 43.6103 48.644 44.1477 48.644 44.789C48.644 45.4737 48.839 46.011 49.229 46.401C49.619 46.843 50.1346 47.064 50.776 47.064C51.4 47.064 51.9026 46.843 52.284 46.401C52.6653 45.959 52.856 45.4217 52.856 44.789Z" fill="#133054"/>
<rect x="1" y="361" width="138" height="98" fill="white" stroke="#133054" stroke-width="2"/>
<path d="M28.6531 399V389.77H36.7131V399H35.4521V390.94H29.9141V399H28.6531ZM40.5331 397.96V401.912H39.3631V392.578H40.5331V393.683C40.7324 393.284 41.0531 392.977 41.4951 392.76C41.9371 392.535 42.3964 392.422 42.8731 392.422C43.8351 392.422 44.6021 392.743 45.1741 393.384C45.7461 394.025 46.0321 394.827 46.0321 395.789C46.0321 396.76 45.7418 397.566 45.1611 398.207C44.5804 398.84 43.8178 399.156 42.8731 399.156C42.4831 399.156 42.0888 399.078 41.6901 398.922C41.3001 398.766 40.9924 398.549 40.7671 398.272C40.6458 398.142 40.5678 398.038 40.5331 397.96ZM40.5071 395.789C40.5071 396.465 40.7064 397.002 41.1051 397.401C41.4951 397.843 42.0151 398.064 42.6651 398.064C43.3064 398.064 43.8264 397.847 44.2251 397.414C44.6238 396.972 44.8231 396.43 44.8231 395.789C44.8231 395.156 44.6281 394.615 44.2381 394.164C43.8048 393.731 43.2804 393.514 42.6651 393.514C42.0151 393.514 41.4908 393.731 41.0921 394.164C40.7021 394.597 40.5071 395.139 40.5071 395.789ZM48.0086 399V392.578H49.1916V397.414L52.9226 392.578H54.1056V399H52.9226V394.125L49.1916 399H48.0086ZM56.5266 399V392.578H57.6706V395.36L61.0506 392.578H62.7406L58.9446 395.659L62.9096 399H61.2326L57.6706 396.062V399H56.5266ZM64.7662 396.14L65.1172 392.578H69.9012V399H68.7182V393.644H66.0662L65.8192 396.218C65.7846 396.547 65.7499 396.825 65.7152 397.05C65.6806 397.275 65.6156 397.531 65.5202 397.817C65.4249 398.094 65.3079 398.32 65.1692 398.493C65.0306 398.658 64.8399 398.801 64.5972 398.922C64.3546 399.035 64.0729 399.091 63.7522 399.091H63.4012V398.025H63.5572C63.8952 398.025 64.1422 397.947 64.2982 397.791C64.4629 397.635 64.5799 397.388 64.6492 397.05C64.6926 396.79 64.7316 396.487 64.7662 396.14ZM77.2855 399V397.895C77.0775 398.302 76.7655 398.614 76.3495 398.831C75.9422 399.048 75.4959 399.156 75.0105 399.156C74.0659 399.156 73.3075 398.831 72.7355 398.181C72.1635 397.531 71.8775 396.734 71.8775 395.789C71.8775 394.836 72.1679 394.038 72.7485 393.397C73.3292 392.747 74.0832 392.422 75.0105 392.422C75.9032 392.422 76.5879 392.717 77.0645 393.306C77.1859 393.479 77.2595 393.592 77.2855 393.644V392.578H78.4685V399H77.2855ZM77.3115 395.789C77.3115 395.139 77.1209 394.597 76.7395 394.164C76.3582 393.731 75.8555 393.514 75.2315 393.514C74.5902 393.514 74.0745 393.735 73.6845 394.177C73.2945 394.61 73.0995 395.148 73.0995 395.789C73.0995 396.474 73.2945 397.011 73.6845 397.401C74.0745 397.843 74.5902 398.064 75.2315 398.064C75.8555 398.064 76.3582 397.843 76.7395 397.401C77.1209 396.959 77.3115 396.422 77.3115 395.789ZM85.2829 397.934V393.644H82.6569L82.4879 395.074C82.4099 395.724 82.3145 396.318 82.2019 396.855C82.1152 397.28 81.9809 397.639 81.7989 397.934H85.2829ZM80.9409 400.937H79.8879V397.934H80.6549C81.0189 397.449 81.2789 396.465 81.4349 394.983L81.7079 392.578H86.4659V397.934H87.6359V400.937H86.5829V399H80.9409V400.937ZM89.116 399V392.578H90.299V395.204H93.9V392.578H95.083V399H93.9V396.27H90.299V399H89.116ZM102.473 399V397.895C102.265 398.302 101.953 398.614 101.537 398.831C101.13 399.048 100.683 399.156 100.198 399.156C99.2534 399.156 98.495 398.831 97.923 398.181C97.351 397.531 97.065 396.734 97.065 395.789C97.065 394.836 97.3554 394.038 97.936 393.397C98.5167 392.747 99.2707 392.422 100.198 392.422C101.091 392.422 101.775 392.717 102.252 393.306C102.373 393.479 102.447 393.592 102.473 393.644V392.578H103.656V399H102.473ZM102.499 395.789C102.499 395.139 102.308 394.597 101.927 394.164C101.546 393.731 101.043 393.514 100.419 393.514C99.7777 393.514 99.262 393.735 98.872 394.177C98.482 394.61 98.287 395.148 98.287 395.789C98.287 396.474 98.482 397.011 98.872 397.401C99.262 397.843 99.7777 398.064 100.419 398.064C101.043 398.064 101.546 397.843 101.927 397.401C102.308 396.959 102.499 396.422 102.499 395.789ZM111.549 399H110.366V396.673H108.455L106.895 399H105.53L107.233 396.517C106.748 396.404 106.375 396.179 106.115 395.841C105.855 395.503 105.725 395.083 105.725 394.58C105.725 393.939 105.942 393.445 106.375 393.098C106.817 392.751 107.363 392.578 108.013 392.578H111.549V399ZM108.156 395.607H110.366V393.644H108.156C107.368 393.644 106.973 393.956 106.973 394.58C106.973 394.927 107.082 395.187 107.298 395.36C107.515 395.525 107.801 395.607 108.156 395.607ZM28.6419 416V409.578H30.2149L32.7759 414.635L35.3369 409.578H36.8579V416H35.7009V410.956L33.1269 416.039H32.3079L29.7599 411.008V416H28.6419ZM44.246 416V414.895C44.038 415.302 43.726 415.614 43.31 415.831C42.9027 416.048 42.4563 416.156 41.971 416.156C41.0263 416.156 40.268 415.831 39.696 415.181C39.124 414.531 38.838 413.734 38.838 412.789C38.838 411.836 39.1283 411.038 39.709 410.397C40.2897 409.747 41.0437 409.422 41.971 409.422C42.8637 409.422 43.5483 409.717 44.025 410.306C44.1463 410.479 44.22 410.592 44.246 410.644V409.578H45.429V416H44.246ZM44.272 412.789C44.272 412.139 44.0813 411.597 43.7 411.164C43.3187 410.731 42.816 410.514 42.192 410.514C41.5507 410.514 41.035 410.735 40.645 411.177C40.255 411.61 40.06 412.148 40.06 412.789C40.06 413.474 40.255 414.011 40.645 414.401C41.035 414.843 41.5507 415.064 42.192 415.064C42.816 415.064 43.3187 414.843 43.7 414.401C44.0813 413.959 44.272 413.422 44.272 412.789ZM49.6433 416V410.644H47.0433V409.578H53.4263V410.644H50.8263V416H49.6433ZM57.5636 409.422C58.5689 409.422 59.3662 409.76 59.9556 410.436C60.5449 411.103 60.8396 411.935 60.8396 412.932H55.4966C55.5139 413.357 55.6439 413.755 55.8866 414.128C56.1292 414.492 56.4412 414.748 56.8226 414.895C57.0739 415.008 57.3599 415.064 57.6806 415.064C58.0619 415.064 58.4389 414.99 58.8116 414.843C59.1842 414.687 59.4442 414.462 59.5916 414.167H60.7616C60.6922 414.557 60.4929 414.908 60.1636 415.22C59.8342 415.523 59.4659 415.757 59.0586 415.922C58.6859 416.078 58.2266 416.156 57.6806 416.156C56.7099 416.156 55.9039 415.835 55.2626 415.194C54.6212 414.553 54.3006 413.751 54.3006 412.789C54.3006 411.827 54.6082 411.025 55.2236 410.384C55.8389 409.743 56.6189 409.422 57.5636 409.422ZM57.5636 410.436C57.0609 410.436 56.6319 410.566 56.2766 410.826C55.9299 411.086 55.6959 411.459 55.5746 411.944H59.5266C59.3792 411.467 59.1366 411.099 58.7986 410.839C58.4606 410.57 58.0489 410.436 57.5636 410.436ZM62.7415 416V409.578H64.3145L66.8755 414.635L69.4365 409.578H70.9575V416H69.8005V410.956L67.2265 416.039H66.4075L63.8595 411.008V416H62.7415ZM78.3456 416V414.895C78.1376 415.302 77.8256 415.614 77.4096 415.831C77.0023 416.048 76.5559 416.156 76.0706 416.156C75.1259 416.156 74.3676 415.831 73.7956 415.181C73.2236 414.531 72.9376 413.734 72.9376 412.789C72.9376 411.836 73.2279 411.038 73.8086 410.397C74.3893 409.747 75.1433 409.422 76.0706 409.422C76.9633 409.422 77.6479 409.717 78.1246 410.306C78.2459 410.479 78.3196 410.592 78.3456 410.644V409.578H79.5286V416H78.3456ZM78.3716 412.789C78.3716 412.139 78.1809 411.597 77.7996 411.164C77.4183 410.731 76.9156 410.514 76.2916 410.514C75.6503 410.514 75.1346 410.735 74.7446 411.177C74.3546 411.61 74.1596 412.148 74.1596 412.789C74.1596 413.474 74.3546 414.011 74.7446 414.401C75.1346 414.843 75.6503 415.064 76.2916 415.064C76.9156 415.064 77.4183 414.843 77.7996 414.401C78.1809 413.959 78.3716 413.422 78.3716 412.789ZM83.7429 416V410.644H81.1429V409.578H87.5259V410.644H84.9259V416H83.7429ZM89.1351 416V409.578H90.3181V414.414L94.0491 409.578H95.2321V416H94.0491V411.125L90.3181 416H89.1351ZM97.653 416V409.578H98.797V412.36L102.177 409.578H103.867L100.071 412.659L104.036 416H102.359L98.797 413.062V416H97.653ZM110.173 416V414.895C109.965 415.302 109.653 415.614 109.237 415.831C108.829 416.048 108.383 416.156 107.898 416.156C106.953 416.156 106.195 415.831 105.623 415.181C105.051 414.531 104.765 413.734 104.765 412.789C104.765 411.836 105.055 411.038 105.636 410.397C106.216 409.747 106.97 409.422 107.898 409.422C108.79 409.422 109.475 409.717 109.952 410.306C110.073 410.479 110.147 410.592 110.173 410.644V409.578H111.356V416H110.173ZM110.199 412.789C110.199 412.139 110.008 411.597 109.627 411.164C109.245 410.731 108.743 410.514 108.119 410.514C107.477 410.514 106.962 410.735 106.572 411.177C106.182 411.61 105.987 412.148 105.987 412.789C105.987 413.474 106.182 414.011 106.572 414.401C106.962 414.843 107.477 415.064 108.119 415.064C108.743 415.064 109.245 414.843 109.627 414.401C110.008 413.959 110.199 413.422 110.199 412.789ZM39.7567 433V426.578H40.9397V431.414L44.6707 426.578H45.8537V433H44.6707V428.125L40.9397 433H39.7567ZM54.991 435.782V433.156C53.9337 433.13 53.0454 432.814 52.326 432.207C51.6154 431.6 51.26 430.794 51.26 429.789C51.26 428.766 51.624 427.952 52.352 427.345C53.08 426.73 53.9597 426.422 54.991 426.422V423.432H56.174V426.422C57.2314 426.448 58.1154 426.764 58.826 427.371C59.5454 427.969 59.905 428.775 59.905 429.789C59.905 430.812 59.541 431.631 58.813 432.246C58.085 432.853 57.2054 433.156 56.174 433.156V435.782H54.991ZM53.184 428.138C52.716 428.528 52.482 429.078 52.482 429.789C52.482 430.5 52.7204 431.059 53.197 431.466C53.6737 431.865 54.2717 432.064 54.991 432.064V427.514C54.2544 427.531 53.652 427.739 53.184 428.138ZM58.683 429.789C58.683 429.061 58.4447 428.502 57.968 428.112C57.5 427.713 56.902 427.514 56.174 427.514V432.064C56.9107 432.047 57.513 431.843 57.981 431.453C58.449 431.054 58.683 430.5 58.683 429.789ZM61.8719 433V426.578H63.0549V431.414L66.7859 426.578H67.9689V433H66.7859V428.125L63.0549 433H61.8719ZM73.0418 432.09C74.1598 432.09 74.7188 431.765 74.7188 431.115C74.7188 430.552 74.2682 430.27 73.3668 430.27H72.3008V429.23H73.3798C74.2032 429.23 74.6148 428.935 74.6148 428.346C74.6148 428.069 74.4718 427.852 74.1858 427.696C73.8738 427.549 73.4708 427.475 72.9768 427.475C72.0928 427.475 71.4905 427.778 71.1698 428.385H70.0128C70.0822 427.96 70.2858 427.592 70.6238 427.28C70.9618 426.959 71.3562 426.725 71.8068 426.578C72.1448 426.465 72.5435 426.409 73.0028 426.409C73.3408 426.409 73.6615 426.439 73.9648 426.5C74.2682 426.561 74.5628 426.66 74.8488 426.799C75.1348 426.929 75.3602 427.124 75.5248 427.384C75.6982 427.644 75.7848 427.952 75.7848 428.307C75.7848 428.645 75.6938 428.944 75.5118 429.204C75.3298 429.455 75.0785 429.624 74.7578 429.711C75.5552 429.936 75.9538 430.4 75.9538 431.102C75.9538 431.587 75.7935 431.995 75.4728 432.324C75.1608 432.645 74.7968 432.866 74.3808 432.987C73.9648 433.1 73.5185 433.156 73.0418 433.156C72.2878 433.156 71.5945 432.974 70.9618 432.61C70.3292 432.246 69.9608 431.722 69.8568 431.037H71.0658C71.1178 431.15 71.1958 431.267 71.2998 431.388C71.4645 431.622 71.7115 431.8 72.0408 431.921C72.3702 432.034 72.7038 432.09 73.0418 432.09ZM78.0203 433V426.578H79.2033V431.414L82.9343 426.578H84.1173V433H82.9343V428.125L79.2033 433H78.0203ZM86.5383 433V426.578H87.6823V429.36L91.0623 426.578H92.7523L88.9563 429.659L92.9213 433H91.2443L87.6823 430.062V433H86.5383ZM99.058 433V431.895C98.85 432.302 98.538 432.614 98.122 432.831C97.7147 433.048 97.2683 433.156 96.783 433.156C95.8383 433.156 95.08 432.831 94.508 432.181C93.936 431.531 93.65 430.734 93.65 429.789C93.65 428.836 93.9403 428.038 94.521 427.397C95.1017 426.747 95.8557 426.422 96.783 426.422C97.6757 426.422 98.3603 426.717 98.837 427.306C98.9583 427.479 99.032 427.592 99.058 427.644V426.578H100.241V433H99.058ZM99.084 429.789C99.084 429.139 98.8933 428.597 98.512 428.164C98.1307 427.731 97.628 427.514 97.004 427.514C96.3627 427.514 95.847 427.735 95.457 428.177C95.067 428.61 94.872 429.148 94.872 429.789C94.872 430.474 95.067 431.011 95.457 431.401C95.847 431.843 96.3627 432.064 97.004 432.064C97.628 432.064 98.1307 431.843 98.512 431.401C98.8933 430.959 99.084 430.422 99.084 429.789Z" fill="#133054"/>
<rect x="91" y="601" width="138" height="98" fill="white" stroke="#133054" stroke-width="2"/>
<path d="M109.733 641.54H113.022C113.992 641.54 114.777 641.774 115.375 642.242C115.981 642.701 116.285 643.39 116.285 644.309C116.285 645.254 115.986 645.938 115.388 646.363C114.798 646.788 114.01 647 113.022 647H108.472V637.77H115.57V638.953H109.733V641.54ZM113.061 642.71H109.733V645.83H113.061C114.343 645.83 114.985 645.314 114.985 644.283C114.985 643.737 114.807 643.338 114.452 643.087C114.096 642.836 113.633 642.71 113.061 642.71ZM118.42 647V640.578H119.603V645.414L123.334 640.578H124.517V647H123.334V642.125L119.603 647H118.42ZM129.863 640.422C130.825 640.422 131.626 640.747 132.268 641.397C132.918 642.038 133.243 642.836 133.243 643.789C133.243 644.742 132.913 645.544 132.255 646.194C131.605 646.835 130.807 647.156 129.863 647.156C128.901 647.156 128.095 646.831 127.445 646.181C126.803 645.531 126.483 644.734 126.483 643.789C126.483 642.827 126.808 642.025 127.458 641.384C128.108 640.743 128.909 640.422 129.863 640.422ZM129.863 646.064C130.504 646.064 131.024 645.843 131.423 645.401C131.821 644.959 132.021 644.422 132.021 643.789C132.021 643.139 131.817 642.597 131.41 642.164C131.011 641.731 130.495 641.514 129.863 641.514C129.221 641.514 128.701 641.735 128.303 642.177C127.904 642.61 127.705 643.148 127.705 643.789C127.705 644.43 127.908 644.972 128.316 645.414C128.723 645.847 129.239 646.064 129.863 646.064ZM135.546 644.14L135.897 640.578H140.681V647H139.498V641.644H136.846L136.599 644.218C136.564 644.547 136.529 644.825 136.495 645.05C136.46 645.275 136.395 645.531 136.3 645.817C136.204 646.094 136.087 646.32 135.949 646.493C135.81 646.658 135.619 646.801 135.377 646.922C135.134 647.035 134.852 647.091 134.532 647.091H134.181V646.025H134.337C134.675 646.025 134.922 645.947 135.078 645.791C135.242 645.635 135.359 645.388 135.429 645.05C135.472 644.79 135.511 644.487 135.546 644.14ZM146.024 640.422C146.986 640.422 147.787 640.747 148.429 641.397C149.079 642.038 149.404 642.836 149.404 643.789C149.404 644.742 149.074 645.544 148.416 646.194C147.766 646.835 146.968 647.156 146.024 647.156C145.062 647.156 144.256 646.831 143.606 646.181C142.964 645.531 142.644 644.734 142.644 643.789C142.644 642.827 142.969 642.025 143.619 641.384C144.269 640.743 145.07 640.422 146.024 640.422ZM146.024 646.064C146.665 646.064 147.185 645.843 147.584 645.401C147.982 644.959 148.182 644.422 148.182 643.789C148.182 643.139 147.978 642.597 147.571 642.164C147.172 641.731 146.656 641.514 146.024 641.514C145.382 641.514 144.862 641.735 144.464 642.177C144.065 642.61 143.866 643.148 143.866 643.789C143.866 644.43 144.069 644.972 144.477 645.414C144.884 645.847 145.4 646.064 146.024 646.064ZM151.338 647V640.578H156.122V641.644H152.521V647H151.338ZM157.737 647V640.578H158.92V645.414L162.651 640.578H163.834V647H162.651V642.125L158.92 647H157.737ZM170.688 647V644.556C170.567 644.591 170.393 644.621 170.168 644.647C170.133 644.647 170.047 644.656 169.908 644.673C169.778 644.682 169.67 644.69 169.583 644.699C169.288 644.716 169.037 644.725 168.829 644.725C167.928 644.725 167.247 644.534 166.788 644.153C166.329 643.772 166.099 643.143 166.099 642.268V640.578H167.282V642.138C167.282 642.381 167.308 642.602 167.36 642.801C167.473 643.382 167.962 643.672 168.829 643.672C169.028 643.672 169.284 643.663 169.596 643.646C169.683 643.637 169.791 643.629 169.921 643.62C170.06 643.603 170.146 643.594 170.181 643.594C170.372 643.568 170.541 643.542 170.688 643.516V640.578H171.871V647H170.688ZM177.099 640.422C178.105 640.422 178.902 640.76 179.491 641.436C180.081 642.103 180.375 642.935 180.375 643.932H175.032C175.05 644.357 175.18 644.755 175.422 645.128C175.665 645.492 175.977 645.748 176.358 645.895C176.61 646.008 176.896 646.064 177.216 646.064C177.598 646.064 177.975 645.99 178.347 645.843C178.72 645.687 178.98 645.462 179.127 645.167H180.297C180.228 645.557 180.029 645.908 179.699 646.22C179.37 646.523 179.002 646.757 178.594 646.922C178.222 647.078 177.762 647.156 177.216 647.156C176.246 647.156 175.44 646.835 174.798 646.194C174.157 645.553 173.836 644.751 173.836 643.789C173.836 642.827 174.144 642.025 174.759 641.384C175.375 640.743 176.155 640.422 177.099 640.422ZM177.099 641.436C176.597 641.436 176.168 641.566 175.812 641.826C175.466 642.086 175.232 642.459 175.11 642.944H179.062C178.915 642.467 178.672 642.099 178.334 641.839C177.996 641.57 177.585 641.436 177.099 641.436ZM188.114 642.58H186.918C186.563 641.869 185.939 641.514 185.046 641.514C184.44 641.514 183.95 641.739 183.577 642.19C183.205 642.641 183.018 643.174 183.018 643.789C183.018 644.404 183.209 644.937 183.59 645.388C183.972 645.839 184.461 646.064 185.059 646.064C185.952 646.064 186.58 645.709 186.944 644.998H188.114C188.071 645.379 187.841 645.795 187.425 646.246C186.845 646.853 186.056 647.156 185.059 647.156C184.132 647.156 183.356 646.827 182.732 646.168C182.108 645.509 181.796 644.716 181.796 643.789C181.796 642.853 182.108 642.06 182.732 641.41C183.356 640.751 184.128 640.422 185.046 640.422C185.783 640.422 186.442 640.613 187.022 640.994C187.603 641.367 187.967 641.895 188.114 642.58ZM189.97 647V640.578H191.114V643.36L194.494 640.578H196.184L192.388 643.659L196.353 647H194.676L191.114 644.062V647H189.97ZM197.677 647V640.578H198.86V645.414L202.591 640.578H203.774V647H202.591V642.125L198.86 647H197.677ZM209.003 640.422C210.008 640.422 210.805 640.76 211.395 641.436C211.984 642.103 212.279 642.935 212.279 643.932H206.936C206.953 644.357 207.083 644.755 207.326 645.128C207.568 645.492 207.88 645.748 208.262 645.895C208.513 646.008 208.799 646.064 209.12 646.064C209.501 646.064 209.878 645.99 210.251 645.843C210.623 645.687 210.883 645.462 211.031 645.167H212.201C212.131 645.557 211.932 645.908 211.603 646.22C211.273 646.523 210.905 646.757 210.498 646.922C210.125 647.078 209.666 647.156 209.12 647.156C208.149 647.156 207.343 646.835 206.702 646.194C206.06 645.553 205.74 644.751 205.74 643.789C205.74 642.827 206.047 642.025 206.663 641.384C207.278 640.743 208.058 640.422 209.003 640.422ZM209.003 641.436C208.5 641.436 208.071 641.566 207.716 641.826C207.369 642.086 207.135 642.459 207.014 642.944H210.966C210.818 642.467 210.576 642.099 210.238 641.839C209.9 641.57 209.488 641.436 209.003 641.436ZM140.84 664V657.578H142.023V660.204H145.624V657.578H146.807V664H145.624V661.27H142.023V664H140.84ZM154.197 664V662.895C153.989 663.302 153.677 663.614 153.261 663.831C152.853 664.048 152.407 664.156 151.922 664.156C150.977 664.156 150.219 663.831 149.647 663.181C149.075 662.531 148.789 661.734 148.789 660.789C148.789 659.836 149.079 659.038 149.66 658.397C150.24 657.747 150.994 657.422 151.922 657.422C152.814 657.422 153.499 657.717 153.976 658.306C154.097 658.479 154.171 658.592 154.197 658.644V657.578H155.38V664H154.197ZM154.223 660.789C154.223 660.139 154.032 659.597 153.651 659.164C153.269 658.731 152.767 658.514 152.143 658.514C151.501 658.514 150.986 658.735 150.596 659.177C150.206 659.61 150.011 660.148 150.011 660.789C150.011 661.474 150.206 662.011 150.596 662.401C150.986 662.843 151.501 663.064 152.143 663.064C152.767 663.064 153.269 662.843 153.651 662.401C154.032 661.959 154.223 661.422 154.223 660.789ZM163.858 657.578L159.646 666.912H158.437L159.815 663.857L156.903 657.578H158.242L160.439 662.466L162.636 657.578H163.858ZM165.354 664V657.578H166.498V660.36L169.878 657.578H171.568L167.772 660.659L171.737 664H170.06L166.498 661.062V664H165.354ZM173.06 664V657.578H174.243V662.414L177.974 657.578H179.157V664H177.974V659.125L174.243 664H173.06Z" fill="#133054"/>
<rect x="181" y="361" width="138" height="98" fill="white" stroke="#133054" stroke-width="2"/>
<path d="M200.721 409.54H204.01C204.981 409.54 205.765 409.774 206.363 410.242C206.97 410.701 207.273 411.39 207.273 412.309C207.273 413.254 206.974 413.938 206.376 414.363C205.787 414.788 204.998 415 204.01 415H199.46V405.77H206.558V406.953H200.721V409.54ZM204.049 410.71H200.721V413.83H204.049C205.332 413.83 205.973 413.314 205.973 412.283C205.973 411.737 205.796 411.338 205.44 411.087C205.085 410.836 204.621 410.71 204.049 410.71ZM209.409 415V408.578H210.592V413.414L214.323 408.578H215.506V415H214.323V410.125L210.592 415H209.409ZM220.851 408.422C221.813 408.422 222.615 408.747 223.256 409.397C223.906 410.038 224.231 410.836 224.231 411.789C224.231 412.742 223.902 413.544 223.243 414.194C222.593 414.835 221.796 415.156 220.851 415.156C219.889 415.156 219.083 414.831 218.433 414.181C217.792 413.531 217.471 412.734 217.471 411.789C217.471 410.827 217.796 410.025 218.446 409.384C219.096 408.743 219.898 408.422 220.851 408.422ZM220.851 414.064C221.493 414.064 222.013 413.843 222.411 413.401C222.81 412.959 223.009 412.422 223.009 411.789C223.009 411.139 222.806 410.597 222.398 410.164C222 409.731 221.484 409.514 220.851 409.514C220.21 409.514 219.69 409.735 219.291 410.177C218.893 410.61 218.693 411.148 218.693 411.789C218.693 412.43 218.897 412.972 219.304 413.414C219.712 413.847 220.227 414.064 220.851 414.064ZM227.706 415V409.644H225.106V408.578H231.489V409.644H228.889V415H227.706ZM235.626 408.422C236.631 408.422 237.429 408.76 238.018 409.436C238.607 410.103 238.902 410.935 238.902 411.932H233.559C233.576 412.357 233.706 412.755 233.949 413.128C234.192 413.492 234.504 413.748 234.885 413.895C235.136 414.008 235.422 414.064 235.743 414.064C236.124 414.064 236.501 413.99 236.874 413.843C237.247 413.687 237.507 413.462 237.654 413.167H238.824C238.755 413.557 238.555 413.908 238.226 414.22C237.897 414.523 237.528 414.757 237.121 414.922C236.748 415.078 236.289 415.156 235.743 415.156C234.772 415.156 233.966 414.835 233.325 414.194C232.684 413.553 232.363 412.751 232.363 411.789C232.363 410.827 232.671 410.025 233.286 409.384C233.901 408.743 234.681 408.422 235.626 408.422ZM235.626 409.436C235.123 409.436 234.694 409.566 234.339 409.826C233.992 410.086 233.758 410.459 233.637 410.944H237.589C237.442 410.467 237.199 410.099 236.861 409.839C236.523 409.57 236.111 409.436 235.626 409.436ZM245.59 415L243.432 412.595L241.261 415H239.831L242.717 411.802L239.818 408.578H241.352L243.458 410.957L245.603 408.578H247.046L244.173 411.763L247.046 415H245.59ZM248.561 415V408.578H249.744V411.204H253.345V408.578H254.528V415H253.345V412.27H249.744V415H248.561ZM259.877 408.422C260.839 408.422 261.641 408.747 262.282 409.397C262.932 410.038 263.257 410.836 263.257 411.789C263.257 412.742 262.928 413.544 262.269 414.194C261.619 414.835 260.822 415.156 259.877 415.156C258.915 415.156 258.109 414.831 257.459 414.181C256.818 413.531 256.497 412.734 256.497 411.789C256.497 410.827 256.822 410.025 257.472 409.384C258.122 408.743 258.924 408.422 259.877 408.422ZM259.877 414.064C260.518 414.064 261.038 413.843 261.437 413.401C261.836 412.959 262.035 412.422 262.035 411.789C262.035 411.139 261.831 410.597 261.424 410.164C261.025 409.731 260.51 409.514 259.877 409.514C259.236 409.514 258.716 409.735 258.317 410.177C257.918 410.61 257.719 411.148 257.719 411.789C257.719 412.43 257.923 412.972 258.33 413.414C258.737 413.847 259.253 414.064 259.877 414.064ZM265.56 412.14L265.911 408.578H270.695V415H269.512V409.644H266.86L266.613 412.218C266.578 412.547 266.543 412.825 266.509 413.05C266.474 413.275 266.409 413.531 266.314 413.817C266.218 414.094 266.101 414.32 265.963 414.493C265.824 414.658 265.633 414.801 265.391 414.922C265.148 415.035 264.866 415.091 264.546 415.091H264.195V414.025H264.351C264.689 414.025 264.936 413.947 265.092 413.791C265.256 413.635 265.373 413.388 265.443 413.05C265.486 412.79 265.525 412.487 265.56 412.14ZM276.038 408.422C277 408.422 277.802 408.747 278.443 409.397C279.093 410.038 279.418 410.836 279.418 411.789C279.418 412.742 279.089 413.544 278.43 414.194C277.78 414.835 276.983 415.156 276.038 415.156C275.076 415.156 274.27 414.831 273.62 414.181C272.979 413.531 272.658 412.734 272.658 411.789C272.658 410.827 272.983 410.025 273.633 409.384C274.283 408.743 275.085 408.422 276.038 408.422ZM276.038 414.064C276.679 414.064 277.199 413.843 277.598 413.401C277.997 412.959 278.196 412.422 278.196 411.789C278.196 411.139 277.992 410.597 277.585 410.164C277.186 409.731 276.671 409.514 276.038 409.514C275.397 409.514 274.877 409.735 274.478 410.177C274.079 410.61 273.88 411.148 273.88 411.789C273.88 412.43 274.084 412.972 274.491 413.414C274.898 413.847 275.414 414.064 276.038 414.064ZM281.352 415V408.578H286.136V409.644H282.535V415H281.352ZM287.751 415V408.578H288.934V413.414L292.665 408.578H293.848V415H292.665V410.125L288.934 415H287.751ZM301.742 415H300.559V412.673H298.648L297.088 415H295.723L297.426 412.517C296.941 412.404 296.568 412.179 296.308 411.841C296.048 411.503 295.918 411.083 295.918 410.58C295.918 409.939 296.135 409.445 296.568 409.098C297.01 408.751 297.556 408.578 298.206 408.578H301.742V415ZM298.349 411.607H300.559V409.644H298.349C297.561 409.644 297.166 409.956 297.166 410.58C297.166 410.927 297.275 411.187 297.491 411.36C297.708 411.525 297.994 411.607 298.349 411.607Z" fill="#133054"/>
<rect x="1" y="121" width="138" height="98" fill="white" stroke="#133054" stroke-width="2"/>
<path d="M28.6531 158V148.77H36.7131V158H35.4521V149.94H29.9141V158H28.6531ZM40.5331 156.96V160.912H39.3631V151.578H40.5331V152.683C40.7324 152.284 41.0531 151.977 41.4951 151.76C41.9371 151.535 42.3964 151.422 42.8731 151.422C43.8351 151.422 44.6021 151.743 45.1741 152.384C45.7461 153.025 46.0321 153.827 46.0321 154.789C46.0321 155.76 45.7418 156.566 45.1611 157.207C44.5804 157.84 43.8178 158.156 42.8731 158.156C42.4831 158.156 42.0888 158.078 41.6901 157.922C41.3001 157.766 40.9924 157.549 40.7671 157.272C40.6458 157.142 40.5678 157.038 40.5331 156.96ZM40.5071 154.789C40.5071 155.465 40.7064 156.002 41.1051 156.401C41.4951 156.843 42.0151 157.064 42.6651 157.064C43.3064 157.064 43.8264 156.847 44.2251 156.414C44.6238 155.972 44.8231 155.43 44.8231 154.789C44.8231 154.156 44.6281 153.615 44.2381 153.164C43.8048 152.731 43.2804 152.514 42.6651 152.514C42.0151 152.514 41.4908 152.731 41.0921 153.164C40.7021 153.597 40.5071 154.139 40.5071 154.789ZM48.0086 158V151.578H49.1916V156.414L52.9226 151.578H54.1056V158H52.9226V153.125L49.1916 158H48.0086ZM56.5266 158V151.578H57.6706V154.36L61.0506 151.578H62.7406L58.9446 154.659L62.9096 158H61.2326L57.6706 155.062V158H56.5266ZM64.7662 155.14L65.1172 151.578H69.9012V158H68.7182V152.644H66.0662L65.8192 155.218C65.7846 155.547 65.7499 155.825 65.7152 156.05C65.6806 156.275 65.6156 156.531 65.5202 156.817C65.4249 157.094 65.3079 157.32 65.1692 157.493C65.0306 157.658 64.8399 157.801 64.5972 157.922C64.3546 158.035 64.0729 158.091 63.7522 158.091H63.4012V157.025H63.5572C63.8952 157.025 64.1422 156.947 64.2982 156.791C64.4629 156.635 64.5799 156.388 64.6492 156.05C64.6926 155.79 64.7316 155.487 64.7662 155.14ZM77.2855 158V156.895C77.0775 157.302 76.7655 157.614 76.3495 157.831C75.9422 158.048 75.4959 158.156 75.0105 158.156C74.0659 158.156 73.3075 157.831 72.7355 157.181C72.1635 156.531 71.8775 155.734 71.8775 154.789C71.8775 153.836 72.1679 153.038 72.7485 152.397C73.3292 151.747 74.0832 151.422 75.0105 151.422C75.9032 151.422 76.5879 151.717 77.0645 152.306C77.1859 152.479 77.2595 152.592 77.2855 152.644V151.578H78.4685V158H77.2855ZM77.3115 154.789C77.3115 154.139 77.1209 153.597 76.7395 153.164C76.3582 152.731 75.8555 152.514 75.2315 152.514C74.5902 152.514 74.0745 152.735 73.6845 153.177C73.2945 153.61 73.0995 154.148 73.0995 154.789C73.0995 155.474 73.2945 156.011 73.6845 156.401C74.0745 156.843 74.5902 157.064 75.2315 157.064C75.8555 157.064 76.3582 156.843 76.7395 156.401C77.1209 155.959 77.3115 155.422 77.3115 154.789ZM85.2829 156.934V152.644H82.6569L82.4879 154.074C82.4099 154.724 82.3145 155.318 82.2019 155.855C82.1152 156.28 81.9809 156.639 81.7989 156.934H85.2829ZM80.9409 159.937H79.8879V156.934H80.6549C81.0189 156.449 81.2789 155.465 81.4349 153.983L81.7079 151.578H86.4659V156.934H87.6359V159.937H86.5829V158H80.9409V159.937ZM89.116 158V151.578H90.299V154.204H93.9V151.578H95.083V158H93.9V155.27H90.299V158H89.116ZM102.473 158V156.895C102.265 157.302 101.953 157.614 101.537 157.831C101.13 158.048 100.683 158.156 100.198 158.156C99.2534 158.156 98.495 157.831 97.923 157.181C97.351 156.531 97.065 155.734 97.065 154.789C97.065 153.836 97.3554 153.038 97.936 152.397C98.5167 151.747 99.2707 151.422 100.198 151.422C101.091 151.422 101.775 151.717 102.252 152.306C102.373 152.479 102.447 152.592 102.473 152.644V151.578H103.656V158H102.473ZM102.499 154.789C102.499 154.139 102.308 153.597 101.927 153.164C101.546 152.731 101.043 152.514 100.419 152.514C99.7777 152.514 99.262 152.735 98.872 153.177C98.482 153.61 98.287 154.148 98.287 154.789C98.287 155.474 98.482 156.011 98.872 156.401C99.262 156.843 99.7777 157.064 100.419 157.064C101.043 157.064 101.546 156.843 101.927 156.401C102.308 155.959 102.499 155.422 102.499 154.789ZM111.549 158H110.366V155.673H108.455L106.895 158H105.53L107.233 155.517C106.748 155.404 106.375 155.179 106.115 154.841C105.855 154.503 105.725 154.083 105.725 153.58C105.725 152.939 105.942 152.445 106.375 152.098C106.817 151.751 107.363 151.578 108.013 151.578H111.549V158ZM108.156 154.607H110.366V152.644H108.156C107.368 152.644 106.973 152.956 106.973 153.58C106.973 153.927 107.082 154.187 107.298 154.36C107.515 154.525 107.801 154.607 108.156 154.607ZM28.6419 175V168.578H30.2149L32.7759 173.635L35.3369 168.578H36.8579V175H35.7009V169.956L33.1269 175.039H32.3079L29.7599 170.008V175H28.6419ZM44.246 175V173.895C44.038 174.302 43.726 174.614 43.31 174.831C42.9027 175.048 42.4563 175.156 41.971 175.156C41.0263 175.156 40.268 174.831 39.696 174.181C39.124 173.531 38.838 172.734 38.838 171.789C38.838 170.836 39.1283 170.038 39.709 169.397C40.2897 168.747 41.0437 168.422 41.971 168.422C42.8637 168.422 43.5483 168.717 44.025 169.306C44.1463 169.479 44.22 169.592 44.246 169.644V168.578H45.429V175H44.246ZM44.272 171.789C44.272 171.139 44.0813 170.597 43.7 170.164C43.3187 169.731 42.816 169.514 42.192 169.514C41.5507 169.514 41.035 169.735 40.645 170.177C40.255 170.61 40.06 171.148 40.06 171.789C40.06 172.474 40.255 173.011 40.645 173.401C41.035 173.843 41.5507 174.064 42.192 174.064C42.816 174.064 43.3187 173.843 43.7 173.401C44.0813 172.959 44.272 172.422 44.272 171.789ZM49.6433 175V169.644H47.0433V168.578H53.4263V169.644H50.8263V175H49.6433ZM57.5636 168.422C58.5689 168.422 59.3662 168.76 59.9556 169.436C60.5449 170.103 60.8396 170.935 60.8396 171.932H55.4966C55.5139 172.357 55.6439 172.755 55.8866 173.128C56.1292 173.492 56.4412 173.748 56.8226 173.895C57.0739 174.008 57.3599 174.064 57.6806 174.064C58.0619 174.064 58.4389 173.99 58.8116 173.843C59.1842 173.687 59.4442 173.462 59.5916 173.167H60.7616C60.6922 173.557 60.4929 173.908 60.1636 174.22C59.8342 174.523 59.4659 174.757 59.0586 174.922C58.6859 175.078 58.2266 175.156 57.6806 175.156C56.7099 175.156 55.9039 174.835 55.2626 174.194C54.6212 173.553 54.3006 172.751 54.3006 171.789C54.3006 170.827 54.6082 170.025 55.2236 169.384C55.8389 168.743 56.6189 168.422 57.5636 168.422ZM57.5636 169.436C57.0609 169.436 56.6319 169.566 56.2766 169.826C55.9299 170.086 55.6959 170.459 55.5746 170.944H59.5266C59.3792 170.467 59.1366 170.099 58.7986 169.839C58.4606 169.57 58.0489 169.436 57.5636 169.436ZM62.7415 175V168.578H64.3145L66.8755 173.635L69.4365 168.578H70.9575V175H69.8005V169.956L67.2265 175.039H66.4075L63.8595 170.008V175H62.7415ZM78.3456 175V173.895C78.1376 174.302 77.8256 174.614 77.4096 174.831C77.0023 175.048 76.5559 175.156 76.0706 175.156C75.1259 175.156 74.3676 174.831 73.7956 174.181C73.2236 173.531 72.9376 172.734 72.9376 171.789C72.9376 170.836 73.2279 170.038 73.8086 169.397C74.3893 168.747 75.1433 168.422 76.0706 168.422C76.9633 168.422 77.6479 168.717 78.1246 169.306C78.2459 169.479 78.3196 169.592 78.3456 169.644V168.578H79.5286V175H78.3456ZM78.3716 171.789C78.3716 171.139 78.1809 170.597 77.7996 170.164C77.4183 169.731 76.9156 169.514 76.2916 169.514C75.6503 169.514 75.1346 169.735 74.7446 170.177C74.3546 170.61 74.1596 171.148 74.1596 171.789C74.1596 172.474 74.3546 173.011 74.7446 173.401C75.1346 173.843 75.6503 174.064 76.2916 174.064C76.9156 174.064 77.4183 173.843 77.7996 173.401C78.1809 172.959 78.3716 172.422 78.3716 171.789ZM83.7429 175V169.644H81.1429V168.578H87.5259V169.644H84.9259V175H83.7429ZM89.1351 175V168.578H90.3181V173.414L94.0491 168.578H95.2321V175H94.0491V170.125L90.3181 175H89.1351ZM97.653 175V168.578H98.797V171.36L102.177 168.578H103.867L100.071 171.659L104.036 175H102.359L98.797 172.062V175H97.653ZM110.173 175V173.895C109.965 174.302 109.653 174.614 109.237 174.831C108.829 175.048 108.383 175.156 107.898 175.156C106.953 175.156 106.195 174.831 105.623 174.181C105.051 173.531 104.765 172.734 104.765 171.789C104.765 170.836 105.055 170.038 105.636 169.397C106.216 168.747 106.97 168.422 107.898 168.422C108.79 168.422 109.475 168.717 109.952 169.306C110.073 169.479 110.147 169.592 110.173 169.644V168.578H111.356V175H110.173ZM110.199 171.789C110.199 171.139 110.008 170.597 109.627 170.164C109.245 169.731 108.743 169.514 108.119 169.514C107.477 169.514 106.962 169.735 106.572 170.177C106.182 170.61 105.987 171.148 105.987 171.789C105.987 172.474 106.182 173.011 106.572 173.401C106.962 173.843 107.477 174.064 108.119 174.064C108.743 174.064 109.245 173.843 109.627 173.401C110.008 172.959 110.199 172.422 110.199 171.789ZM39.7567 192V185.578H40.9397V190.414L44.6707 185.578H45.8537V192H44.6707V187.125L40.9397 192H39.7567ZM54.991 194.782V192.156C53.9337 192.13 53.0454 191.814 52.326 191.207C51.6154 190.6 51.26 189.794 51.26 188.789C51.26 187.766 51.624 186.952 52.352 186.345C53.08 185.73 53.9597 185.422 54.991 185.422V182.432H56.174V185.422C57.2314 185.448 58.1154 185.764 58.826 186.371C59.5454 186.969 59.905 187.775 59.905 188.789C59.905 189.812 59.541 190.631 58.813 191.246C58.085 191.853 57.2054 192.156 56.174 192.156V194.782H54.991ZM53.184 187.138C52.716 187.528 52.482 188.078 52.482 188.789C52.482 189.5 52.7204 190.059 53.197 190.466C53.6737 190.865 54.2717 191.064 54.991 191.064V186.514C54.2544 186.531 53.652 186.739 53.184 187.138ZM58.683 188.789C58.683 188.061 58.4447 187.502 57.968 187.112C57.5 186.713 56.902 186.514 56.174 186.514V191.064C56.9107 191.047 57.513 190.843 57.981 190.453C58.449 190.054 58.683 189.5 58.683 188.789ZM61.8719 192V185.578H63.0549V190.414L66.7859 185.578H67.9689V192H66.7859V187.125L63.0549 192H61.8719ZM73.0418 191.09C74.1598 191.09 74.7188 190.765 74.7188 190.115C74.7188 189.552 74.2682 189.27 73.3668 189.27H72.3008V188.23H73.3798C74.2032 188.23 74.6148 187.935 74.6148 187.346C74.6148 187.069 74.4718 186.852 74.1858 186.696C73.8738 186.549 73.4708 186.475 72.9768 186.475C72.0928 186.475 71.4905 186.778 71.1698 187.385H70.0128C70.0822 186.96 70.2858 186.592 70.6238 186.28C70.9618 185.959 71.3562 185.725 71.8068 185.578C72.1448 185.465 72.5435 185.409 73.0028 185.409C73.3408 185.409 73.6615 185.439 73.9648 185.5C74.2682 185.561 74.5628 185.66 74.8488 185.799C75.1348 185.929 75.3602 186.124 75.5248 186.384C75.6982 186.644 75.7848 186.952 75.7848 187.307C75.7848 187.645 75.6938 187.944 75.5118 188.204C75.3298 188.455 75.0785 188.624 74.7578 188.711C75.5552 188.936 75.9538 189.4 75.9538 190.102C75.9538 190.587 75.7935 190.995 75.4728 191.324C75.1608 191.645 74.7968 191.866 74.3808 191.987C73.9648 192.1 73.5185 192.156 73.0418 192.156C72.2878 192.156 71.5945 191.974 70.9618 191.61C70.3292 191.246 69.9608 190.722 69.8568 190.037H71.0658C71.1178 190.15 71.1958 190.267 71.2998 190.388C71.4645 190.622 71.7115 190.8 72.0408 190.921C72.3702 191.034 72.7038 191.09 73.0418 191.09ZM78.0203 192V185.578H79.2033V190.414L82.9343 185.578H84.1173V192H82.9343V187.125L79.2033 192H78.0203ZM86.5383 192V185.578H87.6823V188.36L91.0623 185.578H92.7523L88.9563 188.659L92.9213 192H91.2443L87.6823 189.062V192H86.5383ZM99.058 192V190.895C98.85 191.302 98.538 191.614 98.122 191.831C97.7147 192.048 97.2683 192.156 96.783 192.156C95.8383 192.156 95.08 191.831 94.508 191.181C93.936 190.531 93.65 189.734 93.65 188.789C93.65 187.836 93.9403 187.038 94.521 186.397C95.1017 185.747 95.8557 185.422 96.783 185.422C97.6757 185.422 98.3603 185.717 98.837 186.306C98.9583 186.479 99.032 186.592 99.058 186.644V185.578H100.241V192H99.058ZM99.084 188.789C99.084 188.139 98.8933 187.597 98.512 187.164C98.1307 186.731 97.628 186.514 97.004 186.514C96.3627 186.514 95.847 186.735 95.457 187.177C95.067 187.61 94.872 188.148 94.872 188.789C94.872 189.474 95.067 190.011 95.457 190.401C95.847 190.843 96.3627 191.064 97.004 191.064C97.628 191.064 98.1307 190.843 98.512 190.401C98.8933 189.959 99.084 189.422 99.084 188.789Z" fill="#133054"/>
<path d="M69.6464 340.354C69.8417 340.549 70.1583 340.549 70.3536 340.354L73.5355 337.172C73.7308 336.976 73.7308 336.66 73.5355 336.464C73.3403 336.269 73.0237 336.269 72.8284 336.464L70 339.293L67.1716 336.464C66.9763 336.269 66.6597 336.269 66.4645 336.464C66.2692 336.66 66.2692 336.976 66.4645 337.172L69.6464 340.354ZM69.5 228V340H70.5V228H69.5Z" fill="#133054"/>
<rect x="181" y="121" width="138" height="98" fill="white" stroke="#133054" stroke-width="2"/>
<path d="M199.691 169.54H202.98C203.951 169.54 204.735 169.774 205.333 170.242C205.94 170.701 206.243 171.39 206.243 172.309C206.243 173.254 205.944 173.938 205.346 174.363C204.757 174.788 203.968 175 202.98 175H198.43V165.77H205.528V166.953H199.691V169.54ZM203.019 170.71H199.691V173.83H203.019C204.302 173.83 204.943 173.314 204.943 172.283C204.943 171.737 204.765 171.338 204.41 171.087C204.055 170.836 203.591 170.71 203.019 170.71ZM208.378 175V168.578H209.561V173.414L213.292 168.578H214.475V175H213.292V170.125L209.561 175H208.378ZM219.821 168.422C220.783 168.422 221.585 168.747 222.226 169.397C222.876 170.038 223.201 170.836 223.201 171.789C223.201 172.742 222.872 173.544 222.213 174.194C221.563 174.835 220.766 175.156 219.821 175.156C218.859 175.156 218.053 174.831 217.403 174.181C216.762 173.531 216.441 172.734 216.441 171.789C216.441 170.827 216.766 170.025 217.416 169.384C218.066 168.743 218.868 168.422 219.821 168.422ZM219.821 174.064C220.463 174.064 220.983 173.843 221.381 173.401C221.78 172.959 221.979 172.422 221.979 171.789C221.979 171.139 221.776 170.597 221.368 170.164C220.97 169.731 220.454 169.514 219.821 169.514C219.18 169.514 218.66 169.735 218.261 170.177C217.863 170.61 217.663 171.148 217.663 171.789C217.663 172.43 217.867 172.972 218.274 173.414C218.682 173.847 219.197 174.064 219.821 174.064ZM226.676 175V169.644H224.076V168.578H230.459V169.644H227.859V175H226.676ZM234.596 168.422C235.601 168.422 236.398 168.76 236.988 169.436C237.577 170.103 237.872 170.935 237.872 171.932H232.529C232.546 172.357 232.676 172.755 232.919 173.128C233.161 173.492 233.473 173.748 233.855 173.895C234.106 174.008 234.392 174.064 234.713 174.064C235.094 174.064 235.471 173.99 235.844 173.843C236.216 173.687 236.476 173.462 236.624 173.167H237.794C237.724 173.557 237.525 173.908 237.196 174.22C236.866 174.523 236.498 174.757 236.091 174.922C235.718 175.078 235.259 175.156 234.713 175.156C233.742 175.156 232.936 174.835 232.295 174.194C231.653 173.553 231.333 172.751 231.333 171.789C231.333 170.827 231.64 170.025 232.256 169.384C232.871 168.743 233.651 168.422 234.596 168.422ZM234.596 169.436C234.093 169.436 233.664 169.566 233.309 169.826C232.962 170.086 232.728 170.459 232.607 170.944H236.559C236.411 170.467 236.169 170.099 235.831 169.839C235.493 169.57 235.081 169.436 234.596 169.436ZM244.559 175L242.401 172.595L240.23 175H238.8L241.686 171.802L238.787 168.578H240.321L242.427 170.957L244.572 168.578H246.015L243.142 171.763L246.015 175H244.559ZM247.531 175V168.578H248.714V171.204H252.315V168.578H253.498V175H252.315V172.27H248.714V175H247.531ZM258.847 168.422C259.809 168.422 260.61 168.747 261.252 169.397C261.902 170.038 262.227 170.836 262.227 171.789C262.227 172.742 261.897 173.544 261.239 174.194C260.589 174.835 259.791 175.156 258.847 175.156C257.885 175.156 257.079 174.831 256.429 174.181C255.787 173.531 255.467 172.734 255.467 171.789C255.467 170.827 255.792 170.025 256.442 169.384C257.092 168.743 257.893 168.422 258.847 168.422ZM258.847 174.064C259.488 174.064 260.008 173.843 260.407 173.401C260.805 172.959 261.005 172.422 261.005 171.789C261.005 171.139 260.801 170.597 260.394 170.164C259.995 169.731 259.479 169.514 258.847 169.514C258.205 169.514 257.685 169.735 257.287 170.177C256.888 170.61 256.689 171.148 256.689 171.789C256.689 172.43 256.892 172.972 257.3 173.414C257.707 173.847 258.223 174.064 258.847 174.064ZM264.529 172.14L264.88 168.578H269.664V175H268.481V169.644H265.829L265.582 172.218C265.548 172.547 265.513 172.825 265.478 173.05C265.444 173.275 265.379 173.531 265.283 173.817C265.188 174.094 265.071 174.32 264.932 174.493C264.794 174.658 264.603 174.801 264.36 174.922C264.118 175.035 263.836 175.091 263.515 175.091H263.164V174.025H263.32C263.658 174.025 263.905 173.947 264.061 173.791C264.226 173.635 264.343 173.388 264.412 173.05C264.456 172.79 264.495 172.487 264.529 172.14ZM275.008 168.422C275.97 168.422 276.771 168.747 277.413 169.397C278.063 170.038 278.388 170.836 278.388 171.789C278.388 172.742 278.058 173.544 277.4 174.194C276.75 174.835 275.952 175.156 275.008 175.156C274.046 175.156 273.24 174.831 272.59 174.181C271.948 173.531 271.628 172.734 271.628 171.789C271.628 170.827 271.953 170.025 272.603 169.384C273.253 168.743 274.054 168.422 275.008 168.422ZM275.008 174.064C275.649 174.064 276.169 173.843 276.568 173.401C276.966 172.959 277.166 172.422 277.166 171.789C277.166 171.139 276.962 170.597 276.555 170.164C276.156 169.731 275.64 169.514 275.008 169.514C274.366 169.514 273.846 169.735 273.448 170.177C273.049 170.61 272.85 171.148 272.85 171.789C272.85 172.43 273.053 172.972 273.461 173.414C273.868 173.847 274.384 174.064 275.008 174.064ZM280.322 175V168.578H285.106V169.644H281.505V175H280.322ZM286.721 175V168.578H287.904V173.414L291.635 168.578H292.818V175H291.635V170.125L287.904 175H286.721ZM300.712 175H299.529V172.673H297.618L296.058 175H294.693L296.396 172.517C295.911 172.404 295.538 172.179 295.278 171.841C295.018 171.503 294.888 171.083 294.888 170.58C294.888 169.939 295.105 169.445 295.538 169.098C295.98 168.751 296.526 168.578 297.176 168.578H300.712V175ZM297.319 171.607H299.529V169.644H297.319C296.53 169.644 296.136 169.956 296.136 170.58C296.136 170.927 296.244 171.187 296.461 171.36C296.678 171.525 296.964 171.607 297.319 171.607Z" fill="#133054"/>
<path d="M249.646 340.354C249.842 340.549 250.158 340.549 250.354 340.354L253.536 337.172C253.731 336.976 253.731 336.66 253.536 336.464C253.34 336.269 253.024 336.269 252.828 336.464L250 339.293L247.172 336.464C246.976 336.269 246.66 336.269 246.464 336.464C246.269 336.66 246.269 336.976 246.464 337.172L249.646 340.354ZM249.5 228V340H250.5V228H249.5Z" fill="#133054"/>
<path d="M115.38 4.77L118.591 12.258L121.802 4.77H123.687V14H122.491V5.862L118.968 14.052H118.097L114.6 5.914V14H113.43V4.77H115.38ZM131.276 14V12.895C131.068 13.3023 130.756 13.6143 130.34 13.831C129.933 14.0477 129.487 14.156 129.001 14.156C128.057 14.156 127.298 13.831 126.726 13.181C126.154 12.531 125.868 11.7337 125.868 10.789C125.868 9.83567 126.159 9.03833 126.739 8.397C127.32 7.747 128.074 7.422 129.001 7.422C129.894 7.422 130.579 7.71667 131.055 8.306C131.177 8.47933 131.25 8.592 131.276 8.644V7.578H132.459V14H131.276ZM131.302 10.789C131.302 10.139 131.112 9.59733 130.73 9.164C130.349 8.73067 129.846 8.514 129.222 8.514C128.581 8.514 128.065 8.735 127.675 9.177C127.285 9.61033 127.09 10.1477 127.09 10.789C127.09 11.4737 127.285 12.011 127.675 12.401C128.065 12.843 128.581 13.064 129.222 13.064C129.846 13.064 130.349 12.843 130.73 12.401C131.112 11.959 131.302 11.4217 131.302 10.789ZM136.674 14V8.644H134.074V7.578H140.457V8.644H137.857V14H136.674ZM144.594 7.422C145.599 7.422 146.397 7.76 146.986 8.436C147.575 9.10333 147.87 9.93533 147.87 10.932H142.527C142.544 11.3567 142.674 11.7553 142.917 12.128C143.16 12.492 143.472 12.7477 143.853 12.895C144.104 13.0077 144.39 13.064 144.711 13.064C145.092 13.064 145.469 12.9903 145.842 12.843C146.215 12.687 146.475 12.4617 146.622 12.167H147.792C147.723 12.557 147.523 12.908 147.194 13.22C146.865 13.5233 146.496 13.7573 146.089 13.922C145.716 14.078 145.257 14.156 144.711 14.156C143.74 14.156 142.934 13.8353 142.293 13.194C141.652 12.5527 141.331 11.751 141.331 10.789C141.331 9.827 141.639 9.02533 142.254 8.384C142.869 7.74267 143.649 7.422 144.594 7.422ZM144.594 8.436C144.091 8.436 143.662 8.566 143.307 8.826C142.96 9.086 142.726 9.45867 142.605 9.944H146.557C146.41 9.46733 146.167 9.099 145.829 8.839C145.491 8.57033 145.079 8.436 144.594 8.436ZM149.772 14V7.578H151.345L153.906 12.635L156.467 7.578H157.988V14H156.831V8.956L154.257 14.039H153.438L150.89 9.008V14H149.772ZM165.376 14V12.895C165.168 13.3023 164.856 13.6143 164.44 13.831C164.033 14.0477 163.586 14.156 163.101 14.156C162.156 14.156 161.398 13.831 160.826 13.181C160.254 12.531 159.968 11.7337 159.968 10.789C159.968 9.83567 160.258 9.03833 160.839 8.397C161.42 7.747 162.174 7.422 163.101 7.422C163.994 7.422 164.678 7.71667 165.155 8.306C165.276 8.47933 165.35 8.592 165.376 8.644V7.578H166.559V14H165.376ZM165.402 10.789C165.402 10.139 165.211 9.59733 164.83 9.164C164.449 8.73067 163.946 8.514 163.322 8.514C162.681 8.514 162.165 8.735 161.775 9.177C161.385 9.61033 161.19 10.1477 161.19 10.789C161.19 11.4737 161.385 12.011 161.775 12.401C162.165 12.843 162.681 13.064 163.322 13.064C163.946 13.064 164.449 12.843 164.83 12.401C165.211 11.959 165.402 11.4217 165.402 10.789ZM170.773 14V8.644H168.173V7.578H174.556V8.644H171.956V14H170.773ZM176.165 14V7.578H177.348V12.414L181.079 7.578H182.262V14H181.079V9.125L177.348 14H176.165ZM184.683 14V7.578H185.827V10.36L189.207 7.578H190.897L187.101 10.659L191.066 14H189.389L185.827 11.062V14H184.683ZM197.203 14V12.895C196.995 13.3023 196.683 13.6143 196.267 13.831C195.86 14.0477 195.413 14.156 194.928 14.156C193.983 14.156 193.225 13.831 192.653 13.181C192.081 12.531 191.795 11.7337 191.795 10.789C191.795 9.83567 192.085 9.03833 192.666 8.397C193.247 7.747 194.001 7.422 194.928 7.422C195.821 7.422 196.505 7.71667 196.982 8.306C197.103 8.47933 197.177 8.592 197.203 8.644V7.578H198.386V14H197.203ZM197.229 10.789C197.229 10.139 197.038 9.59733 196.657 9.164C196.276 8.73067 195.773 8.514 195.149 8.514C194.508 8.514 193.992 8.735 193.602 9.177C193.212 9.61033 193.017 10.1477 193.017 10.789C193.017 11.4737 193.212 12.011 193.602 12.401C193.992 12.843 194.508 13.064 195.149 13.064C195.773 13.064 196.276 12.843 196.657 12.401C197.038 11.959 197.229 11.4217 197.229 10.789ZM113.43 31V21.77H118.227C119.18 21.77 119.934 21.9867 120.489 22.42C121.052 22.8447 121.334 23.5163 121.334 24.435C121.334 25.3363 121.048 26.0167 120.476 26.476C119.904 26.9267 119.154 27.152 118.227 27.152H114.691V31H113.43ZM118.266 22.94H114.691V25.982H118.266C118.795 25.982 119.219 25.8563 119.54 25.605C119.869 25.3537 120.034 24.9723 120.034 24.461C120.034 23.447 119.445 22.94 118.266 22.94ZM129.372 24.578L125.16 33.912H123.951L125.329 30.857L122.417 24.578H123.756L125.953 29.466L128.15 24.578H129.372ZM136.667 26.58H135.471C135.116 25.8693 134.492 25.514 133.599 25.514C132.993 25.514 132.503 25.7393 132.13 26.19C131.758 26.6407 131.571 27.1737 131.571 27.789C131.571 28.4043 131.762 28.9373 132.143 29.388C132.525 29.8387 133.014 30.064 133.612 30.064C134.505 30.064 135.133 29.7087 135.497 28.998H136.667C136.624 29.3793 136.394 29.7953 135.978 30.246C135.398 30.8527 134.609 31.156 133.612 31.156C132.685 31.156 131.909 30.8267 131.285 30.168C130.661 29.5093 130.349 28.7163 130.349 27.789C130.349 26.853 130.661 26.06 131.285 25.41C131.909 24.7513 132.681 24.422 133.599 24.422C134.336 24.422 134.995 24.6127 135.575 24.994C136.156 25.3667 136.52 25.8953 136.667 26.58ZM144.386 26.58H143.19C142.835 25.8693 142.211 25.514 141.318 25.514C140.711 25.514 140.222 25.7393 139.849 26.19C139.476 26.6407 139.29 27.1737 139.29 27.789C139.29 28.4043 139.481 28.9373 139.862 29.388C140.243 29.8387 140.733 30.064 141.331 30.064C142.224 30.064 142.852 29.7087 143.216 28.998H144.386C144.343 29.3793 144.113 29.7953 143.697 30.246C143.116 30.8527 142.328 31.156 141.331 31.156C140.404 31.156 139.628 30.8267 139.004 30.168C138.38 29.5093 138.068 28.7163 138.068 27.789C138.068 26.853 138.38 26.06 139.004 25.41C139.628 24.7513 140.399 24.422 141.318 24.422C142.055 24.422 142.713 24.6127 143.294 24.994C143.875 25.3667 144.239 25.8953 144.386 26.58ZM146.242 31V24.578H147.386V27.36L150.766 24.578H152.456L148.66 27.659L152.625 31H150.948L147.386 28.062V31H146.242ZM153.949 31V24.578H155.132V29.414L158.863 24.578H160.046V31H158.863V26.125L155.132 31H153.949ZM162.493 31V24.578H163.676V29.414L167.407 24.578H168.59V31H167.407V26.125L163.676 31H162.493ZM165.561 22.615C165.829 22.615 166.033 22.5283 166.172 22.355C166.31 22.1817 166.38 21.9563 166.38 21.679V21.458H167.368V21.705C167.368 22.277 167.207 22.7277 166.887 23.057C166.566 23.3863 166.124 23.551 165.561 23.551C164.997 23.551 164.555 23.3863 164.235 23.057C163.914 22.719 163.754 22.2683 163.754 21.705V21.458H164.742V21.679C164.742 21.9477 164.811 22.173 164.95 22.355C165.097 22.5283 165.301 22.615 165.561 22.615ZM179.924 31H178.741V28.673H176.83L175.27 31H173.905L175.608 28.517C175.123 28.4043 174.75 28.179 174.49 27.841C174.23 27.503 174.1 27.0827 174.1 26.58C174.1 25.9387 174.317 25.4447 174.75 25.098C175.192 24.7513 175.738 24.578 176.388 24.578H179.924V31ZM176.531 27.607H178.741V25.644H176.531C175.742 25.644 175.348 25.956 175.348 26.58C175.348 26.9267 175.456 27.1867 175.673 27.36C175.89 27.5247 176.176 27.607 176.531 27.607ZM184.999 30.09C186.117 30.09 186.676 29.765 186.676 29.115C186.676 28.5517 186.226 28.27 185.324 28.27H184.258V27.23H185.337C186.161 27.23 186.572 26.9353 186.572 26.346C186.572 26.0687 186.429 25.852 186.143 25.696C185.831 25.5487 185.428 25.475 184.934 25.475C184.05 25.475 183.448 25.7783 183.127 26.385H181.97C182.04 25.9603 182.243 25.592 182.581 25.28C182.919 24.9593 183.314 24.7253 183.764 24.578C184.102 24.4653 184.501 24.409 184.96 24.409C185.298 24.409 185.619 24.4393 185.922 24.5C186.226 24.5607 186.52 24.6603 186.806 24.799C187.092 24.929 187.318 25.124 187.482 25.384C187.656 25.644 187.742 25.9517 187.742 26.307C187.742 26.645 187.651 26.944 187.469 27.204C187.287 27.4553 187.036 27.6243 186.715 27.711C187.513 27.9363 187.911 28.4 187.911 29.102C187.911 29.5873 187.751 29.9947 187.43 30.324C187.118 30.6447 186.754 30.8657 186.338 30.987C185.922 31.0997 185.476 31.156 184.999 31.156C184.245 31.156 183.552 30.974 182.919 30.61C182.287 30.246 181.918 29.7217 181.814 29.037H183.023C183.075 29.1497 183.153 29.2667 183.257 29.388C183.422 29.622 183.669 29.7997 183.998 29.921C184.328 30.0337 184.661 30.09 184.999 30.09ZM191.161 26.645H193.111C194.376 26.645 195.182 27.0783 195.529 27.945C195.624 28.231 195.672 28.517 195.672 28.803C195.672 29.5137 195.425 30.0597 194.931 30.441C194.446 30.8137 193.843 31 193.124 31H189.978V24.578H191.161V26.645ZM192.981 27.711H191.161V29.934H192.981C193.943 29.934 194.424 29.557 194.424 28.803C194.424 28.075 193.943 27.711 192.981 27.711ZM196.751 31V24.578H197.934V31H196.751ZM200.349 31V24.578H201.493V27.36L204.873 24.578H206.563L202.767 27.659L206.732 31H205.055L201.493 28.062V31H200.349ZM120.541 48L117.239 44.204L113.95 48H112.442L116.472 43.32L112.52 38.77H114.184L117.291 42.384L120.411 38.77H121.958L118.058 43.268L122.127 48H120.541ZM123.797 48V41.578H124.98V46.414L128.711 41.578H129.894V48H128.711V43.125L124.98 48H123.797ZM132.341 48V41.578H133.914L136.475 46.635L139.036 41.578H140.557V48H139.4V42.956L136.826 48.039H136.007L133.459 43.008V48H132.341ZM143.005 48V41.578H144.188V46.414L147.919 41.578H149.102V48H147.919V43.125L144.188 48H143.005ZM156.996 48H155.813V45.673H153.902L152.342 48H150.977L152.68 45.517C152.195 45.4043 151.822 45.179 151.562 44.841C151.302 44.503 151.172 44.0827 151.172 43.58C151.172 42.9387 151.389 42.4447 151.822 42.098C152.264 41.7513 152.81 41.578 153.46 41.578H156.996V48ZM153.603 44.607H155.813V42.644H153.603C152.814 42.644 152.42 42.956 152.42 43.58C152.42 43.9267 152.528 44.1867 152.745 44.36C152.962 44.5247 153.248 44.607 153.603 44.607Z" fill="#133054"/>
<path d="M228.38 4.77L231.591 12.258L234.802 4.77H236.687V14H235.491V5.862L231.968 14.052H231.097L227.6 5.914V14H226.43V4.77H228.38ZM244.276 14V12.895C244.068 13.3023 243.756 13.6143 243.34 13.831C242.933 14.0477 242.487 14.156 242.001 14.156C241.057 14.156 240.298 13.831 239.726 13.181C239.154 12.531 238.868 11.7337 238.868 10.789C238.868 9.83567 239.159 9.03833 239.739 8.397C240.32 7.747 241.074 7.422 242.001 7.422C242.894 7.422 243.579 7.71667 244.055 8.306C244.177 8.47933 244.25 8.592 244.276 8.644V7.578H245.459V14H244.276ZM244.302 10.789C244.302 10.139 244.112 9.59733 243.73 9.164C243.349 8.73067 242.846 8.514 242.222 8.514C241.581 8.514 241.065 8.735 240.675 9.177C240.285 9.61033 240.09 10.1477 240.09 10.789C240.09 11.4737 240.285 12.011 240.675 12.401C241.065 12.843 241.581 13.064 242.222 13.064C242.846 13.064 243.349 12.843 243.73 12.401C244.112 11.959 244.302 11.4217 244.302 10.789ZM249.674 14V8.644H247.074V7.578H253.457V8.644H250.857V14H249.674ZM257.594 7.422C258.599 7.422 259.397 7.76 259.986 8.436C260.575 9.10333 260.87 9.93533 260.87 10.932H255.527C255.544 11.3567 255.674 11.7553 255.917 12.128C256.16 12.492 256.472 12.7477 256.853 12.895C257.104 13.0077 257.39 13.064 257.711 13.064C258.092 13.064 258.469 12.9903 258.842 12.843C259.215 12.687 259.475 12.4617 259.622 12.167H260.792C260.723 12.557 260.523 12.908 260.194 13.22C259.865 13.5233 259.496 13.7573 259.089 13.922C258.716 14.078 258.257 14.156 257.711 14.156C256.74 14.156 255.934 13.8353 255.293 13.194C254.652 12.5527 254.331 11.751 254.331 10.789C254.331 9.827 254.639 9.02533 255.254 8.384C255.869 7.74267 256.649 7.422 257.594 7.422ZM257.594 8.436C257.091 8.436 256.662 8.566 256.307 8.826C255.96 9.086 255.726 9.45867 255.605 9.944H259.557C259.41 9.46733 259.167 9.099 258.829 8.839C258.491 8.57033 258.079 8.436 257.594 8.436ZM262.772 14V7.578H264.345L266.906 12.635L269.467 7.578H270.988V14H269.831V8.956L267.257 14.039H266.438L263.89 9.008V14H262.772ZM278.376 14V12.895C278.168 13.3023 277.856 13.6143 277.44 13.831C277.033 14.0477 276.586 14.156 276.101 14.156C275.156 14.156 274.398 13.831 273.826 13.181C273.254 12.531 272.968 11.7337 272.968 10.789C272.968 9.83567 273.258 9.03833 273.839 8.397C274.42 7.747 275.174 7.422 276.101 7.422C276.994 7.422 277.678 7.71667 278.155 8.306C278.276 8.47933 278.35 8.592 278.376 8.644V7.578H279.559V14H278.376ZM278.402 10.789C278.402 10.139 278.211 9.59733 277.83 9.164C277.449 8.73067 276.946 8.514 276.322 8.514C275.681 8.514 275.165 8.735 274.775 9.177C274.385 9.61033 274.19 10.1477 274.19 10.789C274.19 11.4737 274.385 12.011 274.775 12.401C275.165 12.843 275.681 13.064 276.322 13.064C276.946 13.064 277.449 12.843 277.83 12.401C278.211 11.959 278.402 11.4217 278.402 10.789ZM283.773 14V8.644H281.173V7.578H287.556V8.644H284.956V14H283.773ZM289.165 14V7.578H290.348V12.414L294.079 7.578H295.262V14H294.079V9.125L290.348 14H289.165ZM297.683 14V7.578H298.827V10.36L302.207 7.578H303.897L300.101 10.659L304.066 14H302.389L298.827 11.062V14H297.683ZM310.203 14V12.895C309.995 13.3023 309.683 13.6143 309.267 13.831C308.86 14.0477 308.413 14.156 307.928 14.156C306.983 14.156 306.225 13.831 305.653 13.181C305.081 12.531 304.795 11.7337 304.795 10.789C304.795 9.83567 305.085 9.03833 305.666 8.397C306.247 7.747 307.001 7.422 307.928 7.422C308.821 7.422 309.505 7.71667 309.982 8.306C310.103 8.47933 310.177 8.592 310.203 8.644V7.578H311.386V14H310.203ZM310.229 10.789C310.229 10.139 310.038 9.59733 309.657 9.164C309.276 8.73067 308.773 8.514 308.149 8.514C307.508 8.514 306.992 8.735 306.602 9.177C306.212 9.61033 306.017 10.1477 306.017 10.789C306.017 11.4737 306.212 12.011 306.602 12.401C306.992 12.843 307.508 13.064 308.149 13.064C308.773 13.064 309.276 12.843 309.657 12.401C310.038 11.959 310.229 11.4217 310.229 10.789ZM226.43 31V21.77H231.227C232.18 21.77 232.934 21.9867 233.489 22.42C234.052 22.8447 234.334 23.5163 234.334 24.435C234.334 25.3363 234.048 26.0167 233.476 26.476C232.904 26.9267 232.154 27.152 231.227 27.152H227.691V31H226.43ZM231.266 22.94H227.691V25.982H231.266C231.795 25.982 232.219 25.8563 232.54 25.605C232.869 25.3537 233.034 24.9723 233.034 24.461C233.034 23.447 232.445 22.94 231.266 22.94ZM242.372 24.578L238.16 33.912H236.951L238.329 30.857L235.417 24.578H236.756L238.953 29.466L241.15 24.578H242.372ZM249.667 26.58H248.471C248.116 25.8693 247.492 25.514 246.599 25.514C245.993 25.514 245.503 25.7393 245.13 26.19C244.758 26.6407 244.571 27.1737 244.571 27.789C244.571 28.4043 244.762 28.9373 245.143 29.388C245.525 29.8387 246.014 30.064 246.612 30.064C247.505 30.064 248.133 29.7087 248.497 28.998H249.667C249.624 29.3793 249.394 29.7953 248.978 30.246C248.398 30.8527 247.609 31.156 246.612 31.156C245.685 31.156 244.909 30.8267 244.285 30.168C243.661 29.5093 243.349 28.7163 243.349 27.789C243.349 26.853 243.661 26.06 244.285 25.41C244.909 24.7513 245.681 24.422 246.599 24.422C247.336 24.422 247.995 24.6127 248.575 24.994C249.156 25.3667 249.52 25.8953 249.667 26.58ZM257.386 26.58H256.19C255.835 25.8693 255.211 25.514 254.318 25.514C253.711 25.514 253.222 25.7393 252.849 26.19C252.476 26.6407 252.29 27.1737 252.29 27.789C252.29 28.4043 252.481 28.9373 252.862 29.388C253.243 29.8387 253.733 30.064 254.331 30.064C255.224 30.064 255.852 29.7087 256.216 28.998H257.386C257.343 29.3793 257.113 29.7953 256.697 30.246C256.116 30.8527 255.328 31.156 254.331 31.156C253.404 31.156 252.628 30.8267 252.004 30.168C251.38 29.5093 251.068 28.7163 251.068 27.789C251.068 26.853 251.38 26.06 252.004 25.41C252.628 24.7513 253.399 24.422 254.318 24.422C255.055 24.422 255.713 24.6127 256.294 24.994C256.875 25.3667 257.239 25.8953 257.386 26.58ZM259.242 31V24.578H260.386V27.36L263.766 24.578H265.456L261.66 27.659L265.625 31H263.948L260.386 28.062V31H259.242ZM266.949 31V24.578H268.132V29.414L271.863 24.578H273.046V31H271.863V26.125L268.132 31H266.949ZM275.493 31V24.578H276.676V29.414L280.407 24.578H281.59V31H280.407V26.125L276.676 31H275.493ZM278.561 22.615C278.829 22.615 279.033 22.5283 279.172 22.355C279.31 22.1817 279.38 21.9563 279.38 21.679V21.458H280.368V21.705C280.368 22.277 280.207 22.7277 279.887 23.057C279.566 23.3863 279.124 23.551 278.561 23.551C277.997 23.551 277.555 23.3863 277.235 23.057C276.914 22.719 276.754 22.2683 276.754 21.705V21.458H277.742V21.679C277.742 21.9477 277.811 22.173 277.95 22.355C278.097 22.5283 278.301 22.615 278.561 22.615ZM292.924 31H291.741V28.673H289.83L288.27 31H286.905L288.608 28.517C288.123 28.4043 287.75 28.179 287.49 27.841C287.23 27.503 287.1 27.0827 287.1 26.58C287.1 25.9387 287.317 25.4447 287.75 25.098C288.192 24.7513 288.738 24.578 289.388 24.578H292.924V31ZM289.531 27.607H291.741V25.644H289.531C288.742 25.644 288.348 25.956 288.348 26.58C288.348 26.9267 288.456 27.1867 288.673 27.36C288.89 27.5247 289.176 27.607 289.531 27.607ZM297.999 30.09C299.117 30.09 299.676 29.765 299.676 29.115C299.676 28.5517 299.226 28.27 298.324 28.27H297.258V27.23H298.337C299.161 27.23 299.572 26.9353 299.572 26.346C299.572 26.0687 299.429 25.852 299.143 25.696C298.831 25.5487 298.428 25.475 297.934 25.475C297.05 25.475 296.448 25.7783 296.127 26.385H294.97C295.04 25.9603 295.243 25.592 295.581 25.28C295.919 24.9593 296.314 24.7253 296.764 24.578C297.102 24.4653 297.501 24.409 297.96 24.409C298.298 24.409 298.619 24.4393 298.922 24.5C299.226 24.5607 299.52 24.6603 299.806 24.799C300.092 24.929 300.318 25.124 300.482 25.384C300.656 25.644 300.742 25.9517 300.742 26.307C300.742 26.645 300.651 26.944 300.469 27.204C300.287 27.4553 300.036 27.6243 299.715 27.711C300.513 27.9363 300.911 28.4 300.911 29.102C300.911 29.5873 300.751 29.9947 300.43 30.324C300.118 30.6447 299.754 30.8657 299.338 30.987C298.922 31.0997 298.476 31.156 297.999 31.156C297.245 31.156 296.552 30.974 295.919 30.61C295.287 30.246 294.918 29.7217 294.814 29.037H296.023C296.075 29.1497 296.153 29.2667 296.257 29.388C296.422 29.622 296.669 29.7997 296.998 29.921C297.328 30.0337 297.661 30.09 297.999 30.09ZM304.161 26.645H306.111C307.376 26.645 308.182 27.0783 308.529 27.945C308.624 28.231 308.672 28.517 308.672 28.803C308.672 29.5137 308.425 30.0597 307.931 30.441C307.446 30.8137 306.843 31 306.124 31H302.978V24.578H304.161V26.645ZM305.981 27.711H304.161V29.934H305.981C306.943 29.934 307.424 29.557 307.424 28.803C307.424 28.075 306.943 27.711 305.981 27.711ZM309.751 31V24.578H310.934V31H309.751ZM313.349 31V24.578H314.493V27.36L317.873 24.578H319.563L315.767 27.659L319.732 31H318.055L314.493 28.062V31H313.349ZM227.691 42.54H230.98C231.951 42.54 232.735 42.774 233.333 43.242C233.94 43.7013 234.243 44.3903 234.243 45.309C234.243 46.2537 233.944 46.9383 233.346 47.363C232.757 47.7877 231.968 48 230.98 48H226.43V38.77H233.528V39.953H227.691V42.54ZM231.019 43.71H227.691V46.83H231.019C232.302 46.83 232.943 46.3143 232.943 45.283C232.943 44.737 232.765 44.3383 232.41 44.087C232.055 43.8357 231.591 43.71 231.019 43.71ZM236.378 48V41.578H237.561V46.414L241.292 41.578H242.475V48H241.292V43.125L237.561 48H236.378ZM247.821 41.422C248.783 41.422 249.585 41.747 250.226 42.397C250.876 43.0383 251.201 43.8357 251.201 44.789C251.201 45.7423 250.872 46.544 250.213 47.194C249.563 47.8353 248.766 48.156 247.821 48.156C246.859 48.156 246.053 47.831 245.403 47.181C244.762 46.531 244.441 45.7337 244.441 44.789C244.441 43.827 244.766 43.0253 245.416 42.384C246.066 41.7427 246.868 41.422 247.821 41.422ZM247.821 47.064C248.463 47.064 248.983 46.843 249.381 46.401C249.78 45.959 249.979 45.4217 249.979 44.789C249.979 44.139 249.776 43.5973 249.368 43.164C248.97 42.7307 248.454 42.514 247.821 42.514C247.18 42.514 246.66 42.735 246.261 43.177C245.863 43.6103 245.663 44.1477 245.663 44.789C245.663 45.4303 245.867 45.972 246.274 46.414C246.682 46.8473 247.197 47.064 247.821 47.064ZM253.504 45.14L253.855 41.578H258.639V48H257.456V42.644H254.804L254.557 45.218C254.522 45.5473 254.488 45.8247 254.453 46.05C254.418 46.2753 254.353 46.531 254.258 46.817C254.163 47.0943 254.046 47.3197 253.907 47.493C253.768 47.6577 253.578 47.8007 253.335 47.922C253.092 48.0347 252.811 48.091 252.49 48.091H252.139V47.025H252.295C252.633 47.025 252.88 46.947 253.036 46.791C253.201 46.635 253.318 46.388 253.387 46.05C253.43 45.79 253.469 45.4867 253.504 45.14ZM263.982 41.422C264.944 41.422 265.746 41.747 266.387 42.397C267.037 43.0383 267.362 43.8357 267.362 44.789C267.362 45.7423 267.033 46.544 266.374 47.194C265.724 47.8353 264.927 48.156 263.982 48.156C263.02 48.156 262.214 47.831 261.564 47.181C260.923 46.531 260.602 45.7337 260.602 44.789C260.602 43.827 260.927 43.0253 261.577 42.384C262.227 41.7427 263.029 41.422 263.982 41.422ZM263.982 47.064C264.624 47.064 265.144 46.843 265.542 46.401C265.941 45.959 266.14 45.4217 266.14 44.789C266.14 44.139 265.937 43.5973 265.529 43.164C265.131 42.7307 264.615 42.514 263.982 42.514C263.341 42.514 262.821 42.735 262.422 43.177C262.024 43.6103 261.824 44.1477 261.824 44.789C261.824 45.4303 262.028 45.972 262.435 46.414C262.843 46.8473 263.358 47.064 263.982 47.064ZM269.297 48V41.578H274.081V42.644H270.48V48H269.297ZM275.696 48V41.578H276.879V46.414L280.61 41.578H281.793V48H280.61V43.125L276.879 48H275.696ZM289.687 48H288.504V45.673H286.593L285.033 48H283.668L285.371 45.517C284.885 45.4043 284.513 45.179 284.253 44.841C283.993 44.503 283.863 44.0827 283.863 43.58C283.863 42.9387 284.079 42.4447 284.513 42.098C284.955 41.7513 285.501 41.578 286.151 41.578H289.687V48ZM286.294 44.607H288.504V42.644H286.294C285.505 42.644 285.111 42.956 285.111 43.58C285.111 43.9267 285.219 44.1867 285.436 44.36C285.652 44.5247 285.938 44.607 286.294 44.607Z" fill="#133054"/>
<path d="M219.911 340.492C220.183 340.541 220.443 340.361 220.492 340.089L221.293 335.661C221.342 335.389 221.162 335.129 220.89 335.08C220.618 335.031 220.358 335.211 220.309 335.483L219.597 339.419L215.661 338.707C215.389 338.658 215.129 338.838 215.08 339.11C215.031 339.382 215.211 339.642 215.483 339.691L219.911 340.492ZM142.589 229.285L219.589 340.285L220.411 339.715L143.411 228.715L142.589 229.285Z" fill="#133054"/>
<path d="M146.911 581.492C147.183 581.541 147.443 581.361 147.492 581.089L148.293 576.661C148.342 576.389 148.162 576.129 147.89 576.08C147.618 576.031 147.358 576.211 147.309 576.483L146.597 580.419L142.661 579.707C142.389 579.658 142.129 579.838 142.08 580.11C142.031 580.382 142.211 580.642 142.483 580.691L146.911 581.492ZM69.5892 470.285L146.589 581.285L147.411 580.715L70.4108 469.715L69.5892 470.285Z" fill="#133054"/>
<path d="M99.508 340.089C99.5571 340.361 99.8173 340.541 100.089 340.492L104.517 339.691C104.789 339.642 104.969 339.382 104.92 339.11C104.871 338.838 104.611 338.658 104.339 338.707L100.403 339.419L99.6912 335.483C99.642 335.211 99.3819 335.031 99.1102 335.08C98.8384 335.129 98.658 335.389 98.7071 335.661L99.508 340.089ZM176.589 228.715L99.5892 339.715L100.411 340.285L177.411 229.285L176.589 228.715Z" fill="#133054"/>
<path d="M172.508 580.089C172.557 580.361 172.817 580.541 173.089 580.492L177.517 579.691C177.789 579.642 177.969 579.382 177.92 579.11C177.871 578.838 177.611 578.658 177.339 578.707L173.403 579.419L172.691 575.483C172.642 575.211 172.382 575.031 172.11 575.08C171.838 575.129 171.658 575.389 171.707 575.661L172.508 580.089ZM249.589 468.715L172.589 579.715L173.411 580.285L250.411 469.285L249.589 468.715Z" fill="#133054"/>
<path d="M249.646 110.354C249.842 110.549 250.158 110.549 250.354 110.354L253.536 107.172C253.731 106.976 253.731 106.66 253.536 106.464C253.34 106.269 253.024 106.269 252.828 106.464L250 109.293L247.172 106.464C246.976 106.269 246.66 106.269 246.464 106.464C246.269 106.66 246.269 106.976 246.464 107.172L249.646 110.354ZM249.5 60V110H250.5V60H249.5Z" fill="#133054"/>
<path d="M122.551 110.221C122.673 110.469 122.973 110.571 123.221 110.449L127.258 108.46C127.506 108.338 127.607 108.038 127.485 107.791C127.363 107.543 127.064 107.441 126.816 107.563L123.228 109.331L121.46 105.742C121.338 105.494 121.038 105.393 120.791 105.515C120.543 105.637 120.441 105.936 120.563 106.184L122.551 110.221ZM139.527 59.839L122.527 109.839L123.473 110.161L140.473 60.161L139.527 59.839Z" fill="#133054"/>
<path d="M196.779 110.449C197.027 110.571 197.327 110.469 197.449 110.221L199.437 106.184C199.559 105.936 199.457 105.637 199.209 105.515C198.962 105.393 198.662 105.494 198.54 105.742L196.772 109.331L193.184 107.563C192.936 107.441 192.637 107.543 192.515 107.791C192.393 108.038 192.494 108.338 192.742 108.46L196.779 110.449ZM179.527 60.161L196.527 110.161L197.473 109.839L180.473 59.839L179.527 60.161Z" fill="#133054"/>
<path d="M69.6464 110.354C69.8417 110.549 70.1583 110.549 70.3536 110.354L73.5355 107.172C73.7308 106.976 73.7308 106.66 73.5355 106.464C73.3403 106.269 73.0237 106.269 72.8284 106.464L70 109.293L67.1716 106.464C66.9763 106.269 66.6597 106.269 66.4645 106.464C66.2692 106.66 66.2692 106.976 66.4645 107.172L69.6464 110.354ZM69.5 60V110H70.5V60H69.5Z" fill="#133054"/>
</svg>
