<svg width="1144" height="903" viewBox="0 0 1144 903" fill="none" xmlns="http://www.w3.org/2000/svg">
<rect x="1" y="750" width="1142" height="152" stroke="white" stroke-width="2"/>
<rect x="1" y="449" width="1142" height="152" stroke="white" stroke-width="2"/>
<rect x="1" y="149" width="1142" height="152" stroke="white" stroke-width="2"/>
<path d="M315.68 6.22L320.126 16.588L324.572 6.22H327.182V19H325.526V7.732L320.648 19.072H319.442L314.6 7.804V19H312.98V6.22H315.68ZM337.69 19V17.47C337.402 18.034 336.97 18.466 336.394 18.766C335.83 19.066 335.212 19.216 334.54 19.216C333.232 19.216 332.182 18.766 331.39 17.866C330.598 16.966 330.202 15.862 330.202 14.554C330.202 13.234 330.604 12.13 331.408 11.242C332.212 10.342 333.256 9.892 334.54 9.892C335.776 9.892 336.724 10.3 337.384 11.116C337.552 11.356 337.654 11.512 337.69 11.584V10.108H339.328V19H337.69ZM337.726 14.554C337.726 13.654 337.462 12.904 336.934 12.304C336.406 11.704 335.71 11.404 334.846 11.404C333.958 11.404 333.244 11.71 332.704 12.322C332.164 12.922 331.894 13.666 331.894 14.554C331.894 15.502 332.164 16.246 332.704 16.786C333.244 17.398 333.958 17.704 334.846 17.704C335.71 17.704 336.406 17.398 336.934 16.786C337.462 16.174 337.726 15.43 337.726 14.554ZM345.163 19V11.584H341.563V10.108H350.401V11.584H346.801V19H345.163ZM356.13 9.892C357.522 9.892 358.626 10.36 359.442 11.296C360.258 12.22 360.666 13.372 360.666 14.752H353.268C353.292 15.34 353.472 15.892 353.808 16.408C354.144 16.912 354.576 17.266 355.104 17.47C355.452 17.626 355.848 17.704 356.292 17.704C356.82 17.704 357.342 17.602 357.858 17.398C358.374 17.182 358.734 16.87 358.938 16.462H360.558C360.462 17.002 360.186 17.488 359.73 17.92C359.274 18.34 358.764 18.664 358.2 18.892C357.684 19.108 357.048 19.216 356.292 19.216C354.948 19.216 353.832 18.772 352.944 17.884C352.056 16.996 351.612 15.886 351.612 14.554C351.612 13.222 352.038 12.112 352.89 11.224C353.742 10.336 354.822 9.892 356.13 9.892ZM356.13 11.296C355.434 11.296 354.84 11.476 354.348 11.836C353.868 12.196 353.544 12.712 353.376 13.384H358.848C358.644 12.724 358.308 12.214 357.84 11.854C357.372 11.482 356.802 11.296 356.13 11.296ZM363.299 19V10.108H365.477L369.023 17.11L372.569 10.108H374.675V19H373.073V12.016L369.509 19.054H368.375L364.847 12.088V19H363.299ZM384.905 19V17.47C384.617 18.034 384.185 18.466 383.609 18.766C383.045 19.066 382.427 19.216 381.755 19.216C380.447 19.216 379.397 18.766 378.605 17.866C377.813 16.966 377.417 15.862 377.417 14.554C377.417 13.234 377.819 12.13 378.623 11.242C379.427 10.342 380.471 9.892 381.755 9.892C382.991 9.892 383.939 10.3 384.599 11.116C384.767 11.356 384.869 11.512 384.905 11.584V10.108H386.543V19H384.905ZM384.941 14.554C384.941 13.654 384.677 12.904 384.149 12.304C383.621 11.704 382.925 11.404 382.061 11.404C381.173 11.404 380.459 11.71 379.919 12.322C379.379 12.922 379.109 13.666 379.109 14.554C379.109 15.502 379.379 16.246 379.919 16.786C380.459 17.398 381.173 17.704 382.061 17.704C382.925 17.704 383.621 17.398 384.149 16.786C384.677 16.174 384.941 15.43 384.941 14.554ZM392.378 19V11.584H388.778V10.108H397.616V11.584H394.016V19H392.378ZM399.844 19V10.108H401.482V16.804L406.648 10.108H408.286V19H406.648V12.25L401.482 19H399.844ZM411.638 19V10.108H413.222V13.96L417.902 10.108H420.242L414.986 14.374L420.476 19H418.154L413.222 14.932V19H411.638ZM428.973 19V17.47C428.685 18.034 428.253 18.466 427.677 18.766C427.113 19.066 426.495 19.216 425.823 19.216C424.515 19.216 423.465 18.766 422.673 17.866C421.881 16.966 421.485 15.862 421.485 14.554C421.485 13.234 421.887 12.13 422.691 11.242C423.495 10.342 424.539 9.892 425.823 9.892C427.059 9.892 428.007 10.3 428.667 11.116C428.835 11.356 428.937 11.512 428.973 11.584V10.108H430.611V19H428.973ZM429.009 14.554C429.009 13.654 428.745 12.904 428.217 12.304C427.689 11.704 426.993 11.404 426.129 11.404C425.241 11.404 424.527 11.71 423.987 12.322C423.447 12.922 423.177 13.666 423.177 14.554C423.177 15.502 423.447 16.246 423.987 16.786C424.527 17.398 425.241 17.704 426.129 17.704C426.993 17.704 427.689 17.398 428.217 16.786C428.745 16.174 429.009 15.43 429.009 14.554ZM312.98 42V29.22H319.622C320.942 29.22 321.986 29.52 322.754 30.12C323.534 30.708 323.924 31.638 323.924 32.91C323.924 34.158 323.528 35.1 322.736 35.736C321.944 36.36 320.906 36.672 319.622 36.672H314.726V42H312.98ZM319.676 30.84H314.726V35.052H319.676C320.408 35.052 320.996 34.878 321.44 34.53C321.896 34.182 322.124 33.654 322.124 32.946C322.124 31.542 321.308 30.84 319.676 30.84ZM335.054 33.108L329.222 46.032H327.548L329.456 41.802L325.424 33.108H327.278L330.32 39.876L333.362 33.108H335.054ZM345.155 35.88H343.499C343.007 34.896 342.143 34.404 340.907 34.404C340.067 34.404 339.389 34.716 338.873 35.34C338.357 35.964 338.099 36.702 338.099 37.554C338.099 38.406 338.363 39.144 338.891 39.768C339.419 40.392 340.097 40.704 340.925 40.704C342.161 40.704 343.031 40.212 343.535 39.228H345.155C345.095 39.756 344.777 40.332 344.201 40.956C343.397 41.796 342.305 42.216 340.925 42.216C339.641 42.216 338.567 41.76 337.703 40.848C336.839 39.936 336.407 38.838 336.407 37.554C336.407 36.258 336.839 35.16 337.703 34.26C338.567 33.348 339.635 32.892 340.907 32.892C341.927 32.892 342.839 33.156 343.643 33.684C344.447 34.2 344.951 34.932 345.155 35.88ZM355.842 35.88H354.186C353.694 34.896 352.83 34.404 351.594 34.404C350.754 34.404 350.076 34.716 349.56 35.34C349.044 35.964 348.786 36.702 348.786 37.554C348.786 38.406 349.05 39.144 349.578 39.768C350.106 40.392 350.784 40.704 351.612 40.704C352.848 40.704 353.718 40.212 354.222 39.228H355.842C355.782 39.756 355.464 40.332 354.888 40.956C354.084 41.796 352.992 42.216 351.612 42.216C350.328 42.216 349.254 41.76 348.39 40.848C347.526 39.936 347.094 38.838 347.094 37.554C347.094 36.258 347.526 35.16 348.39 34.26C349.254 33.348 350.322 32.892 351.594 32.892C352.614 32.892 353.526 33.156 354.33 33.684C355.134 34.2 355.638 34.932 355.842 35.88ZM358.412 42V33.108H359.996V36.96L364.676 33.108H367.016L361.76 37.374L367.25 42H364.928L359.996 37.932V42H358.412ZM369.083 42V33.108H370.721V39.804L375.887 33.108H377.525V42H375.887V35.25L370.721 42H369.083ZM380.913 42V33.108H382.551V39.804L387.717 33.108H389.355V42H387.717V35.25L382.551 42H380.913ZM385.161 30.39C385.533 30.39 385.815 30.27 386.007 30.03C386.199 29.79 386.295 29.478 386.295 29.094V28.788H387.663V29.13C387.663 29.922 387.441 30.546 386.997 31.002C386.553 31.458 385.941 31.686 385.161 31.686C384.381 31.686 383.769 31.458 383.325 31.002C382.881 30.534 382.659 29.91 382.659 29.13V28.788H384.027V29.094C384.027 29.466 384.123 29.778 384.315 30.03C384.519 30.27 384.801 30.39 385.161 30.39ZM405.048 42H403.41V38.778H400.764L398.604 42H396.714L399.072 38.562C398.4 38.406 397.884 38.094 397.524 37.626C397.164 37.158 396.984 36.576 396.984 35.88C396.984 34.992 397.284 34.308 397.884 33.828C398.496 33.348 399.252 33.108 400.152 33.108H405.048V42ZM400.35 37.302H403.41V34.584H400.35C399.258 34.584 398.712 35.016 398.712 35.88C398.712 36.36 398.862 36.72 399.162 36.96C399.462 37.188 399.858 37.302 400.35 37.302ZM412.076 40.74C413.624 40.74 414.398 40.29 414.398 39.39C414.398 38.61 413.774 38.22 412.526 38.22H411.05V36.78H412.544C413.684 36.78 414.254 36.372 414.254 35.556C414.254 35.172 414.056 34.872 413.66 34.656C413.228 34.452 412.67 34.35 411.986 34.35C410.762 34.35 409.928 34.77 409.484 35.61H407.882C407.978 35.022 408.26 34.512 408.728 34.08C409.196 33.636 409.742 33.312 410.366 33.108C410.834 32.952 411.386 32.874 412.022 32.874C412.49 32.874 412.934 32.916 413.354 33C413.774 33.084 414.182 33.222 414.578 33.414C414.974 33.594 415.286 33.864 415.514 34.224C415.754 34.584 415.874 35.01 415.874 35.502C415.874 35.97 415.748 36.384 415.496 36.744C415.244 37.092 414.896 37.326 414.452 37.446C415.556 37.758 416.108 38.4 416.108 39.372C416.108 40.044 415.886 40.608 415.442 41.064C415.01 41.508 414.506 41.814 413.93 41.982C413.354 42.138 412.736 42.216 412.076 42.216C411.032 42.216 410.072 41.964 409.196 41.46C408.32 40.956 407.81 40.23 407.666 39.282H409.34C409.412 39.438 409.52 39.6 409.664 39.768C409.892 40.092 410.234 40.338 410.69 40.506C411.146 40.662 411.608 40.74 412.076 40.74ZM420.607 35.97H423.307C425.059 35.97 426.175 36.57 426.655 37.77C426.787 38.166 426.853 38.562 426.853 38.958C426.853 39.942 426.511 40.698 425.827 41.226C425.155 41.742 424.321 42 423.325 42H418.969V33.108H420.607V35.97ZM423.127 37.446H420.607V40.524H423.127C424.459 40.524 425.125 40.002 425.125 38.958C425.125 37.95 424.459 37.446 423.127 37.446ZM428.347 42V33.108H429.985V42H428.347ZM433.33 42V33.108H434.914V36.96L439.594 33.108H441.934L436.678 37.374L442.168 42H439.846L434.914 37.932V42H433.33ZM320.108 62.75H317.012C315.512 62.75 314.312 62.384 313.412 61.652C312.524 60.92 312.08 59.84 312.08 58.412C312.08 56.948 312.524 55.874 313.412 55.19C314.3 54.494 315.5 54.146 317.012 54.146H320.108V52.04H321.854V54.146H324.95C326.462 54.146 327.662 54.494 328.55 55.19C329.438 55.874 329.882 56.948 329.882 58.412C329.882 59.888 329.426 60.98 328.514 61.688C327.614 62.396 326.426 62.75 324.95 62.75H321.854V65.18H320.108V62.75ZM320.108 61.13V55.766H316.958C314.906 55.766 313.88 56.66 313.88 58.448C313.88 59.348 314.162 60.02 314.726 60.464C315.29 60.908 316.034 61.13 316.958 61.13H320.108ZM325.004 55.766H321.854V61.13H325.004C325.928 61.13 326.672 60.908 327.236 60.464C327.8 60.02 328.082 59.348 328.082 58.448C328.082 56.66 327.056 55.766 325.004 55.766ZM332.661 65V56.108H334.299V62.804L339.465 56.108H341.103V65H339.465V58.25L334.299 65H332.661ZM348.127 63.74C349.675 63.74 350.449 63.29 350.449 62.39C350.449 61.61 349.825 61.22 348.577 61.22H347.101V59.78H348.595C349.735 59.78 350.305 59.372 350.305 58.556C350.305 58.172 350.107 57.872 349.711 57.656C349.279 57.452 348.721 57.35 348.037 57.35C346.813 57.35 345.979 57.77 345.535 58.61H343.933C344.029 58.022 344.311 57.512 344.779 57.08C345.247 56.636 345.793 56.312 346.417 56.108C346.885 55.952 347.437 55.874 348.073 55.874C348.541 55.874 348.985 55.916 349.405 56C349.825 56.084 350.233 56.222 350.629 56.414C351.025 56.594 351.337 56.864 351.565 57.224C351.805 57.584 351.925 58.01 351.925 58.502C351.925 58.97 351.799 59.384 351.547 59.744C351.295 60.092 350.947 60.326 350.503 60.446C351.607 60.758 352.159 61.4 352.159 62.372C352.159 63.044 351.937 63.608 351.493 64.064C351.061 64.508 350.557 64.814 349.981 64.982C349.405 65.138 348.787 65.216 348.127 65.216C347.083 65.216 346.123 64.964 345.247 64.46C344.371 63.956 343.861 63.23 343.717 62.282H345.391C345.463 62.438 345.571 62.6 345.715 62.768C345.943 63.092 346.285 63.338 346.741 63.506C347.197 63.662 347.659 63.74 348.127 63.74ZM355.02 65V56.108H356.658V62.804L361.824 56.108H363.462V65H361.824V58.25L356.658 65H355.02ZM366.814 65V56.108H368.398V59.96L373.078 56.108H375.418L370.162 60.374L375.652 65H373.33L368.398 60.932V65H366.814ZM384.149 65V63.47C383.861 64.034 383.429 64.466 382.853 64.766C382.289 65.066 381.671 65.216 380.999 65.216C379.691 65.216 378.641 64.766 377.849 63.866C377.057 62.966 376.661 61.862 376.661 60.554C376.661 59.234 377.063 58.13 377.867 57.242C378.671 56.342 379.715 55.892 380.999 55.892C382.235 55.892 383.183 56.3 383.843 57.116C384.011 57.356 384.113 57.512 384.149 57.584V56.108H385.787V65H384.149ZM384.185 60.554C384.185 59.654 383.921 58.904 383.393 58.304C382.865 57.704 382.169 57.404 381.305 57.404C380.417 57.404 379.703 57.71 379.163 58.322C378.623 58.922 378.353 59.666 378.353 60.554C378.353 61.502 378.623 62.246 379.163 62.786C379.703 63.398 380.417 63.704 381.305 63.704C382.169 63.704 382.865 63.398 383.393 62.786C383.921 62.174 384.185 61.43 384.185 60.554Z" fill="#133054"/>
<path d="M665.68 6.22L670.126 16.588L674.572 6.22H677.182V19H675.526V7.732L670.648 19.072H669.442L664.6 7.804V19H662.98V6.22H665.68ZM687.69 19V17.47C687.402 18.034 686.97 18.466 686.394 18.766C685.83 19.066 685.212 19.216 684.54 19.216C683.232 19.216 682.182 18.766 681.39 17.866C680.598 16.966 680.202 15.862 680.202 14.554C680.202 13.234 680.604 12.13 681.408 11.242C682.212 10.342 683.256 9.892 684.54 9.892C685.776 9.892 686.724 10.3 687.384 11.116C687.552 11.356 687.654 11.512 687.69 11.584V10.108H689.328V19H687.69ZM687.726 14.554C687.726 13.654 687.462 12.904 686.934 12.304C686.406 11.704 685.71 11.404 684.846 11.404C683.958 11.404 683.244 11.71 682.704 12.322C682.164 12.922 681.894 13.666 681.894 14.554C681.894 15.502 682.164 16.246 682.704 16.786C683.244 17.398 683.958 17.704 684.846 17.704C685.71 17.704 686.406 17.398 686.934 16.786C687.462 16.174 687.726 15.43 687.726 14.554ZM695.163 19V11.584H691.563V10.108H700.401V11.584H696.801V19H695.163ZM706.13 9.892C707.522 9.892 708.626 10.36 709.442 11.296C710.258 12.22 710.666 13.372 710.666 14.752H703.268C703.292 15.34 703.472 15.892 703.808 16.408C704.144 16.912 704.576 17.266 705.104 17.47C705.452 17.626 705.848 17.704 706.292 17.704C706.82 17.704 707.342 17.602 707.858 17.398C708.374 17.182 708.734 16.87 708.938 16.462H710.558C710.462 17.002 710.186 17.488 709.73 17.92C709.274 18.34 708.764 18.664 708.2 18.892C707.684 19.108 707.048 19.216 706.292 19.216C704.948 19.216 703.832 18.772 702.944 17.884C702.056 16.996 701.612 15.886 701.612 14.554C701.612 13.222 702.038 12.112 702.89 11.224C703.742 10.336 704.822 9.892 706.13 9.892ZM706.13 11.296C705.434 11.296 704.84 11.476 704.348 11.836C703.868 12.196 703.544 12.712 703.376 13.384H708.848C708.644 12.724 708.308 12.214 707.84 11.854C707.372 11.482 706.802 11.296 706.13 11.296ZM713.299 19V10.108H715.477L719.023 17.11L722.569 10.108H724.675V19H723.073V12.016L719.509 19.054H718.375L714.847 12.088V19H713.299ZM734.905 19V17.47C734.617 18.034 734.185 18.466 733.609 18.766C733.045 19.066 732.427 19.216 731.755 19.216C730.447 19.216 729.397 18.766 728.605 17.866C727.813 16.966 727.417 15.862 727.417 14.554C727.417 13.234 727.819 12.13 728.623 11.242C729.427 10.342 730.471 9.892 731.755 9.892C732.991 9.892 733.939 10.3 734.599 11.116C734.767 11.356 734.869 11.512 734.905 11.584V10.108H736.543V19H734.905ZM734.941 14.554C734.941 13.654 734.677 12.904 734.149 12.304C733.621 11.704 732.925 11.404 732.061 11.404C731.173 11.404 730.459 11.71 729.919 12.322C729.379 12.922 729.109 13.666 729.109 14.554C729.109 15.502 729.379 16.246 729.919 16.786C730.459 17.398 731.173 17.704 732.061 17.704C732.925 17.704 733.621 17.398 734.149 16.786C734.677 16.174 734.941 15.43 734.941 14.554ZM742.378 19V11.584H738.778V10.108H747.616V11.584H744.016V19H742.378ZM749.844 19V10.108H751.482V16.804L756.648 10.108H758.286V19H756.648V12.25L751.482 19H749.844ZM761.638 19V10.108H763.222V13.96L767.902 10.108H770.242L764.986 14.374L770.476 19H768.154L763.222 14.932V19H761.638ZM778.973 19V17.47C778.685 18.034 778.253 18.466 777.677 18.766C777.113 19.066 776.495 19.216 775.823 19.216C774.515 19.216 773.465 18.766 772.673 17.866C771.881 16.966 771.485 15.862 771.485 14.554C771.485 13.234 771.887 12.13 772.691 11.242C773.495 10.342 774.539 9.892 775.823 9.892C777.059 9.892 778.007 10.3 778.667 11.116C778.835 11.356 778.937 11.512 778.973 11.584V10.108H780.611V19H778.973ZM779.009 14.554C779.009 13.654 778.745 12.904 778.217 12.304C777.689 11.704 776.993 11.404 776.129 11.404C775.241 11.404 774.527 11.71 773.987 12.322C773.447 12.922 773.177 13.666 773.177 14.554C773.177 15.502 773.447 16.246 773.987 16.786C774.527 17.398 775.241 17.704 776.129 17.704C776.993 17.704 777.689 17.398 778.217 16.786C778.745 16.174 779.009 15.43 779.009 14.554ZM662.98 42V29.22H669.622C670.942 29.22 671.986 29.52 672.754 30.12C673.534 30.708 673.924 31.638 673.924 32.91C673.924 34.158 673.528 35.1 672.736 35.736C671.944 36.36 670.906 36.672 669.622 36.672H664.726V42H662.98ZM669.676 30.84H664.726V35.052H669.676C670.408 35.052 670.996 34.878 671.44 34.53C671.896 34.182 672.124 33.654 672.124 32.946C672.124 31.542 671.308 30.84 669.676 30.84ZM685.054 33.108L679.222 46.032H677.548L679.456 41.802L675.424 33.108H677.278L680.32 39.876L683.362 33.108H685.054ZM695.155 35.88H693.499C693.007 34.896 692.143 34.404 690.907 34.404C690.067 34.404 689.389 34.716 688.873 35.34C688.357 35.964 688.099 36.702 688.099 37.554C688.099 38.406 688.363 39.144 688.891 39.768C689.419 40.392 690.097 40.704 690.925 40.704C692.161 40.704 693.031 40.212 693.535 39.228H695.155C695.095 39.756 694.777 40.332 694.201 40.956C693.397 41.796 692.305 42.216 690.925 42.216C689.641 42.216 688.567 41.76 687.703 40.848C686.839 39.936 686.407 38.838 686.407 37.554C686.407 36.258 686.839 35.16 687.703 34.26C688.567 33.348 689.635 32.892 690.907 32.892C691.927 32.892 692.839 33.156 693.643 33.684C694.447 34.2 694.951 34.932 695.155 35.88ZM705.842 35.88H704.186C703.694 34.896 702.83 34.404 701.594 34.404C700.754 34.404 700.076 34.716 699.56 35.34C699.044 35.964 698.786 36.702 698.786 37.554C698.786 38.406 699.05 39.144 699.578 39.768C700.106 40.392 700.784 40.704 701.612 40.704C702.848 40.704 703.718 40.212 704.222 39.228H705.842C705.782 39.756 705.464 40.332 704.888 40.956C704.084 41.796 702.992 42.216 701.612 42.216C700.328 42.216 699.254 41.76 698.39 40.848C697.526 39.936 697.094 38.838 697.094 37.554C697.094 36.258 697.526 35.16 698.39 34.26C699.254 33.348 700.322 32.892 701.594 32.892C702.614 32.892 703.526 33.156 704.33 33.684C705.134 34.2 705.638 34.932 705.842 35.88ZM708.412 42V33.108H709.996V36.96L714.676 33.108H717.016L711.76 37.374L717.25 42H714.928L709.996 37.932V42H708.412ZM719.083 42V33.108H720.721V39.804L725.887 33.108H727.525V42H725.887V35.25L720.721 42H719.083ZM730.913 42V33.108H732.551V39.804L737.717 33.108H739.355V42H737.717V35.25L732.551 42H730.913ZM735.161 30.39C735.533 30.39 735.815 30.27 736.007 30.03C736.199 29.79 736.295 29.478 736.295 29.094V28.788H737.663V29.13C737.663 29.922 737.441 30.546 736.997 31.002C736.553 31.458 735.941 31.686 735.161 31.686C734.381 31.686 733.769 31.458 733.325 31.002C732.881 30.534 732.659 29.91 732.659 29.13V28.788H734.027V29.094C734.027 29.466 734.123 29.778 734.315 30.03C734.519 30.27 734.801 30.39 735.161 30.39ZM755.048 42H753.41V38.778H750.764L748.604 42H746.714L749.072 38.562C748.4 38.406 747.884 38.094 747.524 37.626C747.164 37.158 746.984 36.576 746.984 35.88C746.984 34.992 747.284 34.308 747.884 33.828C748.496 33.348 749.252 33.108 750.152 33.108H755.048V42ZM750.35 37.302H753.41V34.584H750.35C749.258 34.584 748.712 35.016 748.712 35.88C748.712 36.36 748.862 36.72 749.162 36.96C749.462 37.188 749.858 37.302 750.35 37.302ZM762.076 40.74C763.624 40.74 764.398 40.29 764.398 39.39C764.398 38.61 763.774 38.22 762.526 38.22H761.05V36.78H762.544C763.684 36.78 764.254 36.372 764.254 35.556C764.254 35.172 764.056 34.872 763.66 34.656C763.228 34.452 762.67 34.35 761.986 34.35C760.762 34.35 759.928 34.77 759.484 35.61H757.882C757.978 35.022 758.26 34.512 758.728 34.08C759.196 33.636 759.742 33.312 760.366 33.108C760.834 32.952 761.386 32.874 762.022 32.874C762.49 32.874 762.934 32.916 763.354 33C763.774 33.084 764.182 33.222 764.578 33.414C764.974 33.594 765.286 33.864 765.514 34.224C765.754 34.584 765.874 35.01 765.874 35.502C765.874 35.97 765.748 36.384 765.496 36.744C765.244 37.092 764.896 37.326 764.452 37.446C765.556 37.758 766.108 38.4 766.108 39.372C766.108 40.044 765.886 40.608 765.442 41.064C765.01 41.508 764.506 41.814 763.93 41.982C763.354 42.138 762.736 42.216 762.076 42.216C761.032 42.216 760.072 41.964 759.196 41.46C758.32 40.956 757.81 40.23 757.666 39.282H759.34C759.412 39.438 759.52 39.6 759.664 39.768C759.892 40.092 760.234 40.338 760.69 40.506C761.146 40.662 761.608 40.74 762.076 40.74ZM770.607 35.97H773.307C775.059 35.97 776.175 36.57 776.655 37.77C776.787 38.166 776.853 38.562 776.853 38.958C776.853 39.942 776.511 40.698 775.827 41.226C775.155 41.742 774.321 42 773.325 42H768.969V33.108H770.607V35.97ZM773.127 37.446H770.607V40.524H773.127C774.459 40.524 775.125 40.002 775.125 38.958C775.125 37.95 774.459 37.446 773.127 37.446ZM778.347 42V33.108H779.985V42H778.347ZM783.33 42V33.108H784.914V36.96L789.594 33.108H791.934L786.678 37.374L792.168 42H789.846L784.914 37.932V42H783.33ZM672.826 65L668.254 59.744L663.7 65H661.612L667.192 58.52L661.72 52.22H664.024L668.326 57.224L672.646 52.22H674.788L669.388 58.448L675.022 65H672.826ZM677.335 65V56.108H678.973V62.804L684.139 56.108H685.777V65H684.139V58.25L678.973 65H677.335ZM689.165 65V56.108H691.343L694.889 63.11L698.435 56.108H700.541V65H698.939V58.016L695.375 65.054H694.241L690.713 58.088V65H689.165ZM703.93 65V56.108H705.568V62.804L710.734 56.108H712.372V65H710.734V58.25L705.568 65H703.93ZM723.302 65H721.664V61.778H719.018L716.858 65H714.968L717.326 61.562C716.654 61.406 716.138 61.094 715.778 60.626C715.418 60.158 715.238 59.576 715.238 58.88C715.238 57.992 715.538 57.308 716.138 56.828C716.75 56.348 717.506 56.108 718.406 56.108H723.302V65ZM718.604 60.302H721.664V57.584H718.604C717.512 57.584 716.966 58.016 716.966 58.88C716.966 59.36 717.116 59.72 717.416 59.96C717.716 60.188 718.112 60.302 718.604 60.302Z" fill="#133054"/>
<path d="M1016.68 6.22L1021.13 16.588L1025.57 6.22H1028.18V19H1026.53V7.732L1021.65 19.072H1020.44L1015.6 7.804V19H1013.98V6.22H1016.68ZM1038.69 19V17.47C1038.4 18.034 1037.97 18.466 1037.39 18.766C1036.83 19.066 1036.21 19.216 1035.54 19.216C1034.23 19.216 1033.18 18.766 1032.39 17.866C1031.6 16.966 1031.2 15.862 1031.2 14.554C1031.2 13.234 1031.6 12.13 1032.41 11.242C1033.21 10.342 1034.26 9.892 1035.54 9.892C1036.78 9.892 1037.72 10.3 1038.38 11.116C1038.55 11.356 1038.65 11.512 1038.69 11.584V10.108H1040.33V19H1038.69ZM1038.73 14.554C1038.73 13.654 1038.46 12.904 1037.93 12.304C1037.41 11.704 1036.71 11.404 1035.85 11.404C1034.96 11.404 1034.24 11.71 1033.7 12.322C1033.16 12.922 1032.89 13.666 1032.89 14.554C1032.89 15.502 1033.16 16.246 1033.7 16.786C1034.24 17.398 1034.96 17.704 1035.85 17.704C1036.71 17.704 1037.41 17.398 1037.93 16.786C1038.46 16.174 1038.73 15.43 1038.73 14.554ZM1046.16 19V11.584H1042.56V10.108H1051.4V11.584H1047.8V19H1046.16ZM1057.13 9.892C1058.52 9.892 1059.63 10.36 1060.44 11.296C1061.26 12.22 1061.67 13.372 1061.67 14.752H1054.27C1054.29 15.34 1054.47 15.892 1054.81 16.408C1055.14 16.912 1055.58 17.266 1056.1 17.47C1056.45 17.626 1056.85 17.704 1057.29 17.704C1057.82 17.704 1058.34 17.602 1058.86 17.398C1059.37 17.182 1059.73 16.87 1059.94 16.462H1061.56C1061.46 17.002 1061.19 17.488 1060.73 17.92C1060.27 18.34 1059.76 18.664 1059.2 18.892C1058.68 19.108 1058.05 19.216 1057.29 19.216C1055.95 19.216 1054.83 18.772 1053.94 17.884C1053.06 16.996 1052.61 15.886 1052.61 14.554C1052.61 13.222 1053.04 12.112 1053.89 11.224C1054.74 10.336 1055.82 9.892 1057.13 9.892ZM1057.13 11.296C1056.43 11.296 1055.84 11.476 1055.35 11.836C1054.87 12.196 1054.54 12.712 1054.38 13.384H1059.85C1059.64 12.724 1059.31 12.214 1058.84 11.854C1058.37 11.482 1057.8 11.296 1057.13 11.296ZM1064.3 19V10.108H1066.48L1070.02 17.11L1073.57 10.108H1075.68V19H1074.07V12.016L1070.51 19.054H1069.38L1065.85 12.088V19H1064.3ZM1085.91 19V17.47C1085.62 18.034 1085.19 18.466 1084.61 18.766C1084.05 19.066 1083.43 19.216 1082.76 19.216C1081.45 19.216 1080.4 18.766 1079.61 17.866C1078.81 16.966 1078.42 15.862 1078.42 14.554C1078.42 13.234 1078.82 12.13 1079.62 11.242C1080.43 10.342 1081.47 9.892 1082.76 9.892C1083.99 9.892 1084.94 10.3 1085.6 11.116C1085.77 11.356 1085.87 11.512 1085.91 11.584V10.108H1087.54V19H1085.91ZM1085.94 14.554C1085.94 13.654 1085.68 12.904 1085.15 12.304C1084.62 11.704 1083.93 11.404 1083.06 11.404C1082.17 11.404 1081.46 11.71 1080.92 12.322C1080.38 12.922 1080.11 13.666 1080.11 14.554C1080.11 15.502 1080.38 16.246 1080.92 16.786C1081.46 17.398 1082.17 17.704 1083.06 17.704C1083.93 17.704 1084.62 17.398 1085.15 16.786C1085.68 16.174 1085.94 15.43 1085.94 14.554ZM1093.38 19V11.584H1089.78V10.108H1098.62V11.584H1095.02V19H1093.38ZM1100.84 19V10.108H1102.48V16.804L1107.65 10.108H1109.29V19H1107.65V12.25L1102.48 19H1100.84ZM1112.64 19V10.108H1114.22V13.96L1118.9 10.108H1121.24L1115.99 14.374L1121.48 19H1119.15L1114.22 14.932V19H1112.64ZM1129.97 19V17.47C1129.69 18.034 1129.25 18.466 1128.68 18.766C1128.11 19.066 1127.5 19.216 1126.82 19.216C1125.52 19.216 1124.47 18.766 1123.67 17.866C1122.88 16.966 1122.49 15.862 1122.49 14.554C1122.49 13.234 1122.89 12.13 1123.69 11.242C1124.5 10.342 1125.54 9.892 1126.82 9.892C1128.06 9.892 1129.01 10.3 1129.67 11.116C1129.84 11.356 1129.94 11.512 1129.97 11.584V10.108H1131.61V19H1129.97ZM1130.01 14.554C1130.01 13.654 1129.75 12.904 1129.22 12.304C1128.69 11.704 1127.99 11.404 1127.13 11.404C1126.24 11.404 1125.53 11.71 1124.99 12.322C1124.45 12.922 1124.18 13.666 1124.18 14.554C1124.18 15.502 1124.45 16.246 1124.99 16.786C1125.53 17.398 1126.24 17.704 1127.13 17.704C1127.99 17.704 1128.69 17.398 1129.22 16.786C1129.75 16.174 1130.01 15.43 1130.01 14.554ZM1013.98 42V29.22H1020.62C1021.94 29.22 1022.99 29.52 1023.75 30.12C1024.53 30.708 1024.92 31.638 1024.92 32.91C1024.92 34.158 1024.53 35.1 1023.74 35.736C1022.94 36.36 1021.91 36.672 1020.62 36.672H1015.73V42H1013.98ZM1020.68 30.84H1015.73V35.052H1020.68C1021.41 35.052 1022 34.878 1022.44 34.53C1022.9 34.182 1023.12 33.654 1023.12 32.946C1023.12 31.542 1022.31 30.84 1020.68 30.84ZM1036.05 33.108L1030.22 46.032H1028.55L1030.46 41.802L1026.42 33.108H1028.28L1031.32 39.876L1034.36 33.108H1036.05ZM1046.15 35.88H1044.5C1044.01 34.896 1043.14 34.404 1041.91 34.404C1041.07 34.404 1040.39 34.716 1039.87 35.34C1039.36 35.964 1039.1 36.702 1039.1 37.554C1039.1 38.406 1039.36 39.144 1039.89 39.768C1040.42 40.392 1041.1 40.704 1041.92 40.704C1043.16 40.704 1044.03 40.212 1044.53 39.228H1046.15C1046.09 39.756 1045.78 40.332 1045.2 40.956C1044.4 41.796 1043.3 42.216 1041.92 42.216C1040.64 42.216 1039.57 41.76 1038.7 40.848C1037.84 39.936 1037.41 38.838 1037.41 37.554C1037.41 36.258 1037.84 35.16 1038.7 34.26C1039.57 33.348 1040.63 32.892 1041.91 32.892C1042.93 32.892 1043.84 33.156 1044.64 33.684C1045.45 34.2 1045.95 34.932 1046.15 35.88ZM1056.84 35.88H1055.19C1054.69 34.896 1053.83 34.404 1052.59 34.404C1051.75 34.404 1051.08 34.716 1050.56 35.34C1050.04 35.964 1049.79 36.702 1049.79 37.554C1049.79 38.406 1050.05 39.144 1050.58 39.768C1051.11 40.392 1051.78 40.704 1052.61 40.704C1053.85 40.704 1054.72 40.212 1055.22 39.228H1056.84C1056.78 39.756 1056.46 40.332 1055.89 40.956C1055.08 41.796 1053.99 42.216 1052.61 42.216C1051.33 42.216 1050.25 41.76 1049.39 40.848C1048.53 39.936 1048.09 38.838 1048.09 37.554C1048.09 36.258 1048.53 35.16 1049.39 34.26C1050.25 33.348 1051.32 32.892 1052.59 32.892C1053.61 32.892 1054.53 33.156 1055.33 33.684C1056.13 34.2 1056.64 34.932 1056.84 35.88ZM1059.41 42V33.108H1061V36.96L1065.68 33.108H1068.02L1062.76 37.374L1068.25 42H1065.93L1061 37.932V42H1059.41ZM1070.08 42V33.108H1071.72V39.804L1076.89 33.108H1078.52V42H1076.89V35.25L1071.72 42H1070.08ZM1081.91 42V33.108H1083.55V39.804L1088.72 33.108H1090.35V42H1088.72V35.25L1083.55 42H1081.91ZM1086.16 30.39C1086.53 30.39 1086.81 30.27 1087.01 30.03C1087.2 29.79 1087.29 29.478 1087.29 29.094V28.788H1088.66V29.13C1088.66 29.922 1088.44 30.546 1088 31.002C1087.55 31.458 1086.94 31.686 1086.16 31.686C1085.38 31.686 1084.77 31.458 1084.32 31.002C1083.88 30.534 1083.66 29.91 1083.66 29.13V28.788H1085.03V29.094C1085.03 29.466 1085.12 29.778 1085.31 30.03C1085.52 30.27 1085.8 30.39 1086.16 30.39ZM1106.05 42H1104.41V38.778H1101.76L1099.6 42H1097.71L1100.07 38.562C1099.4 38.406 1098.88 38.094 1098.52 37.626C1098.16 37.158 1097.98 36.576 1097.98 35.88C1097.98 34.992 1098.28 34.308 1098.88 33.828C1099.5 33.348 1100.25 33.108 1101.15 33.108H1106.05V42ZM1101.35 37.302H1104.41V34.584H1101.35C1100.26 34.584 1099.71 35.016 1099.71 35.88C1099.71 36.36 1099.86 36.72 1100.16 36.96C1100.46 37.188 1100.86 37.302 1101.35 37.302ZM1113.08 40.74C1114.62 40.74 1115.4 40.29 1115.4 39.39C1115.4 38.61 1114.77 38.22 1113.53 38.22H1112.05V36.78H1113.54C1114.68 36.78 1115.25 36.372 1115.25 35.556C1115.25 35.172 1115.06 34.872 1114.66 34.656C1114.23 34.452 1113.67 34.35 1112.99 34.35C1111.76 34.35 1110.93 34.77 1110.48 35.61H1108.88C1108.98 35.022 1109.26 34.512 1109.73 34.08C1110.2 33.636 1110.74 33.312 1111.37 33.108C1111.83 32.952 1112.39 32.874 1113.02 32.874C1113.49 32.874 1113.93 32.916 1114.35 33C1114.77 33.084 1115.18 33.222 1115.58 33.414C1115.97 33.594 1116.29 33.864 1116.51 34.224C1116.75 34.584 1116.87 35.01 1116.87 35.502C1116.87 35.97 1116.75 36.384 1116.5 36.744C1116.24 37.092 1115.9 37.326 1115.45 37.446C1116.56 37.758 1117.11 38.4 1117.11 39.372C1117.11 40.044 1116.89 40.608 1116.44 41.064C1116.01 41.508 1115.51 41.814 1114.93 41.982C1114.35 42.138 1113.74 42.216 1113.08 42.216C1112.03 42.216 1111.07 41.964 1110.2 41.46C1109.32 40.956 1108.81 40.23 1108.67 39.282H1110.34C1110.41 39.438 1110.52 39.6 1110.66 39.768C1110.89 40.092 1111.23 40.338 1111.69 40.506C1112.15 40.662 1112.61 40.74 1113.08 40.74ZM1121.61 35.97H1124.31C1126.06 35.97 1127.18 36.57 1127.66 37.77C1127.79 38.166 1127.85 38.562 1127.85 38.958C1127.85 39.942 1127.51 40.698 1126.83 41.226C1126.16 41.742 1125.32 42 1124.33 42H1119.97V33.108H1121.61V35.97ZM1124.13 37.446H1121.61V40.524H1124.13C1125.46 40.524 1126.13 40.002 1126.13 38.958C1126.13 37.95 1125.46 37.446 1124.13 37.446ZM1129.35 42V33.108H1130.99V42H1129.35ZM1134.33 42V33.108H1135.91V36.96L1140.59 33.108H1142.93L1137.68 37.374L1143.17 42H1140.85L1135.91 37.932V42H1134.33ZM1015.73 57.44H1020.28C1021.62 57.44 1022.71 57.764 1023.54 58.412C1024.38 59.048 1024.8 60.002 1024.8 61.274C1024.8 62.582 1024.38 63.53 1023.56 64.118C1022.74 64.706 1021.65 65 1020.28 65H1013.98V52.22H1023.81V53.858H1015.73V57.44ZM1020.33 59.06H1015.73V63.38H1020.33C1022.11 63.38 1023 62.666 1023 61.238C1023 60.482 1022.75 59.93 1022.26 59.582C1021.77 59.234 1021.13 59.06 1020.33 59.06ZM1027.75 65V56.108H1029.39V62.804L1034.56 56.108H1036.2V65H1034.56V58.25L1029.39 65H1027.75ZM1043.6 55.892C1044.93 55.892 1046.04 56.342 1046.93 57.242C1047.83 58.13 1048.28 59.234 1048.28 60.554C1048.28 61.874 1047.82 62.984 1046.91 63.884C1046.01 64.772 1044.91 65.216 1043.6 65.216C1042.27 65.216 1041.15 64.766 1040.25 63.866C1039.36 62.966 1038.92 61.862 1038.92 60.554C1038.92 59.222 1039.37 58.112 1040.27 57.224C1041.17 56.336 1042.28 55.892 1043.6 55.892ZM1043.6 63.704C1044.49 63.704 1045.21 63.398 1045.76 62.786C1046.31 62.174 1046.59 61.43 1046.59 60.554C1046.59 59.654 1046.3 58.904 1045.74 58.304C1045.19 57.704 1044.47 57.404 1043.6 57.404C1042.71 57.404 1041.99 57.71 1041.44 58.322C1040.89 58.922 1040.61 59.666 1040.61 60.554C1040.61 61.442 1040.89 62.192 1041.46 62.804C1042.02 63.404 1042.73 63.704 1043.6 63.704ZM1051.47 61.04L1051.95 56.108H1058.58V65H1056.94V57.584H1053.27L1052.93 61.148C1052.88 61.604 1052.83 61.988 1052.78 62.3C1052.73 62.612 1052.64 62.966 1052.51 63.362C1052.38 63.746 1052.22 64.058 1052.03 64.298C1051.83 64.526 1051.57 64.724 1051.23 64.892C1050.9 65.048 1050.51 65.126 1050.06 65.126H1049.58V63.65H1049.79C1050.26 63.65 1050.6 63.542 1050.82 63.326C1051.05 63.11 1051.21 62.768 1051.31 62.3C1051.37 61.94 1051.42 61.52 1051.47 61.04ZM1065.98 55.892C1067.31 55.892 1068.42 56.342 1069.31 57.242C1070.21 58.13 1070.66 59.234 1070.66 60.554C1070.66 61.874 1070.2 62.984 1069.29 63.884C1068.39 64.772 1067.28 65.216 1065.98 65.216C1064.64 65.216 1063.53 64.766 1062.63 63.866C1061.74 62.966 1061.3 61.862 1061.3 60.554C1061.3 59.222 1061.75 58.112 1062.65 57.224C1063.55 56.336 1064.66 55.892 1065.98 55.892ZM1065.98 63.704C1066.86 63.704 1067.58 63.398 1068.14 62.786C1068.69 62.174 1068.96 61.43 1068.96 60.554C1068.96 59.654 1068.68 58.904 1068.12 58.304C1067.57 57.704 1066.85 57.404 1065.98 57.404C1065.09 57.404 1064.37 57.71 1063.82 58.322C1063.26 58.922 1062.99 59.666 1062.99 60.554C1062.99 61.442 1063.27 62.192 1063.83 62.804C1064.4 63.404 1065.11 63.704 1065.98 63.704ZM1073.33 65V56.108H1079.96V57.584H1074.97V65H1073.33ZM1082.19 65V56.108H1083.83V62.804L1089 56.108H1090.64V65H1089V58.25L1083.83 65H1082.19ZM1101.57 65H1099.93V61.778H1097.28L1095.12 65H1093.23L1095.59 61.562C1094.92 61.406 1094.4 61.094 1094.04 60.626C1093.68 60.158 1093.5 59.576 1093.5 58.88C1093.5 57.992 1093.8 57.308 1094.4 56.828C1095.01 56.348 1095.77 56.108 1096.67 56.108H1101.57V65ZM1096.87 60.302H1099.93V57.584H1096.87C1095.78 57.584 1095.23 58.016 1095.23 58.88C1095.23 59.36 1095.38 59.72 1095.68 59.96C1095.98 60.188 1096.38 60.302 1096.87 60.302Z" fill="#133054"/>
<rect x="433" y="166" width="168" height="118" fill="white" stroke="#133054" stroke-width="2"/>
<path d="M460.251 209V196.22H471.411V209H469.665V197.84H461.997V209H460.251ZM476.7 207.56V213.032H475.08V200.108H476.7V201.638C476.976 201.086 477.42 200.66 478.032 200.36C478.644 200.048 479.28 199.892 479.94 199.892C481.272 199.892 482.334 200.336 483.126 201.224C483.918 202.112 484.314 203.222 484.314 204.554C484.314 205.898 483.912 207.014 483.108 207.902C482.304 208.778 481.248 209.216 479.94 209.216C479.4 209.216 478.854 209.108 478.302 208.892C477.762 208.676 477.336 208.376 477.024 207.992C476.856 207.812 476.748 207.668 476.7 207.56ZM476.664 204.554C476.664 205.49 476.94 206.234 477.492 206.786C478.032 207.398 478.752 207.704 479.652 207.704C480.54 207.704 481.26 207.404 481.812 206.804C482.364 206.192 482.64 205.442 482.64 204.554C482.64 203.678 482.37 202.928 481.83 202.304C481.23 201.704 480.504 201.404 479.652 201.404C478.752 201.404 478.026 201.704 477.474 202.304C476.934 202.904 476.664 203.654 476.664 204.554ZM487.05 209V200.108H488.688V206.804L493.854 200.108H495.492V209H493.854V202.25L488.688 209H487.05ZM498.844 209V200.108H500.428V203.96L505.108 200.108H507.448L502.192 204.374L507.682 209H505.36L500.428 204.932V209H498.844ZM510.253 205.04L510.739 200.108H517.363V209H515.725V201.584H512.053L511.711 205.148C511.663 205.604 511.615 205.988 511.567 206.3C511.519 206.612 511.429 206.966 511.297 207.362C511.165 207.746 511.003 208.058 510.811 208.298C510.619 208.526 510.355 208.724 510.019 208.892C509.683 209.048 509.293 209.126 508.849 209.126H508.363V207.65H508.579C509.047 207.65 509.389 207.542 509.605 207.326C509.833 207.11 509.995 206.768 510.091 206.3C510.151 205.94 510.205 205.52 510.253 205.04ZM527.588 209V207.47C527.3 208.034 526.868 208.466 526.292 208.766C525.728 209.066 525.11 209.216 524.438 209.216C523.13 209.216 522.08 208.766 521.288 207.866C520.496 206.966 520.1 205.862 520.1 204.554C520.1 203.234 520.502 202.13 521.306 201.242C522.11 200.342 523.154 199.892 524.438 199.892C525.674 199.892 526.622 200.3 527.282 201.116C527.45 201.356 527.552 201.512 527.588 201.584V200.108H529.226V209H527.588ZM527.624 204.554C527.624 203.654 527.36 202.904 526.832 202.304C526.304 201.704 525.608 201.404 524.744 201.404C523.856 201.404 523.142 201.71 522.602 202.322C522.062 202.922 521.792 203.666 521.792 204.554C521.792 205.502 522.062 206.246 522.602 206.786C523.142 207.398 523.856 207.704 524.744 207.704C525.608 207.704 526.304 207.398 526.832 206.786C527.36 206.174 527.624 205.43 527.624 204.554ZM538.661 207.524V201.584H535.025L534.791 203.564C534.683 204.464 534.551 205.286 534.395 206.03C534.275 206.618 534.089 207.116 533.837 207.524H538.661ZM532.649 211.682H531.191V207.524H532.253C532.757 206.852 533.117 205.49 533.333 203.438L533.711 200.108H540.299V207.524H541.919V211.682H540.461V209H532.649V211.682ZM543.968 209V200.108H545.606V203.744H550.592V200.108H552.23V209H550.592V205.22H545.606V209H543.968ZM562.463 209V207.47C562.175 208.034 561.743 208.466 561.167 208.766C560.603 209.066 559.985 209.216 559.313 209.216C558.005 209.216 556.955 208.766 556.163 207.866C555.371 206.966 554.975 205.862 554.975 204.554C554.975 203.234 555.377 202.13 556.181 201.242C556.985 200.342 558.029 199.892 559.313 199.892C560.549 199.892 561.497 200.3 562.157 201.116C562.325 201.356 562.427 201.512 562.463 201.584V200.108H564.101V209H562.463ZM562.499 204.554C562.499 203.654 562.235 202.904 561.707 202.304C561.179 201.704 560.483 201.404 559.619 201.404C558.731 201.404 558.017 201.71 557.477 202.322C556.937 202.922 556.667 203.666 556.667 204.554C556.667 205.502 556.937 206.246 557.477 206.786C558.017 207.398 558.731 207.704 559.619 207.704C560.483 207.704 561.179 207.398 561.707 206.786C562.235 206.174 562.499 205.43 562.499 204.554ZM575.03 209H573.392V205.778H570.746L568.586 209H566.696L569.054 205.562C568.382 205.406 567.866 205.094 567.506 204.626C567.146 204.158 566.966 203.576 566.966 202.88C566.966 201.992 567.266 201.308 567.866 200.828C568.478 200.348 569.234 200.108 570.134 200.108H575.03V209ZM570.332 204.302H573.392V201.584H570.332C569.24 201.584 568.694 202.016 568.694 202.88C568.694 203.36 568.844 203.72 569.144 203.96C569.444 204.188 569.84 204.302 570.332 204.302ZM460.235 232V223.108H462.413L465.959 230.11L469.505 223.108H471.611V232H470.009V225.016L466.445 232.054H465.311L461.783 225.088V232H460.235ZM481.841 232V230.47C481.553 231.034 481.121 231.466 480.545 231.766C479.981 232.066 479.363 232.216 478.691 232.216C477.383 232.216 476.333 231.766 475.541 230.866C474.749 229.966 474.353 228.862 474.353 227.554C474.353 226.234 474.755 225.13 475.559 224.242C476.363 223.342 477.407 222.892 478.691 222.892C479.927 222.892 480.875 223.3 481.535 224.116C481.703 224.356 481.805 224.512 481.841 224.584V223.108H483.479V232H481.841ZM481.877 227.554C481.877 226.654 481.613 225.904 481.085 225.304C480.557 224.704 479.861 224.404 478.997 224.404C478.109 224.404 477.395 224.71 476.855 225.322C476.315 225.922 476.045 226.666 476.045 227.554C476.045 228.502 476.315 229.246 476.855 229.786C477.395 230.398 478.109 230.704 478.997 230.704C479.861 230.704 480.557 230.398 481.085 229.786C481.613 229.174 481.877 228.43 481.877 227.554ZM489.314 232V224.584H485.714V223.108H494.552V224.584H490.952V232H489.314ZM500.28 222.892C501.672 222.892 502.776 223.36 503.592 224.296C504.408 225.22 504.816 226.372 504.816 227.752H497.418C497.442 228.34 497.622 228.892 497.958 229.408C498.294 229.912 498.726 230.266 499.254 230.47C499.602 230.626 499.998 230.704 500.442 230.704C500.97 230.704 501.492 230.602 502.008 230.398C502.524 230.182 502.884 229.87 503.088 229.462H504.708C504.612 230.002 504.336 230.488 503.88 230.92C503.424 231.34 502.914 231.664 502.35 231.892C501.834 232.108 501.198 232.216 500.442 232.216C499.098 232.216 497.982 231.772 497.094 230.884C496.206 229.996 495.762 228.886 495.762 227.554C495.762 226.222 496.188 225.112 497.04 224.224C497.892 223.336 498.972 222.892 500.28 222.892ZM500.28 224.296C499.584 224.296 498.99 224.476 498.498 224.836C498.018 225.196 497.694 225.712 497.526 226.384H502.998C502.794 225.724 502.458 225.214 501.99 224.854C501.522 224.482 500.952 224.296 500.28 224.296ZM507.45 232V223.108H509.628L513.174 230.11L516.72 223.108H518.826V232H517.224V225.016L513.66 232.054H512.526L508.998 225.088V232H507.45ZM529.055 232V230.47C528.767 231.034 528.335 231.466 527.759 231.766C527.195 232.066 526.577 232.216 525.905 232.216C524.597 232.216 523.547 231.766 522.755 230.866C521.963 229.966 521.567 228.862 521.567 227.554C521.567 226.234 521.969 225.13 522.773 224.242C523.577 223.342 524.621 222.892 525.905 222.892C527.141 222.892 528.089 223.3 528.749 224.116C528.917 224.356 529.019 224.512 529.055 224.584V223.108H530.693V232H529.055ZM529.091 227.554C529.091 226.654 528.827 225.904 528.299 225.304C527.771 224.704 527.075 224.404 526.211 224.404C525.323 224.404 524.609 224.71 524.069 225.322C523.529 225.922 523.259 226.666 523.259 227.554C523.259 228.502 523.529 229.246 524.069 229.786C524.609 230.398 525.323 230.704 526.211 230.704C527.075 230.704 527.771 230.398 528.299 229.786C528.827 229.174 529.091 228.43 529.091 227.554ZM536.529 232V224.584H532.929V223.108H541.767V224.584H538.167V232H536.529ZM543.995 232V223.108H545.633V229.804L550.799 223.108H552.437V232H550.799V225.25L545.633 232H543.995ZM555.789 232V223.108H557.373V226.96L562.053 223.108H564.393L559.137 227.374L564.627 232H562.305L557.373 227.932V232H555.789ZM573.124 232V230.47C572.836 231.034 572.404 231.466 571.828 231.766C571.264 232.066 570.646 232.216 569.974 232.216C568.666 232.216 567.616 231.766 566.824 230.866C566.032 229.966 565.636 228.862 565.636 227.554C565.636 226.234 566.038 225.13 566.842 224.242C567.646 223.342 568.69 222.892 569.974 222.892C571.21 222.892 572.158 223.3 572.818 224.116C572.986 224.356 573.088 224.512 573.124 224.584V223.108H574.762V232H573.124ZM573.16 227.554C573.16 226.654 572.896 225.904 572.368 225.304C571.84 224.704 571.144 224.404 570.28 224.404C569.392 224.404 568.678 224.71 568.138 225.322C567.598 225.922 567.328 226.666 567.328 227.554C567.328 228.502 567.598 229.246 568.138 229.786C568.678 230.398 569.392 230.704 570.28 230.704C571.144 230.704 571.84 230.398 572.368 229.786C572.896 229.174 573.16 228.43 573.16 227.554ZM475.625 255V246.108H477.263V252.804L482.429 246.108H484.067V255H482.429V248.25L477.263 255H475.625ZM496.718 258.852V255.216C495.254 255.18 494.024 254.742 493.028 253.902C492.044 253.062 491.552 251.946 491.552 250.554C491.552 249.138 492.056 248.01 493.064 247.17C494.072 246.318 495.29 245.892 496.718 245.892V241.752H498.356V245.892C499.82 245.928 501.044 246.366 502.028 247.206C503.024 248.034 503.522 249.15 503.522 250.554C503.522 251.97 503.018 253.104 502.01 253.956C501.002 254.796 499.784 255.216 498.356 255.216V258.852H496.718ZM494.216 248.268C493.568 248.808 493.244 249.57 493.244 250.554C493.244 251.538 493.574 252.312 494.234 252.876C494.894 253.428 495.722 253.704 496.718 253.704V247.404C495.698 247.428 494.864 247.716 494.216 248.268ZM501.83 250.554C501.83 249.546 501.5 248.772 500.84 248.232C500.192 247.68 499.364 247.404 498.356 247.404V253.704C499.376 253.68 500.21 253.398 500.858 252.858C501.506 252.306 501.83 251.538 501.83 250.554ZM506.246 255V246.108H507.884V252.804L513.05 246.108H514.688V255H513.05V248.25L507.884 255H506.246ZM521.712 253.74C523.26 253.74 524.034 253.29 524.034 252.39C524.034 251.61 523.41 251.22 522.162 251.22H520.686V249.78H522.18C523.32 249.78 523.89 249.372 523.89 248.556C523.89 248.172 523.692 247.872 523.296 247.656C522.864 247.452 522.306 247.35 521.622 247.35C520.398 247.35 519.564 247.77 519.12 248.61H517.518C517.614 248.022 517.896 247.512 518.364 247.08C518.832 246.636 519.378 246.312 520.002 246.108C520.47 245.952 521.022 245.874 521.658 245.874C522.126 245.874 522.57 245.916 522.99 246C523.41 246.084 523.818 246.222 524.214 246.414C524.61 246.594 524.922 246.864 525.15 247.224C525.39 247.584 525.51 248.01 525.51 248.502C525.51 248.97 525.384 249.384 525.132 249.744C524.88 250.092 524.532 250.326 524.088 250.446C525.192 250.758 525.744 251.4 525.744 252.372C525.744 253.044 525.522 253.608 525.078 254.064C524.646 254.508 524.142 254.814 523.566 254.982C522.99 255.138 522.372 255.216 521.712 255.216C520.668 255.216 519.708 254.964 518.832 254.46C517.956 253.956 517.446 253.23 517.302 252.282H518.976C519.048 252.438 519.156 252.6 519.3 252.768C519.528 253.092 519.87 253.338 520.326 253.506C520.782 253.662 521.244 253.74 521.712 253.74ZM528.605 255V246.108H530.243V252.804L535.409 246.108H537.047V255H535.409V248.25L530.243 255H528.605ZM540.399 255V246.108H541.983V249.96L546.663 246.108H549.003L543.747 250.374L549.237 255H546.915L541.983 250.932V255H540.399ZM557.734 255V253.47C557.446 254.034 557.014 254.466 556.438 254.766C555.874 255.066 555.256 255.216 554.584 255.216C553.276 255.216 552.226 254.766 551.434 253.866C550.642 252.966 550.246 251.862 550.246 250.554C550.246 249.234 550.648 248.13 551.452 247.242C552.256 246.342 553.3 245.892 554.584 245.892C555.82 245.892 556.768 246.3 557.428 247.116C557.596 247.356 557.698 247.512 557.734 247.584V246.108H559.372V255H557.734ZM557.77 250.554C557.77 249.654 557.506 248.904 556.978 248.304C556.45 247.704 555.754 247.404 554.89 247.404C554.002 247.404 553.288 247.71 552.748 248.322C552.208 248.922 551.938 249.666 551.938 250.554C551.938 251.502 552.208 252.246 552.748 252.786C553.288 253.398 554.002 253.704 554.89 253.704C555.754 253.704 556.45 253.398 556.978 252.786C557.506 252.174 557.77 251.43 557.77 250.554Z" fill="#133054"/>
<rect x="843" y="166" width="168" height="118" fill="white" stroke="#133054" stroke-width="2"/>
<path d="M857.726 221.44H862.28C863.624 221.44 864.71 221.764 865.538 222.412C866.378 223.048 866.798 224.002 866.798 225.274C866.798 226.582 866.384 227.53 865.556 228.118C864.74 228.706 863.648 229 862.28 229H855.98V216.22H865.808V217.858H857.726V221.44ZM862.334 223.06H857.726V227.38H862.334C864.11 227.38 864.998 226.666 864.998 225.238C864.998 224.482 864.752 223.93 864.26 223.582C863.768 223.234 863.126 223.06 862.334 223.06ZM869.755 229V220.108H871.393V226.804L876.559 220.108H878.197V229H876.559V222.25L871.393 229H869.755ZM885.599 219.892C886.931 219.892 888.041 220.342 888.929 221.242C889.829 222.13 890.279 223.234 890.279 224.554C890.279 225.874 889.823 226.984 888.911 227.884C888.011 228.772 886.907 229.216 885.599 229.216C884.267 229.216 883.151 228.766 882.251 227.866C881.363 226.966 880.919 225.862 880.919 224.554C880.919 223.222 881.369 222.112 882.269 221.224C883.169 220.336 884.279 219.892 885.599 219.892ZM885.599 227.704C886.487 227.704 887.207 227.398 887.759 226.786C888.311 226.174 888.587 225.43 888.587 224.554C888.587 223.654 888.305 222.904 887.741 222.304C887.189 221.704 886.475 221.404 885.599 221.404C884.711 221.404 883.991 221.71 883.439 222.322C882.887 222.922 882.611 223.666 882.611 224.554C882.611 225.442 882.893 226.192 883.457 226.804C884.021 227.404 884.735 227.704 885.599 227.704ZM895.089 229V221.584H891.489V220.108H900.327V221.584H896.727V229H895.089ZM906.056 219.892C907.448 219.892 908.552 220.36 909.368 221.296C910.184 222.22 910.592 223.372 910.592 224.752H903.194C903.218 225.34 903.398 225.892 903.734 226.408C904.07 226.912 904.502 227.266 905.03 227.47C905.378 227.626 905.774 227.704 906.218 227.704C906.746 227.704 907.268 227.602 907.784 227.398C908.3 227.182 908.66 226.87 908.864 226.462H910.484C910.388 227.002 910.112 227.488 909.656 227.92C909.2 228.34 908.69 228.664 908.126 228.892C907.61 229.108 906.974 229.216 906.218 229.216C904.874 229.216 903.758 228.772 902.87 227.884C901.982 226.996 901.538 225.886 901.538 224.554C901.538 223.222 901.964 222.112 902.816 221.224C903.668 220.336 904.748 219.892 906.056 219.892ZM906.056 221.296C905.36 221.296 904.766 221.476 904.274 221.836C903.794 222.196 903.47 222.712 903.302 223.384H908.774C908.57 222.724 908.234 222.214 907.766 221.854C907.298 221.482 906.728 221.296 906.056 221.296ZM919.851 229L916.863 225.67L913.857 229H911.877L915.873 224.572L911.859 220.108H913.983L916.899 223.402L919.869 220.108H921.867L917.889 224.518L921.867 229H919.851ZM923.965 229V220.108H925.603V223.744H930.589V220.108H932.227V229H930.589V225.22H925.603V229H923.965ZM939.634 219.892C940.966 219.892 942.076 220.342 942.964 221.242C943.864 222.13 944.314 223.234 944.314 224.554C944.314 225.874 943.858 226.984 942.946 227.884C942.046 228.772 940.942 229.216 939.634 229.216C938.302 229.216 937.186 228.766 936.286 227.866C935.398 226.966 934.954 225.862 934.954 224.554C934.954 223.222 935.404 222.112 936.304 221.224C937.204 220.336 938.314 219.892 939.634 219.892ZM939.634 227.704C940.522 227.704 941.242 227.398 941.794 226.786C942.346 226.174 942.622 225.43 942.622 224.554C942.622 223.654 942.34 222.904 941.776 222.304C941.224 221.704 940.51 221.404 939.634 221.404C938.746 221.404 938.026 221.71 937.474 222.322C936.922 222.922 936.646 223.666 936.646 224.554C936.646 225.442 936.928 226.192 937.492 226.804C938.056 227.404 938.77 227.704 939.634 227.704ZM947.502 225.04L947.988 220.108H954.612V229H952.974V221.584H949.302L948.96 225.148C948.912 225.604 948.864 225.988 948.816 226.3C948.768 226.612 948.678 226.966 948.546 227.362C948.414 227.746 948.252 228.058 948.06 228.298C947.868 228.526 947.604 228.724 947.268 228.892C946.932 229.048 946.542 229.126 946.098 229.126H945.612V227.65H945.828C946.296 227.65 946.638 227.542 946.854 227.326C947.082 227.11 947.244 226.768 947.34 226.3C947.4 225.94 947.454 225.52 947.502 225.04ZM962.011 219.892C963.343 219.892 964.453 220.342 965.341 221.242C966.241 222.13 966.691 223.234 966.691 224.554C966.691 225.874 966.235 226.984 965.323 227.884C964.423 228.772 963.319 229.216 962.011 229.216C960.679 229.216 959.563 228.766 958.663 227.866C957.775 226.966 957.331 225.862 957.331 224.554C957.331 223.222 957.781 222.112 958.681 221.224C959.581 220.336 960.691 219.892 962.011 219.892ZM962.011 227.704C962.899 227.704 963.619 227.398 964.171 226.786C964.723 226.174 964.999 225.43 964.999 224.554C964.999 223.654 964.717 222.904 964.153 222.304C963.601 221.704 962.887 221.404 962.011 221.404C961.123 221.404 960.403 221.71 959.851 222.322C959.299 222.922 959.023 223.666 959.023 224.554C959.023 225.442 959.305 226.192 959.869 226.804C960.433 227.404 961.147 227.704 962.011 227.704ZM969.369 229V220.108H975.993V221.584H971.007V229H969.369ZM978.229 229V220.108H979.867V226.804L985.033 220.108H986.671V229H985.033V222.25L979.867 229H978.229ZM997.601 229H995.963V225.778H993.317L991.157 229H989.267L991.625 225.562C990.953 225.406 990.437 225.094 990.077 224.626C989.717 224.158 989.537 223.576 989.537 222.88C989.537 221.992 989.837 221.308 990.437 220.828C991.049 220.348 991.805 220.108 992.705 220.108H997.601V229ZM992.903 224.302H995.963V221.584H992.903C991.811 221.584 991.265 222.016 991.265 222.88C991.265 223.36 991.415 223.72 991.715 223.96C992.015 224.188 992.411 224.302 992.903 224.302Z" fill="#133054"/>
<rect x="843" y="466" width="168" height="118" fill="white" stroke="#133054" stroke-width="2"/>
<path d="M857.726 521.44H862.28C863.624 521.44 864.71 521.764 865.538 522.412C866.378 523.048 866.798 524.002 866.798 525.274C866.798 526.582 866.384 527.53 865.556 528.118C864.74 528.706 863.648 529 862.28 529H855.98V516.22H865.808V517.858H857.726V521.44ZM862.334 523.06H857.726V527.38H862.334C864.11 527.38 864.998 526.666 864.998 525.238C864.998 524.482 864.752 523.93 864.26 523.582C863.768 523.234 863.126 523.06 862.334 523.06ZM869.755 529V520.108H871.393V526.804L876.559 520.108H878.197V529H876.559V522.25L871.393 529H869.755ZM885.599 519.892C886.931 519.892 888.041 520.342 888.929 521.242C889.829 522.13 890.279 523.234 890.279 524.554C890.279 525.874 889.823 526.984 888.911 527.884C888.011 528.772 886.907 529.216 885.599 529.216C884.267 529.216 883.151 528.766 882.251 527.866C881.363 526.966 880.919 525.862 880.919 524.554C880.919 523.222 881.369 522.112 882.269 521.224C883.169 520.336 884.279 519.892 885.599 519.892ZM885.599 527.704C886.487 527.704 887.207 527.398 887.759 526.786C888.311 526.174 888.587 525.43 888.587 524.554C888.587 523.654 888.305 522.904 887.741 522.304C887.189 521.704 886.475 521.404 885.599 521.404C884.711 521.404 883.991 521.71 883.439 522.322C882.887 522.922 882.611 523.666 882.611 524.554C882.611 525.442 882.893 526.192 883.457 526.804C884.021 527.404 884.735 527.704 885.599 527.704ZM895.089 529V521.584H891.489V520.108H900.327V521.584H896.727V529H895.089ZM906.056 519.892C907.448 519.892 908.552 520.36 909.368 521.296C910.184 522.22 910.592 523.372 910.592 524.752H903.194C903.218 525.34 903.398 525.892 903.734 526.408C904.07 526.912 904.502 527.266 905.03 527.47C905.378 527.626 905.774 527.704 906.218 527.704C906.746 527.704 907.268 527.602 907.784 527.398C908.3 527.182 908.66 526.87 908.864 526.462H910.484C910.388 527.002 910.112 527.488 909.656 527.92C909.2 528.34 908.69 528.664 908.126 528.892C907.61 529.108 906.974 529.216 906.218 529.216C904.874 529.216 903.758 528.772 902.87 527.884C901.982 526.996 901.538 525.886 901.538 524.554C901.538 523.222 901.964 522.112 902.816 521.224C903.668 520.336 904.748 519.892 906.056 519.892ZM906.056 521.296C905.36 521.296 904.766 521.476 904.274 521.836C903.794 522.196 903.47 522.712 903.302 523.384H908.774C908.57 522.724 908.234 522.214 907.766 521.854C907.298 521.482 906.728 521.296 906.056 521.296ZM919.851 529L916.863 525.67L913.857 529H911.877L915.873 524.572L911.859 520.108H913.983L916.899 523.402L919.869 520.108H921.867L917.889 524.518L921.867 529H919.851ZM923.965 529V520.108H925.603V523.744H930.589V520.108H932.227V529H930.589V525.22H925.603V529H923.965ZM939.634 519.892C940.966 519.892 942.076 520.342 942.964 521.242C943.864 522.13 944.314 523.234 944.314 524.554C944.314 525.874 943.858 526.984 942.946 527.884C942.046 528.772 940.942 529.216 939.634 529.216C938.302 529.216 937.186 528.766 936.286 527.866C935.398 526.966 934.954 525.862 934.954 524.554C934.954 523.222 935.404 522.112 936.304 521.224C937.204 520.336 938.314 519.892 939.634 519.892ZM939.634 527.704C940.522 527.704 941.242 527.398 941.794 526.786C942.346 526.174 942.622 525.43 942.622 524.554C942.622 523.654 942.34 522.904 941.776 522.304C941.224 521.704 940.51 521.404 939.634 521.404C938.746 521.404 938.026 521.71 937.474 522.322C936.922 522.922 936.646 523.666 936.646 524.554C936.646 525.442 936.928 526.192 937.492 526.804C938.056 527.404 938.77 527.704 939.634 527.704ZM947.502 525.04L947.988 520.108H954.612V529H952.974V521.584H949.302L948.96 525.148C948.912 525.604 948.864 525.988 948.816 526.3C948.768 526.612 948.678 526.966 948.546 527.362C948.414 527.746 948.252 528.058 948.06 528.298C947.868 528.526 947.604 528.724 947.268 528.892C946.932 529.048 946.542 529.126 946.098 529.126H945.612V527.65H945.828C946.296 527.65 946.638 527.542 946.854 527.326C947.082 527.11 947.244 526.768 947.34 526.3C947.4 525.94 947.454 525.52 947.502 525.04ZM962.011 519.892C963.343 519.892 964.453 520.342 965.341 521.242C966.241 522.13 966.691 523.234 966.691 524.554C966.691 525.874 966.235 526.984 965.323 527.884C964.423 528.772 963.319 529.216 962.011 529.216C960.679 529.216 959.563 528.766 958.663 527.866C957.775 526.966 957.331 525.862 957.331 524.554C957.331 523.222 957.781 522.112 958.681 521.224C959.581 520.336 960.691 519.892 962.011 519.892ZM962.011 527.704C962.899 527.704 963.619 527.398 964.171 526.786C964.723 526.174 964.999 525.43 964.999 524.554C964.999 523.654 964.717 522.904 964.153 522.304C963.601 521.704 962.887 521.404 962.011 521.404C961.123 521.404 960.403 521.71 959.851 522.322C959.299 522.922 959.023 523.666 959.023 524.554C959.023 525.442 959.305 526.192 959.869 526.804C960.433 527.404 961.147 527.704 962.011 527.704ZM969.369 529V520.108H975.993V521.584H971.007V529H969.369ZM978.229 529V520.108H979.867V526.804L985.033 520.108H986.671V529H985.033V522.25L979.867 529H978.229ZM997.601 529H995.963V525.778H993.317L991.157 529H989.267L991.625 525.562C990.953 525.406 990.437 525.094 990.077 524.626C989.717 524.158 989.537 523.576 989.537 522.88C989.537 521.992 989.837 521.308 990.437 520.828C991.049 520.348 991.805 520.108 992.705 520.108H997.601V529ZM992.903 524.302H995.963V521.584H992.903C991.811 521.584 991.265 522.016 991.265 522.88C991.265 523.36 991.415 523.72 991.715 523.96C992.015 524.188 992.411 524.302 992.903 524.302Z" fill="#133054"/>
<rect x="638" y="767" width="168" height="118" fill="white" stroke="#133054" stroke-width="2"/>
<path d="M651.899 814.44H656.453C657.797 814.44 658.883 814.764 659.711 815.412C660.551 816.048 660.971 817.002 660.971 818.274C660.971 819.582 660.557 820.53 659.729 821.118C658.913 821.706 657.821 822 656.453 822H650.153V809.22H659.981V810.858H651.899V814.44ZM656.507 816.06H651.899V820.38H656.507C658.283 820.38 659.171 819.666 659.171 818.238C659.171 817.482 658.925 816.93 658.433 816.582C657.941 816.234 657.299 816.06 656.507 816.06ZM663.927 822V813.108H665.565V819.804L670.731 813.108H672.369V822H670.731V815.25L665.565 822H663.927ZM679.771 812.892C681.103 812.892 682.213 813.342 683.101 814.242C684.001 815.13 684.451 816.234 684.451 817.554C684.451 818.874 683.995 819.984 683.083 820.884C682.183 821.772 681.079 822.216 679.771 822.216C678.439 822.216 677.323 821.766 676.423 820.866C675.535 819.966 675.091 818.862 675.091 817.554C675.091 816.222 675.541 815.112 676.441 814.224C677.341 813.336 678.451 812.892 679.771 812.892ZM679.771 820.704C680.659 820.704 681.379 820.398 681.931 819.786C682.483 819.174 682.759 818.43 682.759 817.554C682.759 816.654 682.477 815.904 681.913 815.304C681.361 814.704 680.647 814.404 679.771 814.404C678.883 814.404 678.163 814.71 677.611 815.322C677.059 815.922 676.783 816.666 676.783 817.554C676.783 818.442 677.065 819.192 677.629 819.804C678.193 820.404 678.907 820.704 679.771 820.704ZM687.64 818.04L688.126 813.108H694.75V822H693.112V814.584H689.44L689.098 818.148C689.05 818.604 689.002 818.988 688.954 819.3C688.906 819.612 688.816 819.966 688.684 820.362C688.552 820.746 688.39 821.058 688.198 821.298C688.006 821.526 687.742 821.724 687.406 821.892C687.07 822.048 686.68 822.126 686.236 822.126H685.75V820.65H685.966C686.434 820.65 686.776 820.542 686.992 820.326C687.22 820.11 687.382 819.768 687.478 819.3C687.538 818.94 687.592 818.52 687.64 818.04ZM702.148 812.892C703.48 812.892 704.59 813.342 705.478 814.242C706.378 815.13 706.828 816.234 706.828 817.554C706.828 818.874 706.372 819.984 705.46 820.884C704.56 821.772 703.456 822.216 702.148 822.216C700.816 822.216 699.7 821.766 698.8 820.866C697.912 819.966 697.468 818.862 697.468 817.554C697.468 816.222 697.918 815.112 698.818 814.224C699.718 813.336 700.828 812.892 702.148 812.892ZM702.148 820.704C703.036 820.704 703.756 820.398 704.308 819.786C704.86 819.174 705.136 818.43 705.136 817.554C705.136 816.654 704.854 815.904 704.29 815.304C703.738 814.704 703.024 814.404 702.148 814.404C701.26 814.404 700.54 814.71 699.988 815.322C699.436 815.922 699.16 816.666 699.16 817.554C699.16 818.442 699.442 819.192 700.006 819.804C700.57 820.404 701.284 820.704 702.148 820.704ZM709.507 822V813.108H716.131V814.584H711.145V822H709.507ZM718.367 822V813.108H720.005V819.804L725.171 813.108H726.809V822H725.171V815.25L720.005 822H718.367ZM736.299 822V818.616C736.131 818.664 735.891 818.706 735.579 818.742C735.531 818.742 735.411 818.754 735.219 818.778C735.039 818.79 734.889 818.802 734.769 818.814C734.361 818.838 734.013 818.85 733.725 818.85C732.477 818.85 731.535 818.586 730.899 818.058C730.263 817.53 729.945 816.66 729.945 815.448V813.108H731.583V815.268C731.583 815.604 731.619 815.91 731.691 816.186C731.847 816.99 732.525 817.392 733.725 817.392C734.001 817.392 734.355 817.38 734.787 817.356C734.907 817.344 735.057 817.332 735.237 817.32C735.429 817.296 735.549 817.284 735.597 817.284C735.861 817.248 736.095 817.212 736.299 817.176V813.108H737.937V822H736.299ZM745.176 812.892C746.568 812.892 747.672 813.36 748.488 814.296C749.304 815.22 749.712 816.372 749.712 817.752H742.314C742.338 818.34 742.518 818.892 742.854 819.408C743.19 819.912 743.622 820.266 744.15 820.47C744.498 820.626 744.894 820.704 745.338 820.704C745.866 820.704 746.388 820.602 746.904 820.398C747.42 820.182 747.78 819.87 747.984 819.462H749.604C749.508 820.002 749.232 820.488 748.776 820.92C748.32 821.34 747.81 821.664 747.246 821.892C746.73 822.108 746.094 822.216 745.338 822.216C743.994 822.216 742.878 821.772 741.99 820.884C741.102 819.996 740.658 818.886 740.658 817.554C740.658 816.222 741.084 815.112 741.936 814.224C742.788 813.336 743.868 812.892 745.176 812.892ZM745.176 814.296C744.48 814.296 743.886 814.476 743.394 814.836C742.914 815.196 742.59 815.712 742.422 816.384H747.894C747.69 815.724 747.354 815.214 746.886 814.854C746.418 814.482 745.848 814.296 745.176 814.296ZM760.427 815.88H758.771C758.279 814.896 757.415 814.404 756.179 814.404C755.339 814.404 754.661 814.716 754.145 815.34C753.629 815.964 753.371 816.702 753.371 817.554C753.371 818.406 753.635 819.144 754.163 819.768C754.691 820.392 755.369 820.704 756.197 820.704C757.433 820.704 758.303 820.212 758.807 819.228H760.427C760.367 819.756 760.049 820.332 759.473 820.956C758.669 821.796 757.577 822.216 756.197 822.216C754.913 822.216 753.839 821.76 752.975 820.848C752.111 819.936 751.679 818.838 751.679 817.554C751.679 816.258 752.111 815.16 752.975 814.26C753.839 813.348 754.907 812.892 756.179 812.892C757.199 812.892 758.111 813.156 758.915 813.684C759.719 814.2 760.223 814.932 760.427 815.88ZM762.997 822V813.108H764.581V816.96L769.261 813.108H771.601L766.345 817.374L771.835 822H769.513L764.581 817.932V822H762.997ZM773.668 822V813.108H775.306V819.804L780.472 813.108H782.11V822H780.472V815.25L775.306 822H773.668ZM789.35 812.892C790.742 812.892 791.846 813.36 792.662 814.296C793.478 815.22 793.886 816.372 793.886 817.752H786.488C786.512 818.34 786.692 818.892 787.028 819.408C787.364 819.912 787.796 820.266 788.324 820.47C788.672 820.626 789.068 820.704 789.512 820.704C790.04 820.704 790.562 820.602 791.078 820.398C791.594 820.182 791.954 819.87 792.158 819.462H793.778C793.682 820.002 793.406 820.488 792.95 820.92C792.494 821.34 791.984 821.664 791.42 821.892C790.904 822.108 790.268 822.216 789.512 822.216C788.168 822.216 787.052 821.772 786.164 820.884C785.276 819.996 784.832 818.886 784.832 817.554C784.832 816.222 785.258 815.112 786.11 814.224C786.962 813.336 788.042 812.892 789.35 812.892ZM789.35 814.296C788.654 814.296 788.06 814.476 787.568 814.836C787.088 815.196 786.764 815.712 786.596 816.384H792.068C791.864 815.724 791.528 815.214 791.06 814.854C790.592 814.482 790.022 814.296 789.35 814.296ZM694.97 845V836.108H696.608V839.744H701.594V836.108H703.232V845H701.594V841.22H696.608V845H694.97ZM713.465 845V843.47C713.177 844.034 712.745 844.466 712.169 844.766C711.605 845.066 710.987 845.216 710.315 845.216C709.007 845.216 707.957 844.766 707.165 843.866C706.373 842.966 705.977 841.862 705.977 840.554C705.977 839.234 706.379 838.13 707.183 837.242C707.987 836.342 709.031 835.892 710.315 835.892C711.551 835.892 712.499 836.3 713.159 837.116C713.327 837.356 713.429 837.512 713.465 837.584V836.108H715.103V845H713.465ZM713.501 840.554C713.501 839.654 713.237 838.904 712.709 838.304C712.181 837.704 711.485 837.404 710.621 837.404C709.733 837.404 709.019 837.71 708.479 838.322C707.939 838.922 707.669 839.666 707.669 840.554C707.669 841.502 707.939 842.246 708.479 842.786C709.019 843.398 709.733 843.704 710.621 843.704C711.485 843.704 712.181 843.398 712.709 842.786C713.237 842.174 713.501 841.43 713.501 840.554ZM726.842 836.108L721.01 849.032H719.336L721.244 844.802L717.212 836.108H719.066L722.108 842.876L725.15 836.108H726.842ZM728.913 845V836.108H730.497V839.96L735.177 836.108H737.517L732.261 840.374L737.751 845H735.429L730.497 840.932V845H728.913ZM739.584 845V836.108H741.222V842.804L746.388 836.108H748.026V845H746.388V838.25L741.222 845H739.584Z" fill="#133054"/>
<rect x="433" y="466" width="168" height="118" fill="white" stroke="#133054" stroke-width="2"/>
<path d="M460.251 509V496.22H471.411V509H469.665V497.84H461.997V509H460.251ZM476.7 507.56V513.032H475.08V500.108H476.7V501.638C476.976 501.086 477.42 500.66 478.032 500.36C478.644 500.048 479.28 499.892 479.94 499.892C481.272 499.892 482.334 500.336 483.126 501.224C483.918 502.112 484.314 503.222 484.314 504.554C484.314 505.898 483.912 507.014 483.108 507.902C482.304 508.778 481.248 509.216 479.94 509.216C479.4 509.216 478.854 509.108 478.302 508.892C477.762 508.676 477.336 508.376 477.024 507.992C476.856 507.812 476.748 507.668 476.7 507.56ZM476.664 504.554C476.664 505.49 476.94 506.234 477.492 506.786C478.032 507.398 478.752 507.704 479.652 507.704C480.54 507.704 481.26 507.404 481.812 506.804C482.364 506.192 482.64 505.442 482.64 504.554C482.64 503.678 482.37 502.928 481.83 502.304C481.23 501.704 480.504 501.404 479.652 501.404C478.752 501.404 478.026 501.704 477.474 502.304C476.934 502.904 476.664 503.654 476.664 504.554ZM487.05 509V500.108H488.688V506.804L493.854 500.108H495.492V509H493.854V502.25L488.688 509H487.05ZM498.844 509V500.108H500.428V503.96L505.108 500.108H507.448L502.192 504.374L507.682 509H505.36L500.428 504.932V509H498.844ZM510.253 505.04L510.739 500.108H517.363V509H515.725V501.584H512.053L511.711 505.148C511.663 505.604 511.615 505.988 511.567 506.3C511.519 506.612 511.429 506.966 511.297 507.362C511.165 507.746 511.003 508.058 510.811 508.298C510.619 508.526 510.355 508.724 510.019 508.892C509.683 509.048 509.293 509.126 508.849 509.126H508.363V507.65H508.579C509.047 507.65 509.389 507.542 509.605 507.326C509.833 507.11 509.995 506.768 510.091 506.3C510.151 505.94 510.205 505.52 510.253 505.04ZM527.588 509V507.47C527.3 508.034 526.868 508.466 526.292 508.766C525.728 509.066 525.11 509.216 524.438 509.216C523.13 509.216 522.08 508.766 521.288 507.866C520.496 506.966 520.1 505.862 520.1 504.554C520.1 503.234 520.502 502.13 521.306 501.242C522.11 500.342 523.154 499.892 524.438 499.892C525.674 499.892 526.622 500.3 527.282 501.116C527.45 501.356 527.552 501.512 527.588 501.584V500.108H529.226V509H527.588ZM527.624 504.554C527.624 503.654 527.36 502.904 526.832 502.304C526.304 501.704 525.608 501.404 524.744 501.404C523.856 501.404 523.142 501.71 522.602 502.322C522.062 502.922 521.792 503.666 521.792 504.554C521.792 505.502 522.062 506.246 522.602 506.786C523.142 507.398 523.856 507.704 524.744 507.704C525.608 507.704 526.304 507.398 526.832 506.786C527.36 506.174 527.624 505.43 527.624 504.554ZM538.661 507.524V501.584H535.025L534.791 503.564C534.683 504.464 534.551 505.286 534.395 506.03C534.275 506.618 534.089 507.116 533.837 507.524H538.661ZM532.649 511.682H531.191V507.524H532.253C532.757 506.852 533.117 505.49 533.333 503.438L533.711 500.108H540.299V507.524H541.919V511.682H540.461V509H532.649V511.682ZM543.968 509V500.108H545.606V503.744H550.592V500.108H552.23V509H550.592V505.22H545.606V509H543.968ZM562.463 509V507.47C562.175 508.034 561.743 508.466 561.167 508.766C560.603 509.066 559.985 509.216 559.313 509.216C558.005 509.216 556.955 508.766 556.163 507.866C555.371 506.966 554.975 505.862 554.975 504.554C554.975 503.234 555.377 502.13 556.181 501.242C556.985 500.342 558.029 499.892 559.313 499.892C560.549 499.892 561.497 500.3 562.157 501.116C562.325 501.356 562.427 501.512 562.463 501.584V500.108H564.101V509H562.463ZM562.499 504.554C562.499 503.654 562.235 502.904 561.707 502.304C561.179 501.704 560.483 501.404 559.619 501.404C558.731 501.404 558.017 501.71 557.477 502.322C556.937 502.922 556.667 503.666 556.667 504.554C556.667 505.502 556.937 506.246 557.477 506.786C558.017 507.398 558.731 507.704 559.619 507.704C560.483 507.704 561.179 507.398 561.707 506.786C562.235 506.174 562.499 505.43 562.499 504.554ZM575.03 509H573.392V505.778H570.746L568.586 509H566.696L569.054 505.562C568.382 505.406 567.866 505.094 567.506 504.626C567.146 504.158 566.966 503.576 566.966 502.88C566.966 501.992 567.266 501.308 567.866 500.828C568.478 500.348 569.234 500.108 570.134 500.108H575.03V509ZM570.332 504.302H573.392V501.584H570.332C569.24 501.584 568.694 502.016 568.694 502.88C568.694 503.36 568.844 503.72 569.144 503.96C569.444 504.188 569.84 504.302 570.332 504.302ZM460.235 532V523.108H462.413L465.959 530.11L469.505 523.108H471.611V532H470.009V525.016L466.445 532.054H465.311L461.783 525.088V532H460.235ZM481.841 532V530.47C481.553 531.034 481.121 531.466 480.545 531.766C479.981 532.066 479.363 532.216 478.691 532.216C477.383 532.216 476.333 531.766 475.541 530.866C474.749 529.966 474.353 528.862 474.353 527.554C474.353 526.234 474.755 525.13 475.559 524.242C476.363 523.342 477.407 522.892 478.691 522.892C479.927 522.892 480.875 523.3 481.535 524.116C481.703 524.356 481.805 524.512 481.841 524.584V523.108H483.479V532H481.841ZM481.877 527.554C481.877 526.654 481.613 525.904 481.085 525.304C480.557 524.704 479.861 524.404 478.997 524.404C478.109 524.404 477.395 524.71 476.855 525.322C476.315 525.922 476.045 526.666 476.045 527.554C476.045 528.502 476.315 529.246 476.855 529.786C477.395 530.398 478.109 530.704 478.997 530.704C479.861 530.704 480.557 530.398 481.085 529.786C481.613 529.174 481.877 528.43 481.877 527.554ZM489.314 532V524.584H485.714V523.108H494.552V524.584H490.952V532H489.314ZM500.28 522.892C501.672 522.892 502.776 523.36 503.592 524.296C504.408 525.22 504.816 526.372 504.816 527.752H497.418C497.442 528.34 497.622 528.892 497.958 529.408C498.294 529.912 498.726 530.266 499.254 530.47C499.602 530.626 499.998 530.704 500.442 530.704C500.97 530.704 501.492 530.602 502.008 530.398C502.524 530.182 502.884 529.87 503.088 529.462H504.708C504.612 530.002 504.336 530.488 503.88 530.92C503.424 531.34 502.914 531.664 502.35 531.892C501.834 532.108 501.198 532.216 500.442 532.216C499.098 532.216 497.982 531.772 497.094 530.884C496.206 529.996 495.762 528.886 495.762 527.554C495.762 526.222 496.188 525.112 497.04 524.224C497.892 523.336 498.972 522.892 500.28 522.892ZM500.28 524.296C499.584 524.296 498.99 524.476 498.498 524.836C498.018 525.196 497.694 525.712 497.526 526.384H502.998C502.794 525.724 502.458 525.214 501.99 524.854C501.522 524.482 500.952 524.296 500.28 524.296ZM507.45 532V523.108H509.628L513.174 530.11L516.72 523.108H518.826V532H517.224V525.016L513.66 532.054H512.526L508.998 525.088V532H507.45ZM529.055 532V530.47C528.767 531.034 528.335 531.466 527.759 531.766C527.195 532.066 526.577 532.216 525.905 532.216C524.597 532.216 523.547 531.766 522.755 530.866C521.963 529.966 521.567 528.862 521.567 527.554C521.567 526.234 521.969 525.13 522.773 524.242C523.577 523.342 524.621 522.892 525.905 522.892C527.141 522.892 528.089 523.3 528.749 524.116C528.917 524.356 529.019 524.512 529.055 524.584V523.108H530.693V532H529.055ZM529.091 527.554C529.091 526.654 528.827 525.904 528.299 525.304C527.771 524.704 527.075 524.404 526.211 524.404C525.323 524.404 524.609 524.71 524.069 525.322C523.529 525.922 523.259 526.666 523.259 527.554C523.259 528.502 523.529 529.246 524.069 529.786C524.609 530.398 525.323 530.704 526.211 530.704C527.075 530.704 527.771 530.398 528.299 529.786C528.827 529.174 529.091 528.43 529.091 527.554ZM536.529 532V524.584H532.929V523.108H541.767V524.584H538.167V532H536.529ZM543.995 532V523.108H545.633V529.804L550.799 523.108H552.437V532H550.799V525.25L545.633 532H543.995ZM555.789 532V523.108H557.373V526.96L562.053 523.108H564.393L559.137 527.374L564.627 532H562.305L557.373 527.932V532H555.789ZM573.124 532V530.47C572.836 531.034 572.404 531.466 571.828 531.766C571.264 532.066 570.646 532.216 569.974 532.216C568.666 532.216 567.616 531.766 566.824 530.866C566.032 529.966 565.636 528.862 565.636 527.554C565.636 526.234 566.038 525.13 566.842 524.242C567.646 523.342 568.69 522.892 569.974 522.892C571.21 522.892 572.158 523.3 572.818 524.116C572.986 524.356 573.088 524.512 573.124 524.584V523.108H574.762V532H573.124ZM573.16 527.554C573.16 526.654 572.896 525.904 572.368 525.304C571.84 524.704 571.144 524.404 570.28 524.404C569.392 524.404 568.678 524.71 568.138 525.322C567.598 525.922 567.328 526.666 567.328 527.554C567.328 528.502 567.598 529.246 568.138 529.786C568.678 530.398 569.392 530.704 570.28 530.704C571.144 530.704 571.84 530.398 572.368 529.786C572.896 529.174 573.16 528.43 573.16 527.554ZM475.625 555V546.108H477.263V552.804L482.429 546.108H484.067V555H482.429V548.25L477.263 555H475.625ZM496.718 558.852V555.216C495.254 555.18 494.024 554.742 493.028 553.902C492.044 553.062 491.552 551.946 491.552 550.554C491.552 549.138 492.056 548.01 493.064 547.17C494.072 546.318 495.29 545.892 496.718 545.892V541.752H498.356V545.892C499.82 545.928 501.044 546.366 502.028 547.206C503.024 548.034 503.522 549.15 503.522 550.554C503.522 551.97 503.018 553.104 502.01 553.956C501.002 554.796 499.784 555.216 498.356 555.216V558.852H496.718ZM494.216 548.268C493.568 548.808 493.244 549.57 493.244 550.554C493.244 551.538 493.574 552.312 494.234 552.876C494.894 553.428 495.722 553.704 496.718 553.704V547.404C495.698 547.428 494.864 547.716 494.216 548.268ZM501.83 550.554C501.83 549.546 501.5 548.772 500.84 548.232C500.192 547.68 499.364 547.404 498.356 547.404V553.704C499.376 553.68 500.21 553.398 500.858 552.858C501.506 552.306 501.83 551.538 501.83 550.554ZM506.246 555V546.108H507.884V552.804L513.05 546.108H514.688V555H513.05V548.25L507.884 555H506.246ZM521.712 553.74C523.26 553.74 524.034 553.29 524.034 552.39C524.034 551.61 523.41 551.22 522.162 551.22H520.686V549.78H522.18C523.32 549.78 523.89 549.372 523.89 548.556C523.89 548.172 523.692 547.872 523.296 547.656C522.864 547.452 522.306 547.35 521.622 547.35C520.398 547.35 519.564 547.77 519.12 548.61H517.518C517.614 548.022 517.896 547.512 518.364 547.08C518.832 546.636 519.378 546.312 520.002 546.108C520.47 545.952 521.022 545.874 521.658 545.874C522.126 545.874 522.57 545.916 522.99 546C523.41 546.084 523.818 546.222 524.214 546.414C524.61 546.594 524.922 546.864 525.15 547.224C525.39 547.584 525.51 548.01 525.51 548.502C525.51 548.97 525.384 549.384 525.132 549.744C524.88 550.092 524.532 550.326 524.088 550.446C525.192 550.758 525.744 551.4 525.744 552.372C525.744 553.044 525.522 553.608 525.078 554.064C524.646 554.508 524.142 554.814 523.566 554.982C522.99 555.138 522.372 555.216 521.712 555.216C520.668 555.216 519.708 554.964 518.832 554.46C517.956 553.956 517.446 553.23 517.302 552.282H518.976C519.048 552.438 519.156 552.6 519.3 552.768C519.528 553.092 519.87 553.338 520.326 553.506C520.782 553.662 521.244 553.74 521.712 553.74ZM528.605 555V546.108H530.243V552.804L535.409 546.108H537.047V555H535.409V548.25L530.243 555H528.605ZM540.399 555V546.108H541.983V549.96L546.663 546.108H549.003L543.747 550.374L549.237 555H546.915L541.983 550.932V555H540.399ZM557.734 555V553.47C557.446 554.034 557.014 554.466 556.438 554.766C555.874 555.066 555.256 555.216 554.584 555.216C553.276 555.216 552.226 554.766 551.434 553.866C550.642 552.966 550.246 551.862 550.246 550.554C550.246 549.234 550.648 548.13 551.452 547.242C552.256 546.342 553.3 545.892 554.584 545.892C555.82 545.892 556.768 546.3 557.428 547.116C557.596 547.356 557.698 547.512 557.734 547.584V546.108H559.372V555H557.734ZM557.77 550.554C557.77 549.654 557.506 548.904 556.978 548.304C556.45 547.704 555.754 547.404 554.89 547.404C554.002 547.404 553.288 547.71 552.748 548.322C552.208 548.922 551.938 549.666 551.938 550.554C551.938 551.502 552.208 552.246 552.748 552.786C553.288 553.398 554.002 553.704 554.89 553.704C555.754 553.704 556.45 553.398 556.978 552.786C557.506 552.174 557.77 551.43 557.77 550.554Z" fill="#133054"/>
<path d="M431.909 150.996C432.459 151.046 432.946 150.641 432.996 150.091L433.811 141.127C433.861 140.577 433.455 140.091 432.905 140.041C432.355 139.991 431.869 140.396 431.819 140.946L431.095 148.914L423.127 148.189C422.577 148.139 422.091 148.545 422.041 149.095C421.991 149.645 422.396 150.131 422.946 150.181L431.909 150.996ZM376.232 84.6402L431.232 150.64L432.768 149.36L377.768 83.3598L376.232 84.6402Z" fill="#133054"/>
<path d="M841.909 150.996C842.459 151.046 842.946 150.641 842.996 150.091L843.811 141.127C843.861 140.577 843.455 140.091 842.905 140.041C842.355 139.991 841.869 140.396 841.819 140.946L841.095 148.914L833.127 148.189C832.577 148.139 832.091 148.545 832.041 149.095C831.991 149.645 832.396 150.131 832.946 150.181L841.909 150.996ZM786.232 84.6402L841.232 150.64L842.768 149.36L787.768 83.3598L786.232 84.6402Z" fill="#133054"/>
<path d="M601.004 150.091C601.054 150.641 601.541 151.046 602.091 150.996L611.054 150.181C611.604 150.131 612.009 149.645 611.959 149.095C611.909 148.545 611.423 148.139 610.873 148.189L602.905 148.914L602.181 140.946C602.131 140.396 601.645 139.991 601.095 140.041C600.545 140.091 600.139 140.577 600.189 141.127L601.004 150.091ZM656.232 83.3598L601.232 149.36L602.768 150.64L657.768 84.6402L656.232 83.3598Z" fill="#133054"/>
<path d="M636.476 750.852C636.946 751.141 637.562 750.994 637.852 750.524L642.569 742.859C642.858 742.389 642.711 741.773 642.241 741.483C641.771 741.194 641.155 741.341 640.865 741.811L636.672 748.624L629.859 744.431C629.389 744.142 628.773 744.289 628.483 744.759C628.194 745.229 628.341 745.845 628.811 746.135L636.476 750.852ZM601.027 603.232L636.027 750.232L637.973 749.768L602.973 602.768L601.027 603.232Z" fill="#133054"/>
<path d="M806.148 750.524C806.438 750.994 807.054 751.141 807.524 750.852L815.189 746.135C815.659 745.845 815.806 745.229 815.517 744.759C815.227 744.289 814.611 744.142 814.141 744.431L807.328 748.624L803.135 741.811C802.845 741.341 802.229 741.194 801.759 741.483C801.289 741.773 801.142 742.389 801.431 742.859L806.148 750.524ZM841.027 602.768L806.027 749.768L807.973 750.232L842.973 603.232L841.027 602.768Z" fill="#133054"/>
<path d="M601.029 447.76C600.897 448.297 601.224 448.839 601.76 448.971L610.498 451.127C611.035 451.259 611.576 450.932 611.709 450.396C611.841 449.859 611.514 449.318 610.978 449.185L603.21 447.269L605.127 439.502C605.259 438.965 604.932 438.424 604.396 438.291C603.859 438.159 603.318 438.486 603.185 439.023L601.029 447.76ZM841.483 302.144L601.483 447.144L602.517 448.856L842.517 303.856L841.483 302.144Z" fill="#133054"/>
<path d="M842.24 447.971C842.776 447.839 843.103 447.297 842.971 446.76L840.815 438.023C840.682 437.486 840.141 437.159 839.604 437.291C839.068 437.424 838.741 437.965 838.873 438.502L840.79 446.269L833.023 448.185C832.486 448.318 832.159 448.859 832.291 449.396C832.424 449.932 832.965 450.259 833.502 450.127L842.24 447.971ZM601.483 302.856L841.483 447.856L842.517 446.144L602.517 301.144L601.483 302.856Z" fill="#133054"/>
<path d="M516.293 450.707C516.683 451.098 517.317 451.098 517.707 450.707L524.071 444.343C524.462 443.953 524.462 443.319 524.071 442.929C523.681 442.538 523.047 442.538 522.657 442.929L517 448.586L511.343 442.929C510.953 442.538 510.319 442.538 509.929 442.929C509.538 443.319 509.538 443.953 509.929 444.343L516.293 450.707ZM516 301L516 450L518 450L518 301L516 301Z" fill="#133054"/>
<path d="M926.293 450.707C926.683 451.098 927.317 451.098 927.707 450.707L934.071 444.343C934.462 443.953 934.462 443.319 934.071 442.929C933.681 442.538 933.047 442.538 932.657 442.929L927 448.586L921.343 442.929C920.953 442.538 920.319 442.538 919.929 442.929C919.538 443.319 919.538 443.953 919.929 444.343L926.293 450.707ZM926 301L926 450L928 450L928 301L926 301Z" fill="#133054"/>
<path d="M1011 150.091C1011.05 150.641 1011.54 151.046 1012.09 150.996L1021.05 150.181C1021.6 150.131 1022.01 149.645 1021.96 149.095C1021.91 148.545 1021.42 148.139 1020.87 148.189L1012.91 148.914L1012.18 140.946C1012.13 140.396 1011.64 139.991 1011.09 140.041C1010.54 140.091 1010.14 140.577 1010.19 141.127L1011 150.091ZM1066.23 83.3598L1011.23 149.36L1012.77 150.64L1067.77 84.6402L1066.23 83.3598Z" fill="#133054"/>
</svg>
