<svg width="304" height="613" viewBox="0 0 304 613" fill="none" xmlns="http://www.w3.org/2000/svg">
<g clip-path="url(#clip0_142_1590)">
<path d="M44.8993 256L79.2137 136H97.0485L62.7341 256H44.8993Z" fill="#F9C113"/>
<path d="M150.878 256L185.165 136H203L168.713 256H150.878Z" fill="#F9C113"/>
<path d="M-17.929 256L16.3854 136H34.2201L-0.0942129 256H-17.929Z" fill="#F9C113"/>
<path d="M-49.6953 256L-15.408 136H2.42676L-31.8605 256H-49.6953Z" fill="#F9C113"/>
</g>
<g clip-path="url(#clip1_142_1590)">
<path d="M-43.1007 493L-8.78631 373H9.04849L-25.2659 493H-43.1007Z" fill="#F9C113"/>
<path d="M62.8781 493L97.1653 373H115L80.7129 493H62.8781Z" fill="#F9C113"/>
</g>
<path d="M-4.12622 373L30.044 255H47.8179L13.6477 373H-4.12622Z" fill="#F9C113"/>
<path d="M146.439 373L180.636 255H198.41L164.213 373H146.439Z" fill="#F9C113"/>
<path d="M252.056 373L286.226 255H304L269.83 373H252.056Z" fill="#F9C113"/>
<path d="M83.825 373L118.022 255H135.796L101.599 373H83.825Z" fill="#F9C113"/>
<path d="M52.1671 373L86.3373 255H104.111L69.941 373H52.1671Z" fill="#F9C113"/>
<defs>
<clipPath id="clip0_142_1590">
<rect width="586" height="120" fill="white" transform="translate(-383 136)"/>
</clipPath>
<clipPath id="clip1_142_1590">
<rect width="586" height="120" fill="white" transform="translate(-471 373)"/>
</clipPath>
</defs>
</svg>
