<svg width="222" height="613" viewBox="0 0 222 613" fill="none" xmlns="http://www.w3.org/2000/svg">
<g clip-path="url(#clip0_142_1668)">
<path d="M-37.1007 256L-2.78631 136H15.0485L-19.2659 256H-37.1007Z" fill="#F9C113"/>
<path d="M68.8781 256L103.165 136H121L86.7129 256H68.8781Z" fill="#F9C113"/>
</g>
<g clip-path="url(#clip1_142_1668)">
<path d="M-19.1219 493L15.1653 373H33.0001L-1.2871 493H-19.1219Z" fill="#F9C113"/>
</g>
<path d="M64.4389 373L98.6361 255H116.41L82.2128 373H64.4389Z" fill="#F9C113"/>
<path d="M170.056 373L204.226 255H222L187.83 373H170.056Z" fill="#F9C113"/>
<path d="M1.82495 373L36.0222 255H53.7961L19.5989 373H1.82495Z" fill="#F9C113"/>
<path d="M-29.8329 373L4.3373 255H22.1112L-12.059 373H-29.8329Z" fill="#F9C113"/>
<defs>
<clipPath id="clip0_142_1668">
<rect width="586" height="120" fill="white" transform="translate(-465 136)"/>
</clipPath>
<clipPath id="clip1_142_1668">
<rect width="586" height="120" fill="white" transform="translate(-553 373)"/>
</clipPath>
</defs>
</svg>
