<svg width="336" height="613" viewBox="0 0 336 613" fill="none" xmlns="http://www.w3.org/2000/svg">
<g clip-path="url(#clip0_142_1551)">
<g clip-path="url(#clip1_142_1551)">
<path d="M288.574 256L322.888 136H340.723L306.408 256H288.574Z" fill="#F9C113"/>
<path d="M164.245 256L198.532 136H216.367L182.08 256H164.245Z" fill="#F9C113"/>
<path d="M315.326 256L349.64 136H367.475L333.161 256H315.326Z" fill="#F9C113"/>
<path d="M88 256L122.314 136H140.149L105.835 256H88Z" fill="#F9C113"/>
<path d="M252.497 256L286.812 136H304.647L270.332 256H252.497Z" fill="#F9C113"/>
</g>
<path d="M232 136L266.287 16H284.122L249.835 136H232Z" fill="#F9C113"/>
<g clip-path="url(#clip2_142_1551)">
<path d="M276.819 493L311.106 373H328.941L294.653 493H276.819Z" fill="#F9C113"/>
<path d="M200.573 493L234.888 373H252.723L218.408 493H200.573Z" fill="#F9C113"/>
<path d="M76.245 493L110.532 373H128.367L94.0798 493H76.245Z" fill="#F9C113"/>
<path d="M227.326 493L261.64 373H279.475L245.161 493H227.326Z" fill="#F9C113"/>
<path d="M333.305 493L367.592 373H385.427L351.139 493H333.305Z" fill="#F9C113"/>
<path d="M0 493L34.3143 373H52.1491L17.8348 493H0Z" fill="#F9C113"/>
<path d="M164.497 493L198.812 373H216.647L182.332 493H164.497Z" fill="#F9C113"/>
</g>
<path d="M266.985 373L301.155 255H318.929L284.759 373H266.985Z" fill="#F9C113"/>
<path d="M191 373L225.197 255H242.971L208.774 373H191Z" fill="#F9C113"/>
<path d="M216 613L250.314 493H268.149L233.835 613H216Z" fill="#F9C113"/>
<path d="M76 613L110.314 493H128.149L93.8348 613H76Z" fill="#F9C113"/>
</g>
<defs>
<clipPath id="clip0_142_1551">
<rect width="385" height="613" fill="white"/>
</clipPath>
<clipPath id="clip1_142_1551">
<rect width="586" height="120" fill="white" transform="translate(88 136)"/>
</clipPath>
<clipPath id="clip2_142_1551">
<rect width="586" height="120" fill="white" transform="translate(0 373)"/>
</clipPath>
</defs>
</svg>
