<svg width="1440" height="1529" viewBox="0 0 1440 1529" fill="none" xmlns="http://www.w3.org/2000/svg">
<path d="M124.396 558L156.401 446H173.049L141.043 558H124.396Z" fill="#FAFAFA"/>
<path d="M265.421 558L297.452 446H314.1L282.069 558H265.421Z" fill="#FAFAFA"/>
<path d="M364.347 558L396.352 446H413L380.995 558H364.347Z" fill="#FAFAFA"/>
<path d="M53.2249 558L85.2555 446H101.903L69.8727 558H53.2249Z" fill="#FAFAFA"/>
<path d="M206.774 558L238.805 446H255.453L223.422 558H206.774Z" fill="#FAFAFA"/>
<path d="M78.1965 558L110.227 446H126.875L94.8444 558H78.1965Z" fill="#FAFAFA"/>
<path d="M177.122 558L209.128 446H225.775L193.77 558H177.122Z" fill="#FAFAFA"/>
<path d="M19.5496 558L51.5802 446H68.228L36.1974 558H19.5496Z" fill="#FAFAFA"/>
<g clip-path="url(#clip0_236_349)">
<path d="M634.868 446L666.932 332H683.61L651.546 446H634.868Z" fill="#FAFAFA"/>
<path d="M776.152 446L808.241 332H824.919L792.83 446H776.152Z" fill="#FAFAFA"/>
<path d="M875.258 446L907.322 332H924L891.936 446H875.258Z" fill="#FAFAFA"/>
<path d="M563.567 446L595.656 332H612.335L580.245 446H563.567Z" fill="#FAFAFA"/>
<path d="M717.397 446L749.487 332H766.165L734.076 446H717.397Z" fill="#FAFAFA"/>
<path d="M447.301 446L479.365 332H496.043L463.979 446H447.301Z" fill="#FAFAFA"/>
<path d="M588.585 446L620.674 332H637.352L605.263 446H588.585Z" fill="#FAFAFA"/>
<path d="M687.691 446L719.755 332H736.433L704.369 446H687.691Z" fill="#FAFAFA"/>
<path d="M376 446L408.089 332H424.767L392.678 446H376Z" fill="#FAFAFA"/>
<path d="M529.83 446L561.919 332H578.598L546.509 446H529.83Z" fill="#FAFAFA"/>
</g>
<g clip-path="url(#clip1_236_349)">
<path d="M403.451 332L435.339 221H451.926L420.038 332H403.451Z" fill="#FAFAFA"/>
<path d="M543.961 332L575.874 221H592.461L560.548 332H543.961Z" fill="#FAFAFA"/>
<path d="M642.525 332L674.413 221H691L659.112 332H642.525Z" fill="#FAFAFA"/>
<path d="M332.54 332L364.454 221H381.041L349.127 332H332.54Z" fill="#FAFAFA"/>
<path d="M485.528 332L517.442 221H534.029L502.115 332H485.528Z" fill="#FAFAFA"/>
<path d="M216.91 332L248.799 221H265.386L233.497 332H216.91Z" fill="#FAFAFA"/>
<path d="M357.421 332L389.334 221H405.921L374.008 332H357.421Z" fill="#FAFAFA"/>
<path d="M455.985 332L487.873 221H504.46L472.572 332H455.985Z" fill="#FAFAFA"/>
<path d="M146 332L177.914 221H194.5L162.587 332H146Z" fill="#FAFAFA"/>
<path d="M298.988 332L330.902 221H347.489L315.575 332H298.988Z" fill="#FAFAFA"/>
</g>
<g clip-path="url(#clip2_236_349)">
<path d="M255.868 223L287.932 111H304.61L272.546 223H255.868Z" fill="#FAFAFA"/>
<path d="M397.152 223L429.241 111H445.919L413.83 223H397.152Z" fill="#FAFAFA"/>
<path d="M496.258 223L528.322 111H545L512.936 223H496.258Z" fill="#FAFAFA"/>
<path d="M184.567 223L216.656 111H233.335L201.245 223H184.567Z" fill="#FAFAFA"/>
<path d="M338.397 223L370.487 111H387.165L355.076 223H338.397Z" fill="#FAFAFA"/>
<path d="M68.3008 223L100.365 111H117.043L84.979 223H68.3008Z" fill="#FAFAFA"/>
<path d="M209.584 223L241.674 111H258.352L226.263 223H209.584Z" fill="#FAFAFA"/>
<path d="M308.691 223L340.755 111H357.433L325.369 223H308.691Z" fill="#FAFAFA"/>
<path d="M-3 223L29.0892 111H45.7674L13.6783 223H-3Z" fill="#FAFAFA"/>
<path d="M150.83 223L182.92 111H199.598L167.509 223H150.83Z" fill="#FAFAFA"/>
</g>
<path d="M140.923 111L172.87 0H189.487L157.54 111H140.923Z" fill="#FAFAFA"/>
<path d="M281.691 111L313.663 0H330.281L298.309 111H281.691Z" fill="#FAFAFA"/>
<path d="M380.436 111L412.383 0H429L397.053 111H380.436Z" fill="#FAFAFA"/>
<path d="M69.8826 111L101.855 0H118.472L86.5 111H69.8826Z" fill="#FAFAFA"/>
<path d="M223.151 111L255.123 0H271.741L239.769 111H223.151Z" fill="#FAFAFA"/>
<path d="M-45.9595 111L-14.0127 0H2.60472L-29.3421 111H-45.9595Z" fill="#FAFAFA"/>
<path d="M94.8087 111L126.781 0H143.398L111.426 111H94.8087Z" fill="#FAFAFA"/>
<path d="M193.553 111L225.5 0H242.118L210.171 111H193.553Z" fill="#FAFAFA"/>
<path d="M36.2689 111L68.241 0H84.8584L52.8863 111H36.2689Z" fill="#FAFAFA"/>
<g clip-path="url(#clip3_236_349)">
<path d="M1364.24 814L1398.53 694H1416.37L1382.08 814H1364.24Z" fill="#FAFAFA"/>
<path d="M1288 814L1322.31 694H1340.15L1305.83 814H1288Z" fill="#FAFAFA"/>
</g>
<path d="M1432 694L1466.29 574H1484.12L1449.83 694H1432Z" fill="#FAFAFA"/>
<g clip-path="url(#clip4_236_349)">
<path d="M1400.57 1051L1434.89 931H1452.72L1418.41 1051H1400.57Z" fill="#FAFAFA"/>
<path d="M1276.24 1051L1310.53 931H1328.37L1294.08 1051H1276.24Z" fill="#FAFAFA"/>
<path d="M1427.33 1051L1461.64 931H1479.47L1445.16 1051H1427.33Z" fill="#FAFAFA"/>
<path d="M1200 1051L1234.31 931H1252.15L1217.83 1051H1200Z" fill="#FAFAFA"/>
<path d="M1364.5 1051L1398.81 931H1416.65L1382.33 1051H1364.5Z" fill="#FAFAFA"/>
</g>
<path d="M1391 931L1425.2 813H1442.97L1408.77 931H1391Z" fill="#FAFAFA"/>
<path d="M1416 1171L1450.31 1051H1468.15L1433.83 1171H1416Z" fill="#FAFAFA"/>
<path d="M1276 1171L1310.31 1051H1328.15L1293.83 1171H1276Z" fill="#FAFAFA"/>
<g clip-path="url(#clip5_236_349)">
<path d="M30.8993 679L65.2137 559H83.0485L48.7341 679H30.8993Z" fill="#FAFAFA"/>
<path d="M136.878 679L171.165 559H189L154.713 679H136.878Z" fill="#FAFAFA"/>
<path d="M-31.929 679L2.38542 559H20.2202L-14.0942 679H-31.929Z" fill="#FAFAFA"/>
</g>
<g clip-path="url(#clip6_236_349)">
<path d="M30.8993 799L65.2137 679H83.0485L48.7341 799H30.8993Z" fill="#FAFAFA"/>
<path d="M136.878 799L171.165 679H189L154.713 799H136.878Z" fill="#FAFAFA"/>
<path d="M-31.929 799L2.38542 679H20.2202L-14.0942 799H-31.929Z" fill="#FAFAFA"/>
</g>
<g clip-path="url(#clip7_236_349)">
<path d="M-50.1007 1128L-15.7863 1008H2.04846L-32.2659 1128H-50.1007Z" fill="#FAFAFA"/>
<path d="M55.8782 1128L90.1654 1008H108L73.713 1128H55.8782Z" fill="#FAFAFA"/>
</g>
<g clip-path="url(#clip8_236_349)">
<path d="M-32.1218 1365L2.16539 1245H20.0002L-14.287 1365H-32.1218Z" fill="#FAFAFA"/>
</g>
<path d="M51.439 1245L85.6362 1127H103.41L69.2129 1245H51.439Z" fill="#FAFAFA"/>
<path d="M-11.175 1245L23.0222 1127H40.7961L6.59888 1245H-11.175Z" fill="#FAFAFA"/>
<path d="M-42.8329 1245L-8.6627 1127H9.11121L-25.059 1245H-42.8329Z" fill="#FAFAFA"/>
<g clip-path="url(#clip9_236_349)">
<g clip-path="url(#clip10_236_349)">
<path d="M1405.57 1412L1439.89 1292H1457.72L1423.41 1412H1405.57Z" fill="#FAFAFA"/>
<path d="M1281.24 1412L1315.53 1292H1333.37L1299.08 1412H1281.24Z" fill="#FAFAFA"/>
<path d="M1432.33 1412L1466.64 1292H1484.47L1450.16 1412H1432.33Z" fill="#FAFAFA"/>
<path d="M1205 1412L1239.31 1292H1257.15L1222.83 1412H1205Z" fill="#FAFAFA"/>
<path d="M1369.5 1412L1403.81 1292H1421.65L1387.33 1412H1369.5Z" fill="#FAFAFA"/>
</g>
<path d="M1349 1292L1383.29 1172H1401.12L1366.83 1292H1349Z" fill="#FAFAFA"/>
<path d="M1383.98 1529L1418.15 1411H1435.93L1401.76 1529H1383.98Z" fill="#FAFAFA"/>
<path d="M1308 1529L1342.2 1411H1359.97L1325.77 1529H1308Z" fill="#FAFAFA"/>
</g>
<defs>
<clipPath id="clip0_236_349">
<rect width="548" height="114" fill="white" transform="translate(376 332)"/>
</clipPath>
<clipPath id="clip1_236_349">
<rect width="545" height="111" fill="white" transform="translate(146 221)"/>
</clipPath>
<clipPath id="clip2_236_349">
<rect width="548" height="112" fill="white" transform="translate(-3 111)"/>
</clipPath>
<clipPath id="clip3_236_349">
<rect width="586" height="120" fill="white" transform="translate(1288 694)"/>
</clipPath>
<clipPath id="clip4_236_349">
<rect width="586" height="120" fill="white" transform="translate(1200 931)"/>
</clipPath>
<clipPath id="clip5_236_349">
<rect width="586" height="120" fill="white" transform="translate(-397 559)"/>
</clipPath>
<clipPath id="clip6_236_349">
<rect width="586" height="120" fill="white" transform="translate(-397 679)"/>
</clipPath>
<clipPath id="clip7_236_349">
<rect width="586" height="120" fill="white" transform="translate(-478 1008)"/>
</clipPath>
<clipPath id="clip8_236_349">
<rect width="586" height="120" fill="white" transform="translate(-566 1245)"/>
</clipPath>
<clipPath id="clip9_236_349">
<rect width="775" height="373" fill="white" transform="translate(1117 1156)"/>
</clipPath>
<clipPath id="clip10_236_349">
<rect width="586" height="120" fill="white" transform="translate(1205 1292)"/>
</clipPath>
</defs>
</svg>
