<svg width="1432" height="1475" viewBox="0 0 1432 1475" fill="none" xmlns="http://www.w3.org/2000/svg">
<g clip-path="url(#clip0_236_350)">
<g clip-path="url(#clip1_236_350)">
<path d="M1427.45 1475L1459.34 1364H1475.93L1444.04 1475H1427.45Z" fill="#FAFAFA"/>
<path d="M1356.54 1475L1388.45 1364H1405.04L1373.13 1475H1356.54Z" fill="#FAFAFA"/>
<path d="M1240.91 1475L1272.8 1364H1289.39L1257.5 1475H1240.91Z" fill="#FAFAFA"/>
<path d="M1381.42 1475L1413.33 1364H1429.92L1398.01 1475H1381.42Z" fill="#FAFAFA"/>
<path d="M1170 1475L1201.91 1364H1218.5L1186.59 1475H1170Z" fill="#FAFAFA"/>
<path d="M1322.99 1475L1354.9 1364H1371.49L1339.58 1475H1322.99Z" fill="#FAFAFA"/>
</g>
<g clip-path="url(#clip2_236_350)">
<path d="M1279.87 1366L1311.93 1254H1328.61L1296.55 1366H1279.87Z" fill="#FAFAFA"/>
<path d="M1421.15 1366L1453.24 1254H1469.92L1437.83 1366H1421.15Z" fill="#FAFAFA"/>
<path d="M1208.57 1366L1240.66 1254H1257.33L1225.25 1366H1208.57Z" fill="#FAFAFA"/>
<path d="M1362.4 1366L1394.49 1254H1411.16L1379.08 1366H1362.4Z" fill="#FAFAFA"/>
<path d="M1092.3 1366L1124.36 1254H1141.04L1108.98 1366H1092.3Z" fill="#FAFAFA"/>
<path d="M1233.58 1366L1265.67 1254H1282.35L1250.26 1366H1233.58Z" fill="#FAFAFA"/>
<path d="M1332.69 1366L1364.75 1254H1381.43L1349.37 1366H1332.69Z" fill="#FAFAFA"/>
<path d="M1021 1366L1053.09 1254H1069.77L1037.68 1366H1021Z" fill="#FAFAFA"/>
<path d="M1174.83 1366L1206.92 1254H1223.6L1191.51 1366H1174.83Z" fill="#FAFAFA"/>
</g>
<path d="M1164.92 1254L1196.87 1143H1213.49L1181.54 1254H1164.92Z" fill="#FAFAFA"/>
<path d="M1305.69 1254L1337.66 1143H1354.28L1322.31 1254H1305.69Z" fill="#FAFAFA"/>
<path d="M1404.44 1254L1436.38 1143H1453L1421.05 1254H1404.44Z" fill="#FAFAFA"/>
<path d="M1093.88 1254L1125.85 1143H1142.47L1110.5 1254H1093.88Z" fill="#FAFAFA"/>
<path d="M1247.15 1254L1279.12 1143H1295.74L1263.77 1254H1247.15Z" fill="#FAFAFA"/>
<path d="M978.041 1254L1009.99 1143H1026.6L994.658 1254H978.041Z" fill="#FAFAFA"/>
<path d="M1118.81 1254L1150.78 1143H1167.4L1135.43 1254H1118.81Z" fill="#FAFAFA"/>
<path d="M1217.55 1254L1249.5 1143H1266.12L1234.17 1254H1217.55Z" fill="#FAFAFA"/>
<path d="M907 1254L938.972 1143H955.589L923.617 1254H907Z" fill="#FAFAFA"/>
<path d="M1060.27 1254L1092.24 1143H1108.86L1076.89 1254H1060.27Z" fill="#FAFAFA"/>
</g>
<g clip-path="url(#clip3_236_350)">
<path d="M258.396 558L290.401 446H307.049L275.043 558H258.396Z" fill="#FAFAFA"/>
<path d="M399.421 558L431.452 446H448.1L416.069 558H399.421Z" fill="#FAFAFA"/>
<path d="M498.347 558L530.352 446H547L514.995 558H498.347Z" fill="#FAFAFA"/>
<path d="M187.225 558L219.255 446H235.903L203.873 558H187.225Z" fill="#FAFAFA"/>
<path d="M340.774 558L372.805 446H389.453L357.422 558H340.774Z" fill="#FAFAFA"/>
<path d="M71.1707 558L103.176 446H119.824L87.8185 558H71.1707Z" fill="#FAFAFA"/>
<path d="M212.197 558L244.227 446H260.875L228.844 558H212.197Z" fill="#FAFAFA"/>
<path d="M311.122 558L343.128 446H359.775L327.77 558H311.122Z" fill="#FAFAFA"/>
<path d="M0 558L32.0306 446H48.6784L16.6478 558H0Z" fill="#FAFAFA"/>
<path d="M153.55 558L185.58 446H202.228L170.197 558H153.55Z" fill="#FAFAFA"/>
<g clip-path="url(#clip4_236_350)">
<path d="M768.868 446L800.932 332H817.61L785.546 446H768.868Z" fill="#FAFAFA"/>
<path d="M697.567 446L729.656 332H746.335L714.245 446H697.567Z" fill="#FAFAFA"/>
<path d="M581.301 446L613.365 332H630.043L597.979 446H581.301Z" fill="#FAFAFA"/>
<path d="M722.585 446L754.674 332H771.352L739.263 446H722.585Z" fill="#FAFAFA"/>
<path d="M510 446L542.089 332H558.767L526.678 446H510Z" fill="#FAFAFA"/>
<path d="M663.83 446L695.919 332H712.598L680.509 446H663.83Z" fill="#FAFAFA"/>
</g>
<g clip-path="url(#clip5_236_350)">
<path d="M537.451 332L569.339 221H585.926L554.038 332H537.451Z" fill="#FAFAFA"/>
<path d="M677.961 332L709.874 221H726.461L694.548 332H677.961Z" fill="#FAFAFA"/>
<path d="M776.525 332L808.413 221H825L793.112 332H776.525Z" fill="#FAFAFA"/>
<path d="M466.54 332L498.454 221H515.041L483.127 332H466.54Z" fill="#FAFAFA"/>
<path d="M619.528 332L651.442 221H668.029L636.115 332H619.528Z" fill="#FAFAFA"/>
<path d="M350.91 332L382.799 221H399.386L367.497 332H350.91Z" fill="#FAFAFA"/>
<path d="M491.421 332L523.334 221H539.921L508.008 332H491.421Z" fill="#FAFAFA"/>
<path d="M589.985 332L621.873 221H638.46L606.572 332H589.985Z" fill="#FAFAFA"/>
<path d="M280 332L311.914 221H328.5L296.587 332H280Z" fill="#FAFAFA"/>
<path d="M432.988 332L464.902 221H481.489L449.575 332H432.988Z" fill="#FAFAFA"/>
</g>
<g clip-path="url(#clip6_236_350)">
<path d="M389.868 223L421.932 111H438.61L406.546 223H389.868Z" fill="#FAFAFA"/>
<path d="M531.152 223L563.241 111H579.919L547.83 223H531.152Z" fill="#FAFAFA"/>
<path d="M630.258 223L662.322 111H679L646.936 223H630.258Z" fill="#FAFAFA"/>
<path d="M318.567 223L350.656 111H367.335L335.245 223H318.567Z" fill="#FAFAFA"/>
<path d="M472.397 223L504.487 111H521.165L489.076 223H472.397Z" fill="#FAFAFA"/>
<path d="M202.301 223L234.365 111H251.043L218.979 223H202.301Z" fill="#FAFAFA"/>
<path d="M343.584 223L375.674 111H392.352L360.263 223H343.584Z" fill="#FAFAFA"/>
<path d="M442.691 223L474.755 111H491.433L459.369 223H442.691Z" fill="#FAFAFA"/>
<path d="M131 223L163.089 111H179.767L147.678 223H131Z" fill="#FAFAFA"/>
<path d="M284.83 223L316.92 111H333.598L301.509 223H284.83Z" fill="#FAFAFA"/>
</g>
<path d="M274.923 111L306.87 0H323.487L291.54 111H274.923Z" fill="#FAFAFA"/>
<path d="M415.691 111L447.663 0H464.281L432.309 111H415.691Z" fill="#FAFAFA"/>
<path d="M514.436 111L546.383 0H563L531.053 111H514.436Z" fill="#FAFAFA"/>
<path d="M203.883 111L235.855 0H252.472L220.5 111H203.883Z" fill="#FAFAFA"/>
<path d="M357.151 111L389.123 0H405.741L373.769 111H357.151Z" fill="#FAFAFA"/>
<path d="M88.0405 111L119.987 0H136.605L104.658 111H88.0405Z" fill="#FAFAFA"/>
<path d="M228.809 111L260.781 0H277.398L245.426 111H228.809Z" fill="#FAFAFA"/>
<path d="M327.553 111L359.5 0H376.118L344.171 111H327.553Z" fill="#FAFAFA"/>
<path d="M17 111L48.9721 0H65.5895L33.6174 111H17Z" fill="#FAFAFA"/>
<path d="M170.269 111L202.241 0H218.858L186.886 111H170.269Z" fill="#FAFAFA"/>
</g>
<defs>
<clipPath id="clip0_236_350">
<rect width="542" height="332" fill="white" transform="translate(890 1143)"/>
</clipPath>
<clipPath id="clip1_236_350">
<rect width="545" height="111" fill="white" transform="translate(1170 1364)"/>
</clipPath>
<clipPath id="clip2_236_350">
<rect width="548" height="112" fill="white" transform="translate(1021 1254)"/>
</clipPath>
<clipPath id="clip3_236_350">
<rect width="780" height="653" fill="white"/>
</clipPath>
<clipPath id="clip4_236_350">
<rect width="548" height="114" fill="white" transform="translate(510 332)"/>
</clipPath>
<clipPath id="clip5_236_350">
<rect width="545" height="111" fill="white" transform="translate(280 221)"/>
</clipPath>
<clipPath id="clip6_236_350">
<rect width="548" height="112" fill="white" transform="translate(131 111)"/>
</clipPath>
</defs>
</svg>
