<svg width="120" height="204" viewBox="0 0 120 204" fill="none" xmlns="http://www.w3.org/2000/svg">
<path d="M76.3047 204L95.7887 135H105.923L86.4395 204H76.3047Z" fill="#F2BE04"/>
<path d="M32.9775 204L52.477 135H62.6118L43.1123 204H32.9775Z" fill="#F2BE04"/>
<path d="M48.1797 204L67.6791 135H77.8139L58.3145 204H48.1797Z" fill="#F2BE04"/>
<path d="M12.4766 204L31.976 135H42.1108L22.6113 204H12.4766Z" fill="#F2BE04"/>
<path d="M113.636 135L133.077 68H143.181L123.74 135H113.636Z" fill="#F2BE04"/>
<path d="M43.1973 135L62.6228 68H72.7271L53.3016 135H43.1973Z" fill="#F2BE04"/>
<path d="M0 135L19.4409 68H29.5452L10.1043 135H0Z" fill="#F2BE04"/>
<path d="M93.1963 135L112.637 68H122.742L103.301 135H93.1963Z" fill="#F2BE04"/>
<path d="M102.327 69L121.811 0H131.946L112.462 69H102.327Z" fill="#F2BE04"/>
<path d="M59 69L78.4994 0H88.6342L69.1348 69H59Z" fill="#F2BE04"/>
</svg>
