<svg width="40" height="154" viewBox="0 0 40 154" fill="none" xmlns="http://www.w3.org/2000/svg">
<path d="M11.0813 1.53399C11.3762 1.06704 11.2368 0.449429 10.7698 0.154512C10.3029 -0.140405 9.68526 -0.000944376 9.39035 0.466006L11.0813 1.53399ZM18.7973 153.899C19.2937 154.141 19.8924 153.935 20.1345 153.438L24.0803 145.35C24.3224 144.853 24.1163 144.254 23.62 144.012C23.1236 143.77 22.5249 143.976 22.2828 144.473L18.7754 151.663L11.5852 148.155C11.0889 147.913 10.4902 148.119 10.248 148.616C10.0059 149.112 10.212 149.711 10.7084 149.953L18.7973 153.899ZM9.39035 0.466006C3.24233 10.2003 2.43223 20.3919 5.16695 28.2054C7.89912 36.0116 14.2184 41.5 22.2358 41.5V39.5C15.2532 39.5 9.57248 34.7384 7.05466 27.5446C4.53938 20.3581 5.2293 10.7997 11.0813 1.53399L9.39035 0.466006ZM22.2358 41.5C32.4383 41.5 38.4535 35.0341 38.797 28.301C38.9681 24.9475 37.7142 21.5896 34.9279 19.0845C32.1467 16.584 27.9182 15 22.2358 15V17C27.5535 17 31.2625 18.4785 33.5907 20.5718C35.9137 22.6604 36.941 25.4275 36.7996 28.199C36.5181 33.7159 31.5333 39.5 22.2358 39.5V41.5ZM22.2358 15C13.3726 15 7.41946 19.0397 3.93123 25.1112C0.480032 31.1182 -0.52152 39.0361 0.240529 46.8471C1.00356 54.6682 3.5463 62.512 7.33087 68.4294C11.0965 74.3173 16.2365 78.5 22.2358 78.5V76.5C17.2351 76.5 12.6251 72.9952 9.01575 67.3518C5.42531 61.738 2.96805 54.2068 2.23108 46.6529C1.49313 39.0889 2.49158 31.6318 5.66539 26.1075C8.80217 20.6478 14.0991 17 22.2358 17V15ZM22.2358 78.5C27.8924 78.5 32.0783 77.0861 34.823 74.8358C37.5833 72.5727 38.8185 69.5118 38.6085 66.432C38.188 60.264 32.1047 54.5 22.2358 54.5V56.5C31.3669 56.5 36.2837 61.736 36.6131 66.568C36.7782 68.9882 35.8259 71.4273 33.5549 73.2892C31.2683 75.1639 27.5792 76.5 22.2358 76.5V78.5ZM22.2358 54.5C15.3044 54.5 10.1405 58.3224 6.75641 63.8866C3.38783 69.4253 1.73578 76.7425 1.73578 84C1.73578 91.2575 3.38781 98.5747 6.75639 104.113C10.1405 109.678 15.3044 113.5 22.2358 113.5V111.5C16.1673 111.5 11.5811 108.197 8.46518 103.074C5.33374 97.9253 3.73578 90.9925 3.73578 84C3.73578 77.0075 5.33375 70.0747 8.46519 64.9259C11.5811 59.8026 16.1673 56.5 22.2358 56.5V54.5ZM22.2358 113.5C28.0223 113.5 32.3047 112.021 35.1117 109.673C37.9324 107.314 39.1921 104.131 38.9837 100.935C38.566 94.5298 32.3728 88.5 22.2358 88.5V90.5C31.5989 90.5 36.6557 95.9702 36.9879 101.065C37.1545 103.619 36.1642 106.186 33.8286 108.139C31.4794 110.104 27.6993 111.5 22.2358 111.5V113.5ZM22.2358 88.5C15.8644 88.5 11.588 90.6652 9.10851 94.5997C6.68336 98.4479 6.10842 103.795 6.61416 109.895C7.62675 122.11 13.0545 138.117 18.2902 153.326L20.1813 152.674C14.917 137.383 9.59471 121.64 8.60733 109.73C8.11308 103.768 8.72565 98.9584 10.8005 95.666C12.821 92.4598 16.3572 90.5 22.2358 90.5V88.5Z" fill="#133054"/>
</svg>
