<svg width="36" height="36" viewBox="0 0 36 36" fill="none" xmlns="http://www.w3.org/2000/svg">
<path d="M0 18C0 8.05887 8.05887 0 18 0C27.9411 0 36 8.05887 36 18C36 27.9411 27.9411 36 18 36C8.05887 36 0 27.9411 0 18Z" fill="white"/>
<path d="M18.0008 8.40039C15.3936 8.40039 15.0664 8.41179 14.0424 8.45839C13.0204 8.50519 12.3227 8.66699 11.7123 8.9044C11.0809 9.1496 10.5453 9.4776 10.0117 10.0114C9.47771 10.545 9.14971 11.0806 8.90371 11.7118C8.66571 12.3224 8.5037 13.0202 8.4577 14.0418C8.4119 15.0659 8.3999 15.3933 8.3999 18.0005C8.3999 20.6077 8.4115 20.9339 8.4579 21.9579C8.5049 22.9799 8.66671 23.6775 8.90391 24.288C9.14931 24.9194 9.47731 25.455 10.0111 25.9886C10.5445 26.5226 11.0801 26.8514 11.7111 27.0966C12.3219 27.334 13.0198 27.4958 14.0416 27.5426C15.0656 27.5892 15.3926 27.6006 17.9996 27.6006C20.607 27.6006 20.9332 27.5892 21.9572 27.5426C22.9793 27.4958 23.6777 27.334 24.2885 27.0966C24.9197 26.8514 25.4545 26.5226 25.9879 25.9886C26.5219 25.455 26.8499 24.9194 27.0959 24.2882C27.3319 23.6775 27.4939 22.9797 27.5419 21.9581C27.5879 20.9341 27.5999 20.6077 27.5999 18.0005C27.5999 15.3933 27.5879 15.0661 27.5419 14.042C27.4939 13.02 27.3319 12.3224 27.0959 11.712C26.8499 11.0806 26.5219 10.545 25.9879 10.0114C25.4539 9.4774 24.9199 9.1494 24.2879 8.9044C23.6759 8.66699 22.9779 8.50519 21.9558 8.45839C20.9318 8.41179 20.6058 8.40039 17.9978 8.40039H18.0008Z" fill="#133054"/>
<path d="M17.1397 10.1294C17.3953 10.129 17.6805 10.1294 18.0009 10.1294C20.5642 10.1294 20.868 10.1386 21.8802 10.1846C22.8162 10.2274 23.3242 10.3838 23.6626 10.5152C24.1106 10.6892 24.43 10.8972 24.7658 11.2332C25.1018 11.5692 25.3098 11.8892 25.4842 12.3372C25.6156 12.6752 25.7722 13.1832 25.8148 14.1192C25.8608 15.1312 25.8708 15.4352 25.8708 17.9972C25.8708 20.5593 25.8608 20.8633 25.8148 21.8753C25.772 22.8113 25.6156 23.3193 25.4842 23.6573C25.3102 24.1053 25.1018 24.4243 24.7658 24.7601C24.4298 25.0961 24.1108 25.3041 23.6626 25.4781C23.3246 25.6101 22.8162 25.7661 21.8802 25.8089C20.8682 25.8549 20.5642 25.8649 18.0009 25.8649C15.4375 25.8649 15.1337 25.8549 14.1217 25.8089C13.1857 25.7657 12.6777 25.6093 12.3391 25.4779C11.8911 25.3039 11.5711 25.0959 11.2351 24.7599C10.8991 24.4239 10.6911 24.1047 10.5167 23.6565C10.3853 23.3185 10.2287 22.8105 10.1861 21.8745C10.1401 20.8625 10.1309 20.5585 10.1309 17.9948C10.1309 15.4312 10.1401 15.1288 10.1861 14.1168C10.2289 13.1808 10.3853 12.6728 10.5167 12.3344C10.6907 11.8864 10.8991 11.5664 11.2351 11.2304C11.5711 10.8944 11.8911 10.6864 12.3391 10.512C12.6775 10.38 13.1857 10.224 14.1217 10.181C15.0073 10.141 15.3505 10.129 17.1397 10.127V10.1294Z" fill="white"/>
<path d="M23.1256 11.724C22.4896 11.724 21.9736 12.2394 21.9736 12.8756C21.9736 13.5117 22.4896 14.0277 23.1256 14.0277C23.7617 14.0277 24.2777 13.5117 24.2777 12.8756C24.2777 12.2396 23.7617 11.7236 23.1256 11.7236V11.724Z" fill="#133054"/>
<path d="M18.0008 14.7998C19.768 14.7998 21.2008 16.2324 21.2008 17.9998C21.2008 19.7671 19.768 21.1999 18.0008 21.1999C16.2334 21.1999 14.8008 19.7671 14.8008 17.9998C14.8008 16.2324 16.2334 14.7998 18.0008 14.7998Z" fill="#133054"/>
</svg>
