<svg width="886" height="1003" viewBox="0 0 886 1003" fill="none" xmlns="http://www.w3.org/2000/svg">
<path d="M568.604 223L536.599 335H519.951L551.957 223H568.604Z" fill="#FAFAFA"/>
<path d="M427.579 223L395.548 335H378.9L410.931 223H427.579Z" fill="#FAFAFA"/>
<path d="M328.653 223L296.648 335H280L312.005 223H328.653Z" fill="#FAFAFA"/>
<path d="M403.653 112L371.648 224H355L387.005 112H403.653Z" fill="#FAFAFA"/>
<path d="M639.775 223L607.745 335H591.097L623.127 223H639.775Z" fill="#FAFAFA"/>
<path d="M769.65 112L737.62 224H720.972L753.003 112H769.65Z" fill="#FAFAFA"/>
<path d="M486.226 223L454.195 335H437.547L469.578 223H486.226Z" fill="#FAFAFA"/>
<path d="M755.829 223L723.824 335H707.176L739.182 223H755.829Z" fill="#FAFAFA"/>
<path d="M614.803 223L582.773 335H566.125L598.156 223H614.803Z" fill="#FAFAFA"/>
<path d="M744.678 112L712.648 224H696L728.031 112H744.678Z" fill="#FAFAFA"/>
<path d="M515.878 223L483.872 335H467.225L499.23 223H515.878Z" fill="#FAFAFA"/>
<path d="M827 223L794.969 335H778.322L810.352 223H827Z" fill="#FAFAFA"/>
<path d="M673.45 223L641.42 335H624.772L656.803 223H673.45Z" fill="#FAFAFA"/>
<path d="M628.678 112L596.648 224H580L612.031 112H628.678Z" fill="#FAFAFA"/>
<path d="M707.678 7.62939e-06L675.648 112H659L691.031 7.62939e-06H707.678Z" fill="#FAFAFA"/>
<g clip-path="url(#clip0_0_80)">
<path d="M627.132 335L595.068 449H578.39L610.454 335H627.132Z" fill="#FAFAFA"/>
<path d="M485.848 335L453.759 449H437.081L469.17 335H485.848Z" fill="#FAFAFA"/>
<path d="M386.742 335L354.678 449H338L370.064 335H386.742Z" fill="#FAFAFA"/>
<path d="M698.433 335L666.344 449H649.666L681.755 335H698.433Z" fill="#FAFAFA"/>
<path d="M544.603 335L512.513 449H495.835L527.924 335H544.603Z" fill="#FAFAFA"/>
<path d="M814.699 335L782.635 449H765.957L798.021 335H814.699Z" fill="#FAFAFA"/>
<path d="M673.415 335L641.326 449H624.648L656.737 335H673.415Z" fill="#FAFAFA"/>
<path d="M574.309 335L542.245 449H525.567L557.631 335H574.309Z" fill="#FAFAFA"/>
<path d="M886 335L853.911 449H837.233L869.322 335H886Z" fill="#FAFAFA"/>
<path d="M732.17 335L700.081 449H683.402L715.491 335H732.17Z" fill="#FAFAFA"/>
</g>
<g clip-path="url(#clip1_0_80)">
<path d="M287.549 449L255.661 560H239.074L270.962 449H287.549Z" fill="#FAFAFA"/>
<path d="M147.039 449L115.126 560H98.5386L130.452 449H147.039Z" fill="#FAFAFA"/>
<path d="M48.4751 449L16.5868 560H-0.000183105L31.8881 449H48.4751Z" fill="#FAFAFA"/>
<path d="M358.46 449L326.546 560H309.959L341.873 449H358.46Z" fill="#FAFAFA"/>
<path d="M205.472 449L173.558 560H156.971L188.885 449H205.472Z" fill="#FAFAFA"/>
<path d="M474.09 449L442.201 560H425.614L457.503 449H474.09Z" fill="#FAFAFA"/>
<path d="M333.579 449L301.666 560H285.079L316.992 449H333.579Z" fill="#FAFAFA"/>
<path d="M235.015 449L203.127 560H186.54L218.428 449H235.015Z" fill="#FAFAFA"/>
<path d="M545 449L513.086 560H496.5L528.413 449H545Z" fill="#FAFAFA"/>
<path d="M392.012 449L360.098 560H343.511L375.425 449H392.012Z" fill="#FAFAFA"/>
</g>
<path d="M479.132 558L447.068 670H430.39L462.454 558H479.132Z" fill="#FAFAFA"/>
<path d="M337.848 558L305.759 670H289.081L321.17 558H337.848Z" fill="#FAFAFA"/>
<path d="M238.742 558L206.678 670H190L222.064 558H238.742Z" fill="#FAFAFA"/>
<path d="M550.433 558L518.344 670H501.665L533.755 558H550.433Z" fill="#FAFAFA"/>
<path d="M396.603 558L364.513 670H347.835L379.924 558H396.603Z" fill="#FAFAFA"/>
<path d="M666.699 558L634.635 670H617.957L650.021 558H666.699Z" fill="#FAFAFA"/>
<path d="M525.416 558L493.326 670H476.648L508.737 558H525.416Z" fill="#FAFAFA"/>
<path d="M426.309 558L394.245 670H377.567L409.631 558H426.309Z" fill="#FAFAFA"/>
<path d="M738 558L705.911 670H689.233L721.322 558H738Z" fill="#FAFAFA"/>
<path d="M590.768 669L558.678 781H542L574.089 669H590.768Z" fill="#FAFAFA"/>
<path d="M584.17 558L552.08 670H535.402L567.491 558H584.17Z" fill="#FAFAFA"/>
<path d="M304.077 670L272.13 781H255.513L287.46 670H304.077Z" fill="#FAFAFA"/>
<path d="M163.309 670L131.337 781H114.719L146.691 670H163.309Z" fill="#FAFAFA"/>
<path d="M64.5642 670L32.6174 781H16L47.9468 670H64.5642Z" fill="#FAFAFA"/>
<path d="M375.117 670L343.145 781H326.528L358.5 670H375.117Z" fill="#FAFAFA"/>
<path d="M221.849 670L189.877 781H173.259L205.231 670H221.849Z" fill="#FAFAFA"/>
<path d="M490.959 670L459.013 781H442.395L474.342 670H490.959Z" fill="#FAFAFA"/>
<path d="M350.191 670L318.219 781H301.602L333.574 670H350.191Z" fill="#FAFAFA"/>
<path d="M251.447 670L219.5 781H202.882L234.829 670H251.447Z" fill="#FAFAFA"/>
<path d="M562 670L530.028 781H513.411L545.383 670H562Z" fill="#FAFAFA"/>
<path d="M408.731 670L376.759 781H360.142L392.114 670H408.731Z" fill="#FAFAFA"/>
<path d="M435.077 781L403.13 892H386.513L418.46 781H435.077Z" fill="#FAFAFA"/>
<path d="M437.564 892L405.617 1003H389L420.947 892H437.564Z" fill="#FAFAFA"/>
<path d="M362.589 781L330.617 892H314L345.972 781H362.589Z" fill="#FAFAFA"/>
<path d="M195.564 781L163.617 892H147L178.947 781H195.564Z" fill="#FAFAFA"/>
<path d="M506.117 781L474.145 892H457.528L489.5 781H506.117Z" fill="#FAFAFA"/>
<defs>
<clipPath id="clip0_0_80">
<rect width="548" height="114" fill="white" transform="translate(886 449) rotate(-180)"/>
</clipPath>
<clipPath id="clip1_0_80">
<rect width="545" height="111" fill="white" transform="translate(545 560) rotate(-180)"/>
</clipPath>
</defs>
</svg>
