<svg width="542" height="332" viewBox="0 0 542 332" fill="none" xmlns="http://www.w3.org/2000/svg">
<g clip-path="url(#clip0_0_262)">
<g clip-path="url(#clip1_0_262)">
<path d="M537.451 332L569.339 221H585.926L554.038 332H537.451Z" fill="#FAFAFA"/>
<path d="M466.54 332L498.454 221H515.041L483.127 332H466.54Z" fill="#FAFAFA"/>
<path d="M350.91 332L382.799 221H399.386L367.497 332H350.91Z" fill="#FAFAFA"/>
<path d="M491.421 332L523.334 221H539.921L508.008 332H491.421Z" fill="#FAFAFA"/>
<path d="M280 332L311.914 221H328.5L296.587 332H280Z" fill="#FAFAFA"/>
<path d="M432.988 332L464.902 221H481.489L449.575 332H432.988Z" fill="#FAFAFA"/>
</g>
<g clip-path="url(#clip2_0_262)">
<path d="M389.868 223L421.932 111H438.61L406.546 223H389.868Z" fill="#FAFAFA"/>
<path d="M531.152 223L563.241 111H579.919L547.83 223H531.152Z" fill="#FAFAFA"/>
<path d="M318.567 223L350.656 111H367.334L335.245 223H318.567Z" fill="#FAFAFA"/>
<path d="M472.397 223L504.487 111H521.165L489.076 223H472.397Z" fill="#FAFAFA"/>
<path d="M202.301 223L234.365 111H251.043L218.979 223H202.301Z" fill="#FAFAFA"/>
<path d="M343.585 223L375.674 111H392.352L360.263 223H343.585Z" fill="#FAFAFA"/>
<path d="M442.691 223L474.755 111H491.433L459.369 223H442.691Z" fill="#FAFAFA"/>
<path d="M131 223L163.089 111H179.767L147.678 223H131Z" fill="#FAFAFA"/>
<path d="M284.83 223L316.92 111H333.598L301.509 223H284.83Z" fill="#FAFAFA"/>
</g>
<path d="M274.923 111L306.87 0H323.487L291.54 111H274.923Z" fill="#FAFAFA"/>
<path d="M415.691 111L447.663 0H464.281L432.309 111H415.691Z" fill="#FAFAFA"/>
<path d="M514.436 111L546.383 0H563L531.053 111H514.436Z" fill="#FAFAFA"/>
<path d="M203.883 111L235.855 0H252.472L220.5 111H203.883Z" fill="#FAFAFA"/>
<path d="M357.151 111L389.123 0H405.741L373.769 111H357.151Z" fill="#FAFAFA"/>
<path d="M88.0405 111L119.987 0H136.605L104.658 111H88.0405Z" fill="#FAFAFA"/>
<path d="M228.809 111L260.781 0H277.398L245.426 111H228.809Z" fill="#FAFAFA"/>
<path d="M327.553 111L359.5 0H376.118L344.171 111H327.553Z" fill="#FAFAFA"/>
<path d="M17 111L48.9721 0H65.5895L33.6174 111H17Z" fill="#FAFAFA"/>
<path d="M170.269 111L202.241 0H218.858L186.886 111H170.269Z" fill="#FAFAFA"/>
</g>
<defs>
<clipPath id="clip0_0_262">
<rect width="542" height="332" fill="white"/>
</clipPath>
<clipPath id="clip1_0_262">
<rect width="545" height="111" fill="white" transform="translate(280 221)"/>
</clipPath>
<clipPath id="clip2_0_262">
<rect width="548" height="112" fill="white" transform="translate(131 111)"/>
</clipPath>
</defs>
</svg>
