<svg width="1440" height="1319" viewBox="0 0 1440 1319" fill="none" xmlns="http://www.w3.org/2000/svg">
<path opacity="0.06" d="M1147.4 669L1179.4 557H1196.05L1164.04 669H1147.4Z" fill="#FAFAFA"/>
<path opacity="0.06" d="M1288.42 669L1320.45 557H1337.1L1305.07 669H1288.42Z" fill="#FAFAFA"/>
<path opacity="0.06" d="M1387.35 669L1419.35 557H1436L1403.99 669H1387.35Z" fill="#FAFAFA"/>
<path opacity="0.06" d="M1076.22 669L1108.26 557H1124.9L1092.87 669H1076.22Z" fill="#FAFAFA"/>
<path opacity="0.06" d="M1229.77 669L1261.81 557H1278.45L1246.42 669H1229.77Z" fill="#FAFAFA"/>
<path opacity="0.06" d="M960.171 669L992.176 557H1008.82L976.818 669H960.171Z" fill="#FAFAFA"/>
<path opacity="0.06" d="M1101.2 669L1133.23 557H1149.87L1117.84 669H1101.2Z" fill="#FAFAFA"/>
<path opacity="0.06" d="M1200.12 669L1232.13 557H1248.78L1216.77 669H1200.12Z" fill="#FAFAFA"/>
<path opacity="0.06" d="M889 669L921.031 557H937.678L905.648 669H889Z" fill="#FAFAFA"/>
<path opacity="0.06" d="M1042.55 669L1074.58 557H1091.23L1059.2 669H1042.55Z" fill="#FAFAFA"/>
<g opacity="0.06" clip-path="url(#clip0_0_328)">
<path d="M1399 557L1431.09 443H1447.77L1415.68 557H1399Z" fill="#FAFAFA"/>
</g>
<g opacity="0.06" clip-path="url(#clip1_0_328)">
<path d="M1426.45 443L1458.34 332H1474.93L1443.04 443H1426.45Z" fill="#FAFAFA"/>
<path d="M1355.54 443L1387.45 332H1404.04L1372.13 443H1355.54Z" fill="#FAFAFA"/>
<path d="M1239.91 443L1271.8 332H1288.39L1256.5 443H1239.91Z" fill="#FAFAFA"/>
<path d="M1380.42 443L1412.33 332H1428.92L1397.01 443H1380.42Z" fill="#FAFAFA"/>
<path d="M1169 443L1200.91 332H1217.5L1185.59 443H1169Z" fill="#FAFAFA"/>
<path d="M1321.99 443L1353.9 332H1370.49L1338.58 443H1321.99Z" fill="#FAFAFA"/>
</g>
<g opacity="0.06" clip-path="url(#clip2_0_328)">
<path d="M1278.87 334L1310.93 222H1327.61L1295.55 334H1278.87Z" fill="#FAFAFA"/>
<path d="M1420.15 334L1452.24 222H1468.92L1436.83 334H1420.15Z" fill="#FAFAFA"/>
<path d="M1207.57 334L1239.66 222H1256.33L1224.25 334H1207.57Z" fill="#FAFAFA"/>
<path d="M1361.4 334L1393.49 222H1410.16L1378.08 334H1361.4Z" fill="#FAFAFA"/>
<path d="M1091.3 334L1123.36 222H1140.04L1107.98 334H1091.3Z" fill="#FAFAFA"/>
<path d="M1232.58 334L1264.67 222H1281.35L1249.26 334H1232.58Z" fill="#FAFAFA"/>
<path d="M1331.69 334L1363.75 222H1380.43L1348.37 334H1331.69Z" fill="#FAFAFA"/>
<path d="M1020 334L1052.09 222H1068.77L1036.68 334H1020Z" fill="#FAFAFA"/>
<path d="M1173.83 334L1205.92 222H1222.6L1190.51 334H1173.83Z" fill="#FAFAFA"/>
</g>
<path d="M1163.92 222L1195.87 111H1212.49L1180.54 222H1163.92Z" fill="#FAFAFA" fill-opacity="0.06"/>
<path d="M1304.69 222L1336.66 111H1353.28L1321.31 222H1304.69Z" fill="#FAFAFA" fill-opacity="0.06"/>
<path d="M1403.44 222L1435.38 111H1452L1420.05 222H1403.44Z" fill="#FAFAFA" fill-opacity="0.06"/>
<path d="M1092.88 222L1124.85 111H1141.47L1109.5 222H1092.88Z" fill="#FAFAFA" fill-opacity="0.06"/>
<path d="M1246.15 222L1278.12 111H1294.74L1262.77 222H1246.15Z" fill="#FAFAFA" fill-opacity="0.06"/>
<path d="M977.041 222L1008.99 111H1025.6L993.658 222H977.041Z" fill="#FAFAFA" fill-opacity="0.06"/>
<path d="M1117.81 222L1149.78 111H1166.4L1134.43 222H1117.81Z" fill="#FAFAFA" fill-opacity="0.06"/>
<path d="M1117.81 111L1149.78 0H1166.4L1134.43 111H1117.81Z" fill="#FAFAFA" fill-opacity="0.06"/>
<path d="M1306 111L1337.97 0H1354.59L1322.62 111H1306Z" fill="#FAFAFA" fill-opacity="0.06"/>
<path d="M1222 111L1253.97 0H1270.59L1238.62 111H1222Z" fill="#FAFAFA" fill-opacity="0.06"/>
<path d="M1054 111L1085.97 0H1102.59L1070.62 111H1054Z" fill="#FAFAFA" fill-opacity="0.06"/>
<path d="M1216.55 222L1248.5 111H1265.12L1233.17 222H1216.55Z" fill="#FAFAFA" fill-opacity="0.06"/>
<path d="M906 222L937.972 111H954.589L922.617 222H906Z" fill="#FAFAFA" fill-opacity="0.06"/>
<path d="M1059.27 222L1091.24 111H1107.86L1075.89 222H1059.27Z" fill="#FAFAFA" fill-opacity="0.06"/>
<path d="M64.3955 1095L96.4008 983H113.049L81.0433 1095H64.3955Z" fill="#FAFAFA" fill-opacity="0.06"/>
<path d="M1 983L33.0053 871H49.6531L17.6478 983H1Z" fill="#FAFAFA" fill-opacity="0.06"/>
<path d="M64.3955 1207L96.4008 1095H113.049L81.0433 1207H64.3955Z" fill="#FAFAFA" fill-opacity="0.06"/>
<path d="M86 1319L118.005 1207H134.653L102.648 1319H86Z" fill="#FAFAFA" fill-opacity="0.06"/>
<path d="M15 1207L47.0053 1095H63.6531L31.6478 1207H15Z" fill="#FAFAFA" fill-opacity="0.06"/>
<path d="M205.421 1095L237.452 983H254.1L222.069 1095H205.421Z" fill="#FAFAFA" fill-opacity="0.06"/>
<path d="M304.347 1095L336.352 983H353L320.995 1095H304.347Z" fill="#FAFAFA" fill-opacity="0.06"/>
<path d="M-6.77515 1095L25.2555 983H41.9033L9.87269 1095H-6.77515Z" fill="#FAFAFA" fill-opacity="0.06"/>
<path d="M146.774 1095L178.805 983H195.453L163.422 1095H146.774Z" fill="#FAFAFA" fill-opacity="0.06"/>
<path d="M18.1965 1095L50.2272 983H66.875L34.8444 1095H18.1965Z" fill="#FAFAFA" fill-opacity="0.06"/>
<path d="M117.122 1095L149.128 983H165.775L133.77 1095H117.122Z" fill="#FAFAFA" fill-opacity="0.06"/>
<path d="M-40.4504 1095L-8.41983 983H8.228L-23.8026 1095H-40.4504Z" fill="#FAFAFA" fill-opacity="0.06"/>
<g opacity="0.06" clip-path="url(#clip3_0_328)">
<path d="M343.451 869L375.339 758H391.926L360.038 869H343.451Z" fill="#FAFAFA"/>
<path d="M483.961 869L515.874 758H532.461L500.548 869H483.961Z" fill="#FAFAFA"/>
<path d="M582.525 869L614.413 758H631L599.112 869H582.525Z" fill="#FAFAFA"/>
<path d="M272.54 869L304.454 758H321.041L289.127 869H272.54Z" fill="#FAFAFA"/>
<path d="M425.528 869L457.442 758H474.029L442.115 869H425.528Z" fill="#FAFAFA"/>
<path d="M156.91 869L188.799 758H205.386L173.497 869H156.91Z" fill="#FAFAFA"/>
<path d="M297.421 869L329.334 758H345.921L314.008 869H297.421Z" fill="#FAFAFA"/>
<path d="M395.985 869L427.873 758H444.46L412.572 869H395.985Z" fill="#FAFAFA"/>
<path d="M86 869L117.914 758H134.5L102.587 869H86Z" fill="#FAFAFA"/>
<path d="M238.988 869L270.902 758H287.489L255.575 869H238.988Z" fill="#FAFAFA"/>
</g>
<g opacity="0.06" clip-path="url(#clip4_0_328)">
<path d="M195.868 760L227.932 648H244.61L212.546 760H195.868Z" fill="#FAFAFA"/>
<path d="M337.152 760L369.241 648H385.919L353.83 760H337.152Z" fill="#FAFAFA"/>
<path d="M436.258 760L468.322 648H485L452.936 760H436.258Z" fill="#FAFAFA"/>
<path d="M124.567 760L156.656 648H173.334L141.245 760H124.567Z" fill="#FAFAFA"/>
<path d="M278.397 760L310.487 648H327.165L295.076 760H278.397Z" fill="#FAFAFA"/>
<path d="M8.30078 760L40.3646 648H57.0429L24.979 760H8.30078Z" fill="#FAFAFA"/>
<path d="M149.585 760L181.674 648H198.352L166.263 760H149.585Z" fill="#FAFAFA"/>
<path d="M248.691 760L280.755 648H297.433L265.369 760H248.691Z" fill="#FAFAFA"/>
<path d="M90.8304 760L122.92 648H139.598L107.509 760H90.8304Z" fill="#FAFAFA"/>
</g>
<path d="M80.9231 648L112.87 537H129.487L97.5405 648H80.9231Z" fill="#FAFAFA" fill-opacity="0.06"/>
<path d="M80.9231 537L112.87 426H129.487L97.5405 537H80.9231Z" fill="#FAFAFA" fill-opacity="0.06"/>
<path d="M-16 537L15.9468 426H32.5641L0.617375 537H-16Z" fill="#FAFAFA" fill-opacity="0.06"/>
<path d="M221.691 648L253.663 537H270.281L238.309 648H221.691Z" fill="#FAFAFA" fill-opacity="0.06"/>
<path d="M320.436 648L352.383 537H369L337.053 648H320.436Z" fill="#FAFAFA" fill-opacity="0.06"/>
<path d="M9.88257 648L41.8546 537H58.472L26.5 648H9.88257Z" fill="#FAFAFA" fill-opacity="0.06"/>
<path d="M163.151 648L195.123 537H211.741L179.769 648H163.151Z" fill="#FAFAFA" fill-opacity="0.06"/>
<path d="M34.8087 648L66.7808 537H83.3982L51.4261 648H34.8087Z" fill="#FAFAFA" fill-opacity="0.06"/>
<path d="M133.553 648L165.5 537H182.118L150.171 648H133.553Z" fill="#FAFAFA" fill-opacity="0.06"/>
<path d="M-23.7311 648L8.24098 537H24.8584L-7.11369 648H-23.7311Z" fill="#FAFAFA" fill-opacity="0.06"/>
<path opacity="0.06" d="M1147.4 781L1179.4 669H1196.05L1164.04 781H1147.4Z" fill="#FAFAFA"/>
<path opacity="0.06" d="M1231 781L1263.01 669H1279.65L1247.65 781H1231Z" fill="#FAFAFA"/>
<path opacity="0.06" d="M1093 781L1125.01 669H1141.65L1109.65 781H1093Z" fill="#FAFAFA"/>
<path opacity="0.06" d="M955 781L987.005 669H1003.65L971.648 781H955Z" fill="#FAFAFA"/>
<defs>
<clipPath id="clip0_0_328">
<rect width="548" height="114" fill="white" transform="translate(1399 443)"/>
</clipPath>
<clipPath id="clip1_0_328">
<rect width="545" height="111" fill="white" transform="translate(1169 332)"/>
</clipPath>
<clipPath id="clip2_0_328">
<rect width="548" height="112" fill="white" transform="translate(1020 222)"/>
</clipPath>
<clipPath id="clip3_0_328">
<rect width="545" height="111" fill="white" transform="translate(86 758)"/>
</clipPath>
<clipPath id="clip4_0_328">
<rect width="548" height="112" fill="white" transform="translate(-63 648)"/>
</clipPath>
</defs>
</svg>
