<svg width="1440" height="1380" viewBox="0 0 1440 1380" fill="none" xmlns="http://www.w3.org/2000/svg">
<path d="M223.395 558L255.401 446H272.049L240.043 558H223.395Z" fill="#FAFAFA"/>
<path d="M364.421 558L396.452 446H413.1L381.069 558H364.421Z" fill="#FAFAFA"/>
<path d="M463.347 558L495.352 446H512L479.995 558H463.347Z" fill="#FAFAFA"/>
<path d="M152.225 558L184.255 446H200.903L168.873 558H152.225Z" fill="#FAFAFA"/>
<path d="M305.774 558L337.805 446H354.453L322.422 558H305.774Z" fill="#FAFAFA"/>
<path d="M36.1707 558L68.176 446H84.8238L52.8185 558H36.1707Z" fill="#FAFAFA"/>
<path d="M177.197 558L209.227 446H225.875L193.844 558H177.197Z" fill="#FAFAFA"/>
<path d="M276.122 558L308.128 446H324.775L292.77 558H276.122Z" fill="#FAFAFA"/>
<path d="M-35 558L-2.96938 446H13.6784L-18.3522 558H-35Z" fill="#FAFAFA"/>
<path d="M118.55 558L150.58 446H167.228L135.197 558H118.55Z" fill="#FAFAFA"/>
<path d="M733.868 446L765.932 332H782.61L750.546 446H733.868Z" fill="#FAFAFA"/>
<path d="M875.152 446L907.241 332H923.919L891.83 446H875.152Z" fill="#FAFAFA"/>
<path d="M736 560L768.089 446H784.767L752.678 560H736Z" fill="#FAFAFA"/>
<path d="M373 446L405.089 332H421.767L389.678 446H373Z" fill="#FAFAFA"/>
<path d="M974.258 446L1006.32 332H1023L990.936 446H974.258Z" fill="#FAFAFA"/>
<path d="M875 334L907.064 220H923.742L891.678 334H875Z" fill="#FAFAFA"/>
<path d="M662.567 446L694.656 332H711.335L679.245 446H662.567Z" fill="#FAFAFA"/>
<path d="M816.397 446L848.487 332H865.165L833.076 446H816.397Z" fill="#FAFAFA"/>
<path d="M546.301 446L578.365 332H595.043L562.979 446H546.301Z" fill="#FAFAFA"/>
<path d="M687.584 446L719.674 332H736.352L704.263 446H687.584Z" fill="#FAFAFA"/>
<path d="M786.691 446L818.755 332H835.433L803.369 446H786.691Z" fill="#FAFAFA"/>
<path d="M475 446L507.089 332H523.767L491.678 446H475Z" fill="#FAFAFA"/>
<path d="M628.83 446L660.919 332H677.598L645.509 446H628.83Z" fill="#FAFAFA"/>
<path d="M560 558L592.089 444H608.767L576.678 558H560Z" fill="#FAFAFA"/>
<path d="M53 672L85.0892 558H101.767L69.6782 672H53Z" fill="#FAFAFA"/>
<g clip-path="url(#clip0_0_145)">
<path d="M502.451 332L534.339 221H550.926L519.038 332H502.451Z" fill="#FAFAFA"/>
<path d="M642.961 332L674.874 221H691.461L659.548 332H642.961Z" fill="#FAFAFA"/>
<path d="M741.525 332L773.413 221H790L758.112 332H741.525Z" fill="#FAFAFA"/>
<path d="M431.54 332L463.454 221H480.041L448.127 332H431.54Z" fill="#FAFAFA"/>
<path d="M584.528 332L616.442 221H633.029L601.115 332H584.528Z" fill="#FAFAFA"/>
<path d="M315.91 332L347.799 221H364.386L332.497 332H315.91Z" fill="#FAFAFA"/>
<path d="M456.421 332L488.334 221H504.921L473.008 332H456.421Z" fill="#FAFAFA"/>
<path d="M554.985 332L586.873 221H603.46L571.572 332H554.985Z" fill="#FAFAFA"/>
<path d="M245 332L276.914 221H293.5L261.587 332H245Z" fill="#FAFAFA"/>
<path d="M397.988 332L429.902 221H446.489L414.575 332H397.988Z" fill="#FAFAFA"/>
</g>
<g clip-path="url(#clip1_0_145)">
<path d="M354.868 223L386.932 111H403.61L371.546 223H354.868Z" fill="#FAFAFA"/>
<path d="M496.152 223L528.241 111H544.919L512.83 223H496.152Z" fill="#FAFAFA"/>
<path d="M595.258 223L627.322 111H644L611.936 223H595.258Z" fill="#FAFAFA"/>
<path d="M283.567 223L315.656 111H332.334L300.245 223H283.567Z" fill="#FAFAFA"/>
<path d="M437.397 223L469.487 111H486.165L454.076 223H437.397Z" fill="#FAFAFA"/>
<path d="M167.301 223L199.365 111H216.043L183.979 223H167.301Z" fill="#FAFAFA"/>
<path d="M308.585 223L340.674 111H357.352L325.263 223H308.585Z" fill="#FAFAFA"/>
<path d="M407.691 223L439.755 111H456.433L424.369 223H407.691Z" fill="#FAFAFA"/>
<path d="M96 223L128.089 111H144.767L112.678 223H96Z" fill="#FAFAFA"/>
<path d="M249.83 223L281.92 111H298.598L266.509 223H249.83Z" fill="#FAFAFA"/>
</g>
<path d="M239.923 111L271.87 0H288.487L256.54 111H239.923Z" fill="#FAFAFA"/>
<path d="M380.691 111L412.663 0H429.281L397.309 111H380.691Z" fill="#FAFAFA"/>
<path d="M479.436 111L511.383 0H528L496.053 111H479.436Z" fill="#FAFAFA"/>
<path d="M168.883 111L200.855 0H217.472L185.5 111H168.883Z" fill="#FAFAFA"/>
<path d="M322.151 111L354.123 0H370.741L338.769 111H322.151Z" fill="#FAFAFA"/>
<path d="M53.0406 111L84.9874 0H101.605L69.6579 111H53.0406Z" fill="#FAFAFA"/>
<path d="M193.809 111L225.781 0H242.398L210.426 111H193.809Z" fill="#FAFAFA"/>
<path d="M292.553 111L324.5 0H341.118L309.171 111H292.553Z" fill="#FAFAFA"/>
<path d="M-18 111L13.9721 0H30.5895L-1.38261 111H-18Z" fill="#FAFAFA"/>
<path d="M135.269 111L167.241 0H183.858L151.886 111H135.269Z" fill="#FAFAFA"/>
<path d="M837.395 1268L869.401 1156H886.049L854.043 1268H837.395Z" fill="#FAFAFA"/>
<path d="M978.421 1268L1010.45 1156H1027.1L995.069 1268H978.421Z" fill="#FAFAFA"/>
<path d="M1077.35 1268L1109.35 1156H1126L1093.99 1268H1077.35Z" fill="#FAFAFA"/>
<path d="M766.225 1268L798.255 1156H814.903L782.873 1268H766.225Z" fill="#FAFAFA"/>
<path d="M919.774 1268L951.805 1156H968.453L936.422 1268H919.774Z" fill="#FAFAFA"/>
<path d="M650.171 1268L682.176 1156H698.824L666.818 1268H650.171Z" fill="#FAFAFA"/>
<path d="M791.197 1268L823.227 1156H839.875L807.844 1268H791.197Z" fill="#FAFAFA"/>
<path d="M890.122 1268L922.128 1156H938.775L906.77 1268H890.122Z" fill="#FAFAFA"/>
<path d="M579 1268L611.031 1156H627.678L595.648 1268H579Z" fill="#FAFAFA"/>
<path d="M732.55 1268L764.58 1156H781.228L749.197 1268H732.55Z" fill="#FAFAFA"/>
<g clip-path="url(#clip2_0_145)">
<path d="M1347.87 1156L1379.93 1042H1396.61L1364.55 1156H1347.87Z" fill="#FAFAFA"/>
<path d="M1276.57 1156L1308.66 1042H1325.33L1293.25 1156H1276.57Z" fill="#FAFAFA"/>
<path d="M1430.4 1156L1462.49 1042H1479.16L1447.08 1156H1430.4Z" fill="#FAFAFA"/>
<path d="M1160.3 1156L1192.36 1042H1209.04L1176.98 1156H1160.3Z" fill="#FAFAFA"/>
<path d="M1301.58 1156L1333.67 1042H1350.35L1318.26 1156H1301.58Z" fill="#FAFAFA"/>
<path d="M1400.69 1156L1432.75 1042H1449.43L1417.37 1156H1400.69Z" fill="#FAFAFA"/>
<path d="M1089 1156L1121.09 1042H1137.77L1105.68 1156H1089Z" fill="#FAFAFA"/>
<path d="M1242.83 1156L1274.92 1042H1291.6L1259.51 1156H1242.83Z" fill="#FAFAFA"/>
</g>
<g clip-path="url(#clip3_0_145)">
<path d="M1116.45 1042L1148.34 931H1164.93L1133.04 1042H1116.45Z" fill="#FAFAFA"/>
<path d="M1256.96 1042L1288.87 931H1305.46L1273.55 1042H1256.96Z" fill="#FAFAFA"/>
<path d="M1355.52 1042L1387.41 931H1404L1372.11 1042H1355.52Z" fill="#FAFAFA"/>
<path d="M1045.54 1042L1077.45 931H1094.04L1062.13 1042H1045.54Z" fill="#FAFAFA"/>
<path d="M1198.53 1042L1230.44 931H1247.03L1215.12 1042H1198.53Z" fill="#FAFAFA"/>
<path d="M929.91 1042L961.799 931H978.386L946.497 1042H929.91Z" fill="#FAFAFA"/>
<path d="M1070.42 1042L1102.33 931H1118.92L1087.01 1042H1070.42Z" fill="#FAFAFA"/>
<path d="M1168.98 1042L1200.87 931H1217.46L1185.57 1042H1168.98Z" fill="#FAFAFA"/>
<path d="M859 1042L890.914 931H907.5L875.587 1042H859Z" fill="#FAFAFA"/>
<path d="M1011.99 1042L1043.9 931H1060.49L1028.58 1042H1011.99Z" fill="#FAFAFA"/>
</g>
<g clip-path="url(#clip4_0_145)">
<path d="M968.868 933L1000.93 821H1017.61L985.546 933H968.868Z" fill="#FAFAFA"/>
<path d="M1110.15 933L1142.24 821H1158.92L1126.83 933H1110.15Z" fill="#FAFAFA"/>
<path d="M1209.26 933L1241.32 821H1258L1225.94 933H1209.26Z" fill="#FAFAFA"/>
<path d="M897.567 933L929.656 821H946.334L914.245 933H897.567Z" fill="#FAFAFA"/>
<path d="M1051.4 933L1083.49 821H1100.16L1068.08 933H1051.4Z" fill="#FAFAFA"/>
<path d="M781.301 933L813.365 821H830.043L797.979 933H781.301Z" fill="#FAFAFA"/>
<path d="M922.585 933L954.674 821H971.352L939.263 933H922.585Z" fill="#FAFAFA"/>
<path d="M1021.69 933L1053.75 821H1070.43L1038.37 933H1021.69Z" fill="#FAFAFA"/>
<path d="M710 933L742.089 821H758.767L726.678 933H710Z" fill="#FAFAFA"/>
<path d="M863.83 933L895.92 821H912.598L880.509 933H863.83Z" fill="#FAFAFA"/>
</g>
<path d="M853.923 821L885.87 710H902.487L870.54 821H853.923Z" fill="#FAFAFA"/>
<path d="M994.691 821L1026.66 710H1043.28L1011.31 821H994.691Z" fill="#FAFAFA"/>
<path d="M1093.44 821L1125.38 710H1142L1110.05 821H1093.44Z" fill="#FAFAFA"/>
<path d="M782.883 821L814.855 710H831.472L799.5 821H782.883Z" fill="#FAFAFA"/>
<path d="M936.151 821L968.123 710H984.741L952.769 821H936.151Z" fill="#FAFAFA"/>
<path d="M667.041 821L698.987 710H715.605L683.658 821H667.041Z" fill="#FAFAFA"/>
<path d="M807.809 821L839.781 710H856.398L824.426 821H807.809Z" fill="#FAFAFA"/>
<path d="M906.553 821L938.5 710H955.118L923.171 821H906.553Z" fill="#FAFAFA"/>
<path d="M596 821L627.972 710H644.589L612.617 821H596Z" fill="#FAFAFA"/>
<path d="M749.269 821L781.241 710H797.858L765.886 821H749.269Z" fill="#FAFAFA"/>
<path d="M742 1380L774.031 1268H790.678L758.648 1380H742Z" fill="#FAFAFA"/>
<defs>
<clipPath id="clip0_0_145">
<rect width="545" height="111" fill="white" transform="translate(245 221)"/>
</clipPath>
<clipPath id="clip1_0_145">
<rect width="548" height="112" fill="white" transform="translate(96 111)"/>
</clipPath>
<clipPath id="clip2_0_145">
<rect width="548" height="114" fill="white" transform="translate(1089 1042)"/>
</clipPath>
<clipPath id="clip3_0_145">
<rect width="545" height="111" fill="white" transform="translate(859 931)"/>
</clipPath>
<clipPath id="clip4_0_145">
<rect width="548" height="112" fill="white" transform="translate(710 821)"/>
</clipPath>
</defs>
</svg>
