<svg width="478" height="478" viewBox="0 0 478 478" fill="none" xmlns="http://www.w3.org/2000/svg">
<path d="M73.8994 478L108.214 357H126.048L91.7341 478H73.8994Z" fill="#F9C113"/>
<path d="M11.071 478L45.3854 357H63.2202L28.9058 478H11.071Z" fill="#F9C113"/>
<g clip-path="url(#clip0_0_490)">
<path d="M64.4014 357L98.513 239H116.256L82.1448 357H64.4014Z" fill="#F9C113"/>
<path d="M214.709 357L248.847 239H266.591L232.452 357H214.709Z" fill="#F9C113"/>
<path d="M-11.4533 357L22.6854 239H40.4289L6.29021 357H-11.4533Z" fill="#F9C113"/>
<path d="M152.202 357L186.341 239H204.084L169.945 357H152.202Z" fill="#F9C113"/>
<path d="M15.162 357L49.3007 239H67.0441L32.9055 357H15.162Z" fill="#F9C113"/>
<path d="M120.598 357L154.71 239H172.453L138.342 357H120.598Z" fill="#F9C113"/>
</g>
<g clip-path="url(#clip1_0_490)">
<path d="M168.819 239L203.106 119H220.941L186.653 239H168.819Z" fill="#F9C113"/>
<path d="M119.326 239L153.64 119H171.475L137.16 239H119.326Z" fill="#F9C113"/>
<path d="M225.305 239L259.592 119H277.427L243.139 239H225.305Z" fill="#F9C113"/>
<path d="M56.4976 239L90.8119 119H108.647L74.3323 239H56.4976Z" fill="#F9C113"/>
<path d="M-11 238L23.1387 120H40.8822L6.74347 238H-11Z" fill="#F9C113"/>
</g>
<path d="M116.329 120L150.643 0H168.478L134.163 120H116.329Z" fill="#F9C113"/>
<path d="M-8 120L26.2872 0H44.122L9.83478 120H-8Z" fill="#F9C113"/>
<defs>
<clipPath id="clip0_0_490">
<rect width="583" height="118" fill="white" transform="translate(-211 239)"/>
</clipPath>
<clipPath id="clip1_0_490">
<rect width="586" height="120" fill="white" transform="translate(-108 120)"/>
</clipPath>
</defs>
</svg>
