<svg width="126" height="204" viewBox="0 0 126 204" fill="none" xmlns="http://www.w3.org/2000/svg">
<path d="M76.3047 204L95.7887 135H105.923L86.4395 204H76.3047Z" fill="#F2BE04"/>
<path d="M32.978 204L52.4775 135H62.6122L43.1128 204H32.978Z" fill="#F2BE04"/>
<path d="M48.1802 204L67.6796 135H77.8144L58.3149 204H48.1802Z" fill="#F2BE04"/>
<path d="M12.4771 204L31.9765 135H42.1113L22.6118 204H12.4771Z" fill="#F2BE04"/>
<path d="M113.636 135L133.077 68H143.181L123.74 135H113.636Z" fill="#F2BE04"/>
<path d="M43.1968 135L62.6223 68H72.7267L53.3011 135H43.1968Z" fill="#F2BE04"/>
<path d="M0 135L19.4409 68H29.5452L10.1043 135H0Z" fill="#F2BE04"/>
<path d="M93.1963 135L112.637 68H122.742L103.301 135H93.1963Z" fill="#F2BE04"/>
<path d="M102.327 69L121.811 0H131.946L112.462 69H102.327Z" fill="#F2BE04"/>
<path d="M59 69L78.4994 0H88.6342L69.1348 69H59Z" fill="#F2BE04"/>
</svg>
